<svg width="16" height="16" viewBox="0 0 16 16" fill="none" xmlns="http://www.w3.org/2000/svg">
<g clip-path="url(#clip0_1624_7768)">
<path d="M15.2156 5.35143V12.7789C15.1638 12.9551 15.1171 13.1365 15.0186 13.2972C14.6662 13.8881 14.1427 14.1576 13.4637 14.1576C9.64372 14.1576 5.82375 14.1576 2.00378 14.1576C1.96231 14.1576 1.91566 14.1576 1.8742 14.1576C0.936052 14.1213 0.236328 13.3957 0.236328 12.4627C0.236328 10.1769 0.236328 7.89117 0.236328 5.61059C0.236328 5.04563 0.485119 4.59988 0.936052 4.26297C1.24704 4.03491 1.60468 3.9468 1.98305 3.9468C2.57392 3.9468 3.15962 3.9468 3.75049 3.9468C3.87489 3.9468 3.9319 3.90534 3.92154 3.77576C3.91636 3.66173 3.92154 3.54252 3.92154 3.4233C3.92154 2.594 4.55388 1.93574 5.38318 1.92538C6.94849 1.91501 8.50861 1.91501 10.0739 1.92538C10.7477 1.92538 11.2816 2.35558 11.4837 2.99829C11.5563 3.23671 11.5407 3.48032 11.5407 3.72393C11.5407 3.94162 11.5407 3.94162 11.7636 3.94162C12.3234 3.94162 12.8832 3.94162 13.443 3.94162C13.5933 3.94162 13.7436 3.95198 13.8939 3.98308C14.6247 4.15931 15.0497 4.62579 15.2156 5.34625V5.35143ZM7.72596 12.6804C9.60744 12.7011 11.3593 11.2032 11.3645 9.05219C11.3697 6.93747 9.65409 5.41363 7.73633 5.41363C5.84967 5.41363 4.10295 6.89601 4.09777 9.04183C4.09258 11.1565 5.81338 12.6908 7.72596 12.6804Z" fill="#006CD0"/>
<path d="M7.73686 11.4779C6.39961 11.4779 5.30596 10.3946 5.30078 9.05736C5.30078 7.72011 6.38924 6.63165 7.72649 6.62646C9.07929 6.62646 10.1677 7.70974 10.1677 9.05217C10.1677 10.3894 9.07411 11.4727 7.73686 11.4727V11.4779Z" fill="#006CD0"/>
</g>
<defs>
<clipPath id="clip0_1624_7768">
<rect width="15.0259" height="15" fill="white" transform="translate(0.189453 0.5)"/>
</clipPath>
</defs>
</svg>
