<svg width="30" height="30" viewBox="0 0 30 30" fill="none" xmlns="http://www.w3.org/2000/svg">
<g clip-path="url(#clip0_1679_12266)">
<path d="M0.000234375 2.78C0.200234 1.97 0.570234 1.26 1.23023 0.74C1.82023 0.28 2.48023 0 3.23023 0C8.71023 0 14.2002 0 19.6802 0C19.9502 0 20.0402 0.09 20.0402 0.35C20.0302 1.22 20.0402 2.09 20.0402 2.96C20.0402 3.38 20.0402 3.39 19.6202 3.39C14.3702 3.39 9.12023 3.39 3.87023 3.39C3.77023 3.39 3.67023 3.39 3.58023 3.39C3.43023 3.39 3.36023 3.45 3.37023 3.6C3.37023 3.67 3.37023 3.74 3.37023 3.8C3.37023 11.27 3.37023 18.75 3.37023 26.22C3.37023 26.5067 3.51357 26.65 3.80023 26.65C11.2702 26.65 18.7302 26.65 26.2002 26.65C26.4869 26.65 26.6336 26.51 26.6402 26.23C26.6402 22.07 26.6402 17.92 26.6402 13.76C26.6402 13.32 26.6402 13.32 27.0702 13.32C27.9202 13.32 28.7702 13.32 29.6202 13.32C30.0202 13.32 30.0202 13.32 30.0202 13.7C30.0202 18.02 30.0202 22.34 30.0202 26.67C30.0202 28.24 29.0202 29.52 27.5002 29.93C27.4202 29.95 27.3302 29.98 27.2502 30.01H2.75023C2.19023 29.86 1.66023 29.65 1.20023 29.28C0.550234 28.75 0.190234 28.06 -0.00976562 27.26V2.78H0.000234375Z" fill="white"/>
<path d="M29.9708 5.02994C29.9708 5.02994 29.9308 5.09994 29.9008 5.13994C29.8408 5.20994 29.7808 5.26994 29.7208 5.32994C24.3608 10.6899 19.0008 16.0499 13.6408 21.4099C13.3008 21.7499 13.3608 21.7499 13.0208 21.4099C10.7008 19.0899 8.38078 16.7699 6.06078 14.4599C5.88078 14.2799 5.88078 14.0999 6.06078 13.9199C6.69078 13.2899 7.32078 12.6699 7.94078 12.0299C8.11078 11.8499 8.22078 11.8699 8.39078 12.0299C9.94078 13.5899 11.5108 15.1499 13.0708 16.7099C13.2508 16.8899 13.4308 16.8899 13.6108 16.7099C18.1908 12.1299 22.7708 7.54994 27.3508 2.96994C27.5574 2.76327 27.7641 2.76327 27.9708 2.96994C28.5808 3.57994 29.1808 4.17994 29.7908 4.78994C29.8608 4.85994 29.9408 4.91994 29.9708 5.03994V5.02994Z" fill="white"/>
</g>
<defs>
<clipPath id="clip0_1679_12266">
<rect width="30" height="30" fill="white"/>
</clipPath>
</defs>
</svg>
