<svg width="17" height="18" viewBox="0 0 17 18" fill="none" xmlns="http://www.w3.org/2000/svg">
<g clip-path="url(#clip0_685_2213)">
<path d="M11.3375 1.97031C11.4941 2.00146 11.6571 2.02607 11.8073 2.0703C12.3086 2.19508 12.7688 2.44847 13.1422 2.80549C13.5156 3.16251 13.7895 3.61078 13.9367 4.10601C14.0839 4.60125 14.0993 5.12633 13.9815 5.62936C13.8637 6.13239 13.6167 6.59598 13.2649 6.97434C12.3295 7.97274 11.3614 8.94537 10.3866 9.90505C9.84071 10.4213 9.11978 10.712 8.36846 10.7188C7.61715 10.7256 6.89106 10.448 6.33593 9.94163L6.27016 9.8706L7.10918 9.02287C7.31952 9.22293 7.57579 9.3682 7.85546 9.44596C8.15687 9.54137 8.47893 9.55085 8.78541 9.4733C9.0919 9.39575 9.37068 9.23426 9.59044 9.00698C10.5264 8.0737 11.4557 7.13397 12.3719 6.17482C12.6171 5.93475 12.7826 5.6251 12.8459 5.28785C12.9093 4.95061 12.8675 4.60207 12.7261 4.28939C12.6089 3.96806 12.3971 3.68975 12.1186 3.49114C11.8401 3.29253 11.508 3.18295 11.166 3.17677C10.9105 3.16056 10.6547 3.20114 10.4168 3.29563C10.1789 3.39012 9.96491 3.53614 9.79021 3.72321L8.09299 5.45795L7.99607 5.54349L7.12868 4.69163C7.16946 4.66582 7.20837 4.63717 7.24513 4.6059L8.89717 2.91717C9.38367 2.41828 10.027 2.10203 10.7192 2.02149L10.7778 2.02096L11.3375 1.97031Z" fill="#6C7A8E"/>
<path d="M1.10361 11.8255C1.16005 11.584 1.1969 11.3362 1.27293 11.1011C1.39443 10.6917 1.61472 10.3184 1.9144 10.0142C2.85661 9.05477 3.78573 8.08899 4.74108 7.14251C5.28799 6.62061 6.01299 6.32637 6.76892 6.31954C7.52485 6.31271 8.25505 6.59381 8.81129 7.10574L8.87707 7.17678L8.03806 8.0245C7.82772 7.82445 7.57143 7.67917 7.29176 7.60141C6.97942 7.50711 6.64686 7.50257 6.33206 7.58834C6.01727 7.6741 5.73296 7.84669 5.51162 8.0864C4.60801 8.99334 3.71754 9.9132 2.82044 10.8201C2.52323 11.1169 2.33805 11.5075 2.29638 11.9255C2.2536 12.3842 2.38925 12.8418 2.67513 13.2031C2.96101 13.5644 3.37512 13.8016 3.83139 13.8655C4.11194 13.9027 4.39731 13.8724 4.66378 13.7771C4.93026 13.6818 5.17016 13.5243 5.36349 13.3176L7.05431 11.5959L7.15117 11.5039L8.01199 12.3493L7.58594 12.77C7.09547 13.2694 6.62466 13.7816 6.11442 14.2551C5.73322 14.6424 5.24889 14.9122 4.71893 15.0325C4.18897 15.1527 3.63563 15.1183 3.12462 14.9334C2.61681 14.7749 2.16316 14.4782 1.81445 14.0765C1.46574 13.6747 1.23574 13.1838 1.15022 12.6588C1.14951 12.5806 1.11626 12.5028 1.10253 12.4247L1.10361 11.8255Z" fill="#6C7A8E"/>
</g>
<defs>
<clipPath id="clip0_685_2213">
<rect width="16" height="16" fill="white" transform="translate(0 1.07263) rotate(-0.51749)"/>
</clipPath>
</defs>
</svg>
