<svg width="31" height="30" viewBox="0 0 31 30" fill="none" xmlns="http://www.w3.org/2000/svg">
<g clip-path="url(#clip0_1434_54744)">
<path d="M1.21484 8.57698C1.40447 7.78723 1.75633 7.09009 2.37893 6.54915C3.01359 5.99725 3.75073 5.67061 4.59201 5.66732C7.73679 5.65416 10.8821 5.66019 14.0269 5.66293C14.6331 5.66293 15.1576 6.10248 15.2299 6.65109C15.3143 7.28849 14.9712 7.84094 14.3897 8.01248C14.2461 8.05523 14.1009 8.0481 13.9557 8.0481C10.9654 8.04865 7.97575 8.0492 4.98552 8.0481C4.72848 8.0481 4.47089 8.06016 4.23796 8.17416C3.80444 8.38626 3.58576 8.74634 3.58467 9.22699C3.58083 10.8953 3.58302 12.5636 3.58302 14.2319C3.58302 17.933 3.58302 21.634 3.58302 25.3351C3.58302 26.2389 4.0149 26.6658 4.92907 26.6658C10.2349 26.6658 15.5401 26.6581 20.8459 26.6746C21.6154 26.6768 22.2062 26.252 22.2035 25.3C22.1947 22.2736 22.1996 19.2472 22.2007 16.2203C22.2007 15.5823 22.6271 15.0737 23.2026 15.0162C23.8822 14.9482 24.4275 15.3258 24.5629 15.9649C24.5854 16.0707 24.5864 16.1819 24.5864 16.291C24.5875 19.3815 24.5903 22.4715 24.5864 25.562C24.5843 27.1569 23.4607 28.5747 21.9174 28.9573C21.782 28.9907 21.6477 28.9978 21.5113 28.9978C15.7588 28.9978 10.0069 29.0033 4.2544 28.9923C3.41422 28.9907 2.74997 28.5533 2.17286 27.9768C1.65987 27.4643 1.37652 26.8308 1.21484 26.1347V8.57698H1.21484Z" fill="currentColor"/>
<path d="M11.7592 19.1173C11.358 19.1173 11.0741 18.7951 11.1486 18.384C11.3109 17.4896 11.4961 16.599 11.6726 15.7067C11.7553 15.2874 11.8441 14.8693 11.9203 14.4489C11.9658 14.1979 12.0721 13.9918 12.2552 13.8099C15.2213 10.8492 18.1858 7.8864 21.1442 4.91809C21.3295 4.7323 21.4402 4.73011 21.6254 4.91809C22.8553 6.1622 24.0917 7.39972 25.3363 8.62903C25.5282 8.81866 25.5106 8.92937 25.3292 9.11023C22.3675 12.0626 19.4101 15.0194 16.4572 17.9806C16.2374 18.201 15.9825 18.2925 15.6882 18.3495C14.465 18.5868 13.245 18.8384 12.0233 19.0833C11.934 19.1014 11.843 19.1074 11.7592 19.1184V19.1173Z" fill="currentColor"/>
<path d="M26.3297 1.00001C27.5661 1.05536 28.4967 1.61658 28.9927 2.7582C29.48 3.88008 29.3254 4.96031 28.5049 5.88873C28.0057 6.45433 27.4477 6.96842 26.9216 7.511C26.7988 7.6376 26.71 7.6376 26.584 7.511C25.3059 6.22634 24.024 4.94497 22.7399 3.66634C22.616 3.54302 22.6061 3.45424 22.7349 3.32873C23.2704 2.80862 23.7883 2.26987 24.3331 1.75963C24.8888 1.24061 25.5597 0.991241 26.3297 1.00001Z" fill="currentColor"/>
</g>
<defs>
<clipPath id="clip0_1434_54744">
<rect width="28.0548" height="28" fill="white" transform="translate(1.21484 1)"/>
</clipPath>
</defs>
</svg>
