<svg width="16" height="16" viewBox="0 0 16 16" fill="none" xmlns="http://www.w3.org/2000/svg">
<g clip-path="url(#clip0_294_7909)">
<path d="M1 4.78848C1.09481 4.39361 1.27074 4.04504 1.58204 3.77457C1.89937 3.49862 2.26794 3.3353 2.68858 3.33365C4.26098 3.32707 5.83364 3.33009 7.40604 3.33146C7.70912 3.33146 7.97136 3.55123 8.00754 3.82554C8.04974 4.14424 7.87819 4.42046 7.58744 4.50623C7.51565 4.52761 7.44303 4.52404 7.37041 4.52404C5.8753 4.52432 4.38045 4.52459 2.88534 4.52404C2.75682 4.52404 2.62802 4.53007 2.51156 4.58707C2.2948 4.69312 2.18546 4.87316 2.18491 5.11349C2.18299 5.94764 2.18409 6.78179 2.18409 7.61594C2.18409 9.46648 2.18409 11.317 2.18409 13.1675C2.18409 13.6194 2.40003 13.8329 2.85711 13.8329C5.51001 13.8329 8.16264 13.8291 10.8155 13.8373C11.2003 13.8384 11.4957 13.626 11.4943 13.15C11.4899 11.6368 11.4924 10.1236 11.4929 8.61013C11.4929 8.29116 11.7061 8.03686 11.9939 8.00808C12.3337 7.9741 12.6063 8.16291 12.674 8.48243C12.6853 8.53532 12.6858 8.59095 12.6858 8.64548C12.6864 10.1907 12.6877 11.7357 12.6858 13.281C12.6847 14.0784 12.1229 14.7873 11.3513 14.9786C11.2836 14.9953 11.2164 14.9989 11.1482 14.9989C8.27198 14.9989 5.39601 15.0016 2.51978 14.9962C2.09969 14.9953 1.76756 14.7767 1.47901 14.4884C1.22251 14.2322 1.08084 13.9154 1 13.5674V4.78848H1Z" fill="#6C7A8E"/>
<path d="M6.27235 10.0587C6.07176 10.0587 5.92981 9.89753 5.96708 9.69201C6.04819 9.24479 6.14081 8.79949 6.22905 8.35337C6.27043 8.14373 6.31482 7.93465 6.35291 7.72446C6.37566 7.59896 6.42882 7.49592 6.52035 7.40494C8.0034 5.92462 9.48564 4.44321 10.9649 2.95905C11.0575 2.86616 11.1128 2.86506 11.2055 2.95905C11.8204 3.58111 12.4386 4.19987 13.0609 4.81452C13.1568 4.90934 13.1481 4.96469 13.0574 5.05512C11.5765 6.53133 10.0978 8.00973 8.62135 9.49032C8.51146 9.60048 8.38403 9.64625 8.23688 9.67475C7.62524 9.7934 7.01525 9.91918 6.40443 10.0417C6.35976 10.0507 6.31427 10.0537 6.27235 10.0592V10.0587Z" fill="#6C7A8E"/>
<path d="M13.5575 0.999997C14.1757 1.02767 14.641 1.30828 14.889 1.87909C15.1326 2.44003 15.0553 2.98015 14.6451 3.44436C14.3955 3.72716 14.1165 3.9842 13.8534 4.25549C13.7921 4.31879 13.7477 4.31879 13.6846 4.25549C13.0456 3.61316 12.4046 2.97248 11.7626 2.33316C11.7006 2.2715 11.6957 2.22711 11.7601 2.16436C12.0278 1.9043 12.2868 1.63493 12.5592 1.3798C12.8371 1.1203 13.1725 0.995613 13.5575 0.999997Z" fill="#6C7A8E"/>
</g>
<defs>
<clipPath id="clip0_294_7909">
<rect width="14.0274" height="14" fill="white" transform="translate(1 1)"/>
</clipPath>
</defs>
</svg>
