<svg width="31" height="30" viewBox="0 0 31 30" fill="none" xmlns="http://www.w3.org/2000/svg">
<g clip-path="url(#clip0_1679_8521)">
<path d="M0 8.11844C0.203175 7.27227 0.580164 6.52534 1.24724 5.94576C1.92722 5.35444 2.71702 5.00446 3.61839 5.00094C6.9878 4.98685 10.3578 4.99331 13.7272 4.99624C14.3767 4.99624 14.9386 5.46718 15.0161 6.05498C15.1066 6.73791 14.739 7.32982 14.116 7.51361C13.9621 7.55942 13.8065 7.55178 13.6509 7.55178C10.4471 7.55237 7.24383 7.55296 4.04001 7.55178C3.76461 7.55178 3.48862 7.5647 3.23905 7.68684C2.77457 7.91409 2.54027 8.29989 2.5391 8.81487C2.53499 10.6023 2.53734 12.3898 2.53734 14.1773C2.53734 18.1427 2.53734 22.1081 2.53734 26.0736C2.53734 27.0419 3.00006 27.4993 3.97953 27.4993C9.66431 27.4993 15.3485 27.4911 21.0333 27.5087C21.8577 27.5111 22.4907 27.056 22.4878 26.036C22.4784 22.7934 22.4837 19.5508 22.4849 16.3077C22.4849 15.6242 22.9417 15.0792 23.5583 15.0176C24.2864 14.9448 24.8707 15.3493 25.0158 16.034C25.0398 16.1474 25.041 16.2666 25.041 16.3834C25.0422 19.6947 25.0451 23.0054 25.041 26.3167C25.0387 28.0255 23.8349 29.5446 22.1813 29.9545C22.0362 29.9903 21.8924 29.9979 21.7462 29.9979C15.5828 29.9979 9.42003 30.0038 3.25667 29.992C2.35648 29.9903 1.64478 29.5217 1.02644 28.9039C0.476815 28.3549 0.173227 27.6761 0 26.9303V8.11844H0Z" fill="currentColor"/>
<path d="M11.2978 19.4115C10.8679 19.4115 10.5638 19.0662 10.6436 18.6258C10.8174 17.6675 11.0159 16.7133 11.205 15.7573C11.2937 15.3081 11.3888 14.86 11.4704 14.4096C11.5192 14.1407 11.6331 13.9199 11.8292 13.7249C15.0072 10.5528 18.1834 7.37836 21.3532 4.19803C21.5516 3.99897 21.6703 3.99662 21.8687 4.19803C23.1864 5.531 24.5112 6.85692 25.8447 8.17403C26.0503 8.37721 26.0315 8.49583 25.8371 8.68961C22.6638 11.8529 19.4952 15.0209 16.3313 18.1936C16.0959 18.4297 15.8228 18.5277 15.5075 18.5888C14.1968 18.8431 12.8897 19.1126 11.5808 19.3751C11.4851 19.3945 11.3876 19.4009 11.2978 19.4127V19.4115Z" fill="currentColor"/>
<path d="M26.9085 0.000239312C28.2332 0.0595476 29.2303 0.660851 29.7617 1.88401C30.2838 3.08603 30.1182 4.24342 29.2391 5.23816C28.7042 5.84416 28.1064 6.39496 27.5427 6.9763C27.4111 7.11195 27.316 7.11195 27.1809 6.9763C25.8116 5.59988 24.4381 4.22698 23.0623 2.85702C22.9295 2.7249 22.919 2.62977 23.057 2.4953C23.6307 1.93803 24.1856 1.36081 24.7693 0.814113C25.3647 0.258025 26.0834 -0.00915606 26.9085 0.000239312Z" fill="currentColor"/>
</g>
<defs>
<clipPath id="clip0_1679_8521">
<rect width="30.0587" height="30" fill="currentColor"/>
</clipPath>
</defs>
</svg>
