<svg width="17" height="18" viewBox="0 0 17 18" fill="none" xmlns="http://www.w3.org/2000/svg">
<g clip-path="url(#clip0_685_2206)">
<g clip-path="url(#clip1_685_2206)">
<path d="M1.04296 5.85192C1.13421 5.4562 1.30698 5.10606 1.61582 4.83279C1.93065 4.55399 2.29773 4.38734 2.71834 4.3819C4.29061 4.36112 5.86324 4.34993 7.43558 4.3371C7.73864 4.33436 8.00287 4.55176 8.04151 4.82573C8.08659 5.14403 7.91755 5.42179 7.62759 5.51019C7.55599 5.53221 7.48334 5.5293 7.41073 5.52996C5.91567 5.54374 4.42089 5.55751 2.92583 5.57047C2.79732 5.57163 2.66858 5.57882 2.55264 5.63687C2.33685 5.74487 2.22914 5.92589 2.23076 6.16621C2.23638 7.00035 2.24501 7.83445 2.25254 8.66857C2.26925 10.519 2.28597 12.3695 2.30268 14.22C2.30676 14.6718 2.52462 14.8833 2.98169 14.8792C5.63448 14.8552 8.28696 14.8274 10.9398 14.8117C11.3246 14.8093 11.618 14.5943 11.6124 14.1183C11.5943 12.6052 11.5831 11.0921 11.57 9.57864C11.5671 9.25968 11.778 9.00347 12.0655 8.9721C12.4049 8.93505 12.6793 9.12139 12.7499 9.44028C12.7616 9.49307 12.7626 9.54869 12.7631 9.60322C12.7776 11.1484 12.793 12.6933 12.805 14.2385C12.8111 15.036 12.2558 15.7499 11.4858 15.9482C11.4183 15.9655 11.3512 15.9697 11.283 15.9703C8.40686 15.9962 5.53104 16.025 2.65487 16.0455C2.23479 16.0484 1.9007 15.8328 1.60956 15.5471C1.35076 15.2932 1.20623 14.9777 1.12225 14.6304L1.04296 5.85192H1.04296Z" fill="#6C7A8E"/>
<path d="M6.36279 11.0743C6.1622 11.0761 6.0188 10.9163 6.05422 10.7104C6.13129 10.2625 6.21988 9.81637 6.30409 9.36947C6.34357 9.15947 6.38608 8.94999 6.42227 8.73947C6.44388 8.61377 6.49611 8.51025 6.58681 8.41845C8.05643 6.9248 9.52523 5.43006 10.991 3.9326C11.0828 3.83887 11.1381 3.83728 11.2316 3.93043C11.8521 4.5469 12.4759 5.16006 13.1037 5.76906C13.2005 5.86301 13.1922 5.91844 13.1023 6.00969C11.6349 7.49921 10.1696 8.9909 8.70656 10.4848C8.59767 10.5959 8.47066 10.6428 8.32377 10.6727C7.71323 10.7968 7.1044 10.9281 6.49471 11.0561C6.45013 11.0656 6.40467 11.069 6.36279 11.0749L6.36279 11.0743Z" fill="#6C7A8E"/>
<path d="M13.5656 1.95014C14.1841 1.97223 14.6519 2.24862 14.9051 2.81717C15.1537 3.37589 15.0813 3.91668 14.6753 4.38457C14.4282 4.66962 14.1516 4.92917 13.891 5.20283C13.8302 5.26668 13.7858 5.26708 13.7222 5.20435C13.0774 4.56782 12.4307 3.93295 11.7829 3.29946C11.7204 3.23836 11.715 3.19401 11.7789 3.13068C12.0442 2.86822 12.3007 2.59652 12.5708 2.33894C12.8463 2.07694 13.1806 1.94923 13.5656 1.95014Z" fill="#6C7A8E"/>
</g>
</g>
<defs>
<clipPath id="clip0_685_2206">
<rect width="16" height="16" fill="white" transform="translate(0 1.07263) rotate(-0.51749)"/>
</clipPath>
<clipPath id="clip1_685_2206">
<rect width="14.0274" height="14" fill="white" transform="translate(1.00879 2.0636) rotate(-0.51749)"/>
</clipPath>
</defs>
</svg>
