<svg width="16" height="16" viewBox="0 0 16 16" fill="none" xmlns="http://www.w3.org/2000/svg">
<g clip-path="url(#clip0_114_984)">
<path d="M8.00716 3C3.59365 3 1 7.41351 1 7.41351C1 7.41351 3.59365 11.8127 8.00716 11.8127C9.4565 11.7585 10.866 11.3233 12.0936 10.551C13.3212 9.77867 14.3237 8.69652 15 7.41351C14.3256 6.12782 13.3239 5.04278 12.0961 4.26789C10.8684 3.49299 9.45795 3.05565 8.00716 3V3ZM8.00716 10.48C7.39491 10.4914 6.79314 10.3201 6.2787 9.98793C5.76426 9.65576 5.36047 9.17782 5.11889 8.61512C4.87731 8.05242 4.8089 7.4305 4.92239 6.82874C5.03588 6.22699 5.32612 5.6727 5.75606 5.23665C6.186 4.8006 6.73613 4.50256 7.33622 4.38059C7.93632 4.25862 8.55915 4.31824 9.1252 4.55185C9.69125 4.78546 10.1748 5.18246 10.5142 5.69217C10.8536 6.20187 11.0334 6.80115 11.0307 7.41351C11.0308 8.21941 10.7136 8.99295 10.1478 9.56682C9.58197 10.1407 8.81299 10.4687 8.00716 10.48Z" fill="#6C7A8E"/>
<path d="M9.94163 7.41351C9.89982 7.89967 9.67716 8.35247 9.31765 8.68239C8.95813 9.01232 8.48793 9.19538 7.99997 9.19538C7.51201 9.19538 7.04181 9.01232 6.68229 8.68239C6.32278 8.35247 6.10012 7.89967 6.05831 7.41351C6.03518 7.14451 6.0682 6.87363 6.15527 6.61806C6.24235 6.36249 6.38157 6.1278 6.56413 5.92888C6.74668 5.72995 6.96858 5.57113 7.21575 5.46248C7.46292 5.35383 7.72997 5.29773 7.99997 5.29773C8.26997 5.29773 8.53702 5.35383 8.78419 5.46248C9.03136 5.57113 9.25326 5.72995 9.43581 5.92888C9.61837 6.1278 9.75759 6.36249 9.84467 6.61806C9.93174 6.87363 9.96476 7.14451 9.94163 7.41351Z" fill="#6C7A8E"/>
</g>
<defs>
<clipPath id="clip0_114_984">
<rect width="14" height="8.81269" fill="white" transform="translate(1 3)"/>
</clipPath>
</defs>
</svg>
