<svg width="16" height="15" viewBox="0 0 16 15" fill="none" xmlns="http://www.w3.org/2000/svg">
<g clip-path="url(#clip0_357_1894)">
<path d="M15.4143 7.5C15.4143 3.36 12.0543 0 7.91431 0C3.77431 0 0.414307 3.36 0.414307 7.5C0.414307 11.24 3.15431 14.35 6.74431 14.91V9.67H4.84431V7.5H6.74431V5.85C6.74431 3.97 7.86431 2.93 9.57431 2.93C10.3943 2.93 11.2543 3.08 11.2543 3.08V4.93H10.3043C9.37431 4.93 9.08431 5.51 9.08431 6.1V7.51H11.1643L10.8343 9.68H9.08431V14.92C12.6743 14.36 15.4143 11.25 15.4143 7.51V7.5Z" fill="#1877F2"/>
<path d="M10.8343 9.66992L11.1643 7.49992H9.0843V6.08992C9.0843 5.49992 9.3743 4.91992 10.3043 4.91992H11.2543V3.06992C11.2543 3.06992 10.3943 2.91992 9.5743 2.91992C7.8643 2.91992 6.7443 3.95992 6.7443 5.83992V7.48992H4.8443V9.65992H6.7443V14.8999C7.1243 14.9599 7.5143 14.9899 7.9143 14.9899C8.3143 14.9899 8.7043 14.9599 9.0843 14.8999V9.65992H10.8343V9.66992Z" fill="white"/>
</g>
<defs>
<clipPath id="clip0_357_1894">
<rect width="15" height="15" fill="white" transform="translate(0.414307)"/>
</clipPath>
</defs>
</svg>
