<svg width="16" height="15" viewBox="0 0 16 15" fill="none" xmlns="http://www.w3.org/2000/svg">
<g clip-path="url(#clip0_357_1885)">
<path d="M15.1143 7.66989C15.1143 7.04989 15.0643 6.59989 14.9543 6.13989H7.91431V8.91989H12.0443C11.9643 9.60989 11.5143 10.6499 10.5143 11.3499V11.4399L12.7243 13.1599L12.8743 13.1799C14.2943 11.8699 15.1043 9.94989 15.1043 7.65989" fill="#4285F4"/>
<path d="M7.91428 15C9.93428 15 11.6343 14.33 12.8843 13.18L10.5143 11.35C9.88428 11.79 9.03428 12.1 7.91428 12.1C5.93428 12.1 4.24428 10.79 3.64428 8.97998H3.55428L1.23428 10.78L1.20428 10.86C2.43428 13.31 4.97428 14.99 7.90428 14.99" fill="#34A853"/>
<path d="M3.64431 8.9801C3.48431 8.5101 3.39431 8.0101 3.39431 7.5001C3.39431 6.9901 3.48431 6.4801 3.63431 6.0201V5.9201L1.29431 4.1001L1.21431 4.1401C0.704307 5.1601 0.414307 6.3001 0.414307 7.5101C0.414307 8.7201 0.704307 9.8601 1.21431 10.8801L3.64431 9.0001" fill="#FBBC05"/>
<path d="M7.91429 2.9C9.32429 2.9 10.2743 3.51 10.8143 4.02L12.9343 1.95C11.6343 0.74 9.94429 0 7.91429 0C4.98429 0 2.44429 1.68 1.21429 4.13L3.63429 6.01C4.24429 4.2 5.92429 2.89 7.91429 2.89" fill="#EB4335"/>
</g>
<defs>
<clipPath id="clip0_357_1885">
<rect width="14.7" height="15" fill="white" transform="translate(0.414307)"/>
</clipPath>
</defs>
</svg>
