<svg width="16" height="15" viewBox="0 0 16 15" fill="none" xmlns="http://www.w3.org/2000/svg">
<g clip-path="url(#clip0_357_1901)">
<path d="M7.91431 15C12.0564 15 15.4143 11.6421 15.4143 7.5C15.4143 3.35786 12.0564 0 7.91431 0C3.77217 0 0.414307 3.35786 0.414307 7.5C0.414307 11.6421 3.77217 15 7.91431 15Z" fill="#4CC764"/>
<path d="M12.9143 7.06C12.9143 4.82 10.6643 3 7.9043 3C5.1443 3 2.9043 4.82 2.9043 7.06C2.9043 9.07 4.6843 10.75 7.0943 11.07C7.2543 11.11 7.4843 11.18 7.5343 11.32C7.5843 11.45 7.5643 11.64 7.5543 11.77C7.5543 11.77 7.4943 12.12 7.4843 12.2C7.4643 12.33 7.3843 12.7 7.9143 12.47C8.4443 12.24 10.7943 10.77 11.8443 9.56C12.5743 8.76 12.9143 7.96 12.9143 7.06Z" fill="white"/>
<path d="M11.2543 8.35994C11.3043 8.35994 11.3543 8.31994 11.3543 8.25994V7.89994C11.3543 7.84994 11.3143 7.79994 11.2543 7.79994H10.2943V7.42994H11.2543C11.3043 7.42994 11.3543 7.38994 11.3543 7.32994V6.96994C11.3543 6.91994 11.3143 6.86994 11.2543 6.86994H10.2943V6.49994H11.2543C11.3043 6.49994 11.3543 6.45994 11.3543 6.39994V6.03994C11.3543 5.98994 11.3143 5.93994 11.2543 5.93994H9.84426C9.79426 5.93994 9.74426 5.97994 9.74426 6.03994V8.21994C9.74426 8.26994 9.78426 8.31994 9.84426 8.31994H11.2543V8.35994Z" fill="#4CC764"/>
<path d="M6.04429 8.35997C6.09429 8.35997 6.14429 8.31997 6.14429 8.25997V7.89997C6.14429 7.84997 6.10429 7.79997 6.04429 7.79997H5.08429V6.06997C5.08429 6.01997 5.04429 5.96997 4.98429 5.96997H4.62429C4.57429 5.96997 4.52429 6.00997 4.52429 6.06997V8.24997C4.52429 8.29997 4.56429 8.34997 4.62429 8.34997H6.03429L6.04429 8.35997Z" fill="#4CC764"/>
<path d="M6.89427 5.97998H6.54427C6.48905 5.97998 6.44427 6.02475 6.44427 6.07998V8.25998C6.44427 8.31521 6.48905 8.35998 6.54427 8.35998H6.89427C6.9495 8.35998 6.99427 8.31521 6.99427 8.25998V6.07998C6.99427 6.02475 6.9495 5.97998 6.89427 5.97998Z" fill="#4CC764"/>
<path d="M9.31429 5.97996H8.95429C8.90429 5.97996 8.85429 6.01996 8.85429 6.07996V7.37996L7.85429 6.02996V6.00996H7.83429V5.98996H7.43429C7.38429 5.97996 7.33429 6.01996 7.33429 6.06996V8.25996C7.33429 8.30996 7.37429 8.35996 7.43429 8.35996H7.79429C7.84429 8.35996 7.89429 8.31996 7.89429 8.25996V6.95996L8.89429 8.30996L8.91429 8.32996H8.94429L8.96429 8.34996H9.31429C9.36429 8.34996 9.41429 8.30996 9.41429 8.24996V6.05996C9.41429 6.00996 9.37429 5.95996 9.31429 5.95996V5.97996Z" fill="#4CC764"/>
</g>
<defs>
<clipPath id="clip0_357_1901">
<rect width="15" height="15" fill="white" transform="translate(0.414307)"/>
</clipPath>
</defs>
</svg>
