<svg width="20" height="14" viewBox="0 0 20 14" fill="none" xmlns="http://www.w3.org/2000/svg">
<mask id="path-1-inside-1_1550_14948" fill="white">
<path d="M0 1.39176C0.130047 0.990556 0.316316 0.62574 0.671256 0.364337C0.954327 0.156555 1.2682 0.032077 1.62118 0.00622389C1.69256 0.000957522 1.76443 0.00191504 1.83581 0.00191504C7.27332 0.00191504 12.7103 0.00335133 18.1479 0C18.7624 0 19.2621 0.215442 19.6409 0.687979C19.8463 0.944116 19.9582 1.24095 19.9934 1.56459C20.0018 1.64023 19.9998 1.71732 19.9998 1.79392C19.9998 5.19503 19.9998 8.59615 19.9998 11.9973C19.9998 12.735 19.6673 13.2784 18.9976 13.6164C18.7824 13.7251 18.5507 13.7893 18.3043 13.7888C18.1611 13.7883 18.0183 13.7902 17.8751 13.7902C12.5353 13.7902 7.19559 13.7883 1.85585 13.7931C1.23349 13.7936 0.732368 13.5762 0.341739 13.1037C0.169647 12.8954 0.0987572 12.6422 0 12.4009L0 1.39176ZM2.09786 1.18589C2.09003 1.19977 2.08221 1.21366 2.07488 1.22754C2.12426 1.26872 2.17608 1.30702 2.22204 1.35106C3.09081 2.19368 3.96007 3.03582 4.82688 3.88036C6.10877 5.12897 7.38968 6.37901 8.66961 7.62953C9.11451 8.06425 9.63323 8.284 10.2722 8.18825C10.6902 8.12553 11.0222 7.91631 11.3141 7.63193C12.0748 6.89033 12.8335 6.14777 13.5948 5.40665C14.7803 4.25283 15.9674 3.09998 17.153 1.94616C17.4047 1.70152 17.6526 1.45304 17.9239 1.18541L2.09786 1.18589ZM2.10568 12.6077H17.8941C17.8814 12.5277 17.8183 12.4971 17.7748 12.4545C17.327 12.0193 16.8762 11.5874 16.4284 11.1518C15.3074 10.0607 14.1858 8.96959 13.0702 7.8737C12.9558 7.76119 12.8888 7.75688 12.7763 7.87322C12.5216 8.13654 12.2581 8.39268 11.9878 8.64116C10.8838 9.65517 9.12086 9.66092 8.01204 8.65312C7.74071 8.40608 7.47573 8.1509 7.22297 7.88567C7.09732 7.75401 7.02545 7.76598 6.90078 7.88806C5.59152 9.17306 4.27492 10.4514 2.96321 11.734C2.67378 12.0169 2.39608 12.3113 2.10568 12.6077ZM1.20269 2.03521V11.7574C1.2682 11.6966 1.31073 11.6588 1.3518 11.6186C2.90747 10.1062 4.46265 8.59376 6.01832 7.08135C6.13924 6.9639 6.14104 6.84772 6.0237 6.73281C4.46656 5.21323 2.90894 3.69316 1.3518 2.17357C1.31073 2.13336 1.26771 2.09554 1.20269 2.03521ZM18.7834 11.7565V2.04718C18.7482 2.0716 18.7306 2.08022 18.7174 2.09362C17.1138 3.65821 15.5117 5.22424 13.9047 6.785C13.7879 6.89894 13.8348 6.95448 13.9257 7.04305C15.5107 8.58083 17.0933 10.1205 18.6764 11.6602C18.7037 11.6866 18.7326 11.7105 18.7834 11.7565Z"/>
</mask>
<path d="M0 1.39176C0.130047 0.990556 0.316316 0.62574 0.671256 0.364337C0.954327 0.156555 1.2682 0.032077 1.62118 0.00622389C1.69256 0.000957522 1.76443 0.00191504 1.83581 0.00191504C7.27332 0.00191504 12.7103 0.00335133 18.1479 0C18.7624 0 19.2621 0.215442 19.6409 0.687979C19.8463 0.944116 19.9582 1.24095 19.9934 1.56459C20.0018 1.64023 19.9998 1.71732 19.9998 1.79392C19.9998 5.19503 19.9998 8.59615 19.9998 11.9973C19.9998 12.735 19.6673 13.2784 18.9976 13.6164C18.7824 13.7251 18.5507 13.7893 18.3043 13.7888C18.1611 13.7883 18.0183 13.7902 17.8751 13.7902C12.5353 13.7902 7.19559 13.7883 1.85585 13.7931C1.23349 13.7936 0.732368 13.5762 0.341739 13.1037C0.169647 12.8954 0.0987572 12.6422 0 12.4009L0 1.39176ZM2.09786 1.18589C2.09003 1.19977 2.08221 1.21366 2.07488 1.22754C2.12426 1.26872 2.17608 1.30702 2.22204 1.35106C3.09081 2.19368 3.96007 3.03582 4.82688 3.88036C6.10877 5.12897 7.38968 6.37901 8.66961 7.62953C9.11451 8.06425 9.63323 8.284 10.2722 8.18825C10.6902 8.12553 11.0222 7.91631 11.3141 7.63193C12.0748 6.89033 12.8335 6.14777 13.5948 5.40665C14.7803 4.25283 15.9674 3.09998 17.153 1.94616C17.4047 1.70152 17.6526 1.45304 17.9239 1.18541L2.09786 1.18589ZM2.10568 12.6077H17.8941C17.8814 12.5277 17.8183 12.4971 17.7748 12.4545C17.327 12.0193 16.8762 11.5874 16.4284 11.1518C15.3074 10.0607 14.1858 8.96959 13.0702 7.8737C12.9558 7.76119 12.8888 7.75688 12.7763 7.87322C12.5216 8.13654 12.2581 8.39268 11.9878 8.64116C10.8838 9.65517 9.12086 9.66092 8.01204 8.65312C7.74071 8.40608 7.47573 8.1509 7.22297 7.88567C7.09732 7.75401 7.02545 7.76598 6.90078 7.88806C5.59152 9.17306 4.27492 10.4514 2.96321 11.734C2.67378 12.0169 2.39608 12.3113 2.10568 12.6077ZM1.20269 2.03521V11.7574C1.2682 11.6966 1.31073 11.6588 1.3518 11.6186C2.90747 10.1062 4.46265 8.59376 6.01832 7.08135C6.13924 6.9639 6.14104 6.84772 6.0237 6.73281C4.46656 5.21323 2.90894 3.69316 1.3518 2.17357C1.31073 2.13336 1.26771 2.09554 1.20269 2.03521ZM18.7834 11.7565V2.04718C18.7482 2.0716 18.7306 2.08022 18.7174 2.09362C17.1138 3.65821 15.5117 5.22424 13.9047 6.785C13.7879 6.89894 13.8348 6.95448 13.9257 7.04305C15.5107 8.58083 17.0933 10.1205 18.6764 11.6602C18.7037 11.6866 18.7326 11.7105 18.7834 11.7565Z" fill="white"/>
<path d="M0 1.39176L-7.61019 -1.07503L-8 0.127564V1.39176H0ZM0.671256 0.364337L-4.06257 -6.08477L-4.0728 -6.07724L0.671256 0.364337ZM1.62118 0.00622389L2.20555 7.98485L2.20983 7.98454L1.62118 0.00622389ZM18.1479 0V-8L18.1429 -8L18.1479 0ZM19.6409 0.687979L25.8828 -4.31592L25.8823 -4.31655L19.6409 0.687979ZM19.9934 1.56459L12.0403 2.4296L12.0413 2.43832L19.9934 1.56459ZM18.9976 13.6164L15.3933 6.47434L15.3901 6.47597L18.9976 13.6164ZM18.3043 13.7888L18.2776 21.7888L18.2888 21.7888L18.3043 13.7888ZM1.85585 13.7931L1.86201 21.7931H1.86303L1.85585 13.7931ZM0.341739 13.1037L-5.82523 18.1996L-5.82421 18.2008L0.341739 13.1037ZM0 12.4009H-8V13.9746L-7.40389 15.4311L0 12.4009ZM2.09786 1.18589L2.09762 -6.81411L-2.57731 -6.81397L-4.87205 -2.74099L2.09786 1.18589ZM2.07488 1.22754L-4.99899 -2.50882L-8.02573 3.22156L-3.0484 7.37181L2.07488 1.22754ZM2.22204 1.35106L7.7918 -4.39156L7.77474 -4.40811L7.75758 -4.42456L2.22204 1.35106ZM4.82688 3.88036L-0.755854 9.61037L-0.755096 9.61111L4.82688 3.88036ZM8.66961 7.62953L14.2606 1.90759L14.2603 1.90732L8.66961 7.62953ZM10.2722 8.18825L11.4578 16.0999L11.4592 16.0997L10.2722 8.18825ZM11.3141 7.63193L16.8969 13.3618L16.8985 13.3603L11.3141 7.63193ZM13.5948 5.40665L8.01522 -0.326482L8.01405 -0.325345L13.5948 5.40665ZM17.153 1.94616L11.578 -3.79141L11.5734 -3.78696L17.153 1.94616ZM17.9239 1.18541L23.5417 6.88108L37.4279 -6.81518L17.9237 -6.81459L17.9239 1.18541ZM2.10568 12.6077L-3.60823 7.00847L-16.9345 20.6077H2.10568V12.6077ZM17.8941 12.6077V20.6077H27.2665L25.7949 11.3516L17.8941 12.6077ZM17.7748 12.4545L23.3721 6.73869L23.3612 6.72796L23.3502 6.71727L17.7748 12.4545ZM16.4284 11.1518L10.8486 16.8847L10.8499 16.8859L16.4284 11.1518ZM13.0702 7.8737L7.46071 13.5776L7.46414 13.5809L13.0702 7.8737ZM12.7763 7.87322L18.5264 13.4354L18.5286 13.433L12.7763 7.87322ZM11.9878 8.64116L17.3996 14.5329L17.4012 14.5314L11.9878 8.64116ZM8.01204 8.65312L2.62625 14.5686L2.63132 14.5732L8.01204 8.65312ZM7.22297 7.88567L13.0144 2.36664L13.0104 2.36251L7.22297 7.88567ZM6.90078 7.88806L1.30349 2.17227L1.2971 2.17853L6.90078 7.88806ZM2.96321 11.734L8.55567 17.4545L8.55623 17.4539L2.96321 11.734ZM1.20269 2.03521L6.64364 -3.8296L-6.79731 -16.2991V2.03521H1.20269ZM1.20269 11.7574H-6.79731V30.0969L6.64485 17.6211L1.20269 11.7574ZM1.3518 11.6186L-4.22473 5.88251L-4.23513 5.89263L-4.24549 5.90277L1.3518 11.6186ZM6.01832 7.08135L0.444272 1.34289L0.441793 1.3453L6.01832 7.08135ZM6.0237 6.73281L11.621 1.01701L11.6111 1.00735L6.0237 6.73281ZM1.3518 2.17357L-4.2455 7.88938L-4.2356 7.89904L1.3518 2.17357ZM18.7834 11.7565L13.4188 17.6912L26.7834 29.772V11.7565H18.7834ZM18.7834 2.04718H26.7834V-13.2382L14.2238 -4.52623L18.7834 2.04718ZM18.7174 2.09362L24.3042 7.81966L24.3615 7.76375L24.4177 7.7067L18.7174 2.09362ZM13.9047 6.785L8.33104 1.04618L8.32523 1.05182L8.31942 1.05748L13.9047 6.785ZM13.9257 7.04305L8.34387 12.7739L8.34947 12.7794L8.35507 12.7848L13.9257 7.04305ZM18.6764 11.6602L13.0986 17.3951L13.1146 17.4107L13.1308 17.4262L18.6764 11.6602ZM7.61019 3.85855C7.5034 4.18798 6.98914 5.64683 5.41531 6.80592L-4.0728 -6.07724C-6.35651 -4.39535 -7.24331 -2.20687 -7.61019 -1.07503L7.61019 3.85855ZM5.40508 6.81344C4.5822 7.41746 3.47792 7.89166 2.20555 7.98485L1.03681 -7.9724C-0.941517 -7.82751 -2.67354 -7.10435 -4.06257 -6.08477L5.40508 6.81344ZM2.20983 7.98454C2.02043 7.99851 1.87726 8.0009 1.82207 8.00155C1.79313 8.00189 1.77441 8.00185 1.77885 8.00185C1.78119 8.00185 1.7841 8.00185 1.79479 8.00187C1.80335 8.00189 1.81887 8.00191 1.83581 8.00191V-7.99809C1.83581 -7.99809 1.83575 -7.99809 1.83562 -7.99809C1.83549 -7.99809 1.8353 -7.99809 1.83503 -7.99809C1.8345 -7.99809 1.83374 -7.99809 1.83268 -7.99809C1.83038 -7.99809 1.82765 -7.9981 1.82325 -7.9981C1.81607 -7.99812 1.80109 -7.99815 1.78554 -7.99815C1.7542 -7.99816 1.69967 -7.99812 1.63492 -7.99736C1.5081 -7.99587 1.29332 -7.99133 1.03254 -7.97209L2.20983 7.98454ZM1.83581 8.00191C7.2705 8.00191 12.712 8.00335 18.1528 8L18.1429 -8C12.7087 -7.99665 7.27615 -7.99809 1.83581 -7.99809V8.00191ZM18.1479 8C17.5108 8 16.6322 7.88487 15.6795 7.45298C14.7038 7.01063 13.9399 6.36642 13.3996 5.69251L25.8823 -4.31655C23.8272 -6.87956 20.9254 -8 18.1479 -8V8ZM13.3991 5.69188C12.5489 4.63142 12.1512 3.44853 12.0403 2.4296L27.9465 0.699581C27.7653 -0.966636 27.1436 -2.74319 25.8828 -4.31592L13.3991 5.69188ZM12.0413 2.43832C12.0071 2.12704 12.0019 1.88786 12.0006 1.79375C11.9999 1.74441 12 1.71009 12 1.71409C12 1.71789 12 1.71702 11.9999 1.73409C11.9999 1.74631 11.9998 1.76839 11.9998 1.79392H27.9998C27.9998 1.80029 27.9998 1.80321 27.9998 1.79626C27.9998 1.79415 27.9999 1.77411 27.9999 1.75872C28 1.72436 28.0002 1.65168 27.9989 1.56404C27.9965 1.39333 27.9881 1.07778 27.9456 0.690866L12.0413 2.43832ZM11.9998 1.79392C11.9998 1.80056 11.9998 1.8072 11.9998 1.81385C11.9998 1.82049 11.9998 1.82713 11.9998 1.83377C11.9998 1.84042 11.9998 1.84706 11.9998 1.8537C11.9998 1.86035 11.9998 1.86699 11.9998 1.87363C11.9998 1.88027 11.9998 1.88692 11.9998 1.89356C11.9998 1.9002 11.9998 1.90684 11.9998 1.91349C11.9998 1.92013 11.9998 1.92677 11.9998 1.93342C11.9998 1.94006 11.9998 1.9467 11.9998 1.95334C11.9998 1.95999 11.9998 1.96663 11.9998 1.97327C11.9998 1.97992 11.9998 1.98656 11.9998 1.9932C11.9998 1.99984 11.9998 2.00649 11.9998 2.01313C11.9998 2.01977 11.9998 2.02642 11.9998 2.03306C11.9998 2.0397 11.9998 2.04634 11.9998 2.05299C11.9998 2.05963 11.9998 2.06627 11.9998 2.07292C11.9998 2.07956 11.9998 2.0862 11.9998 2.09284C11.9998 2.09949 11.9998 2.10613 11.9998 2.11277C11.9998 2.11941 11.9998 2.12606 11.9998 2.1327C11.9998 2.13934 11.9998 2.14599 11.9998 2.15263C11.9998 2.15927 11.9998 2.16591 11.9998 2.17256C11.9998 2.1792 11.9998 2.18584 11.9998 2.19249C11.9998 2.19913 11.9998 2.20577 11.9998 2.21241C11.9998 2.21906 11.9998 2.2257 11.9998 2.23234C11.9998 2.23899 11.9998 2.24563 11.9998 2.25227C11.9998 2.25891 11.9998 2.26556 11.9998 2.2722C11.9998 2.27884 11.9998 2.28549 11.9998 2.29213C11.9998 2.29877 11.9998 2.30541 11.9998 2.31206C11.9998 2.3187 11.9998 2.32534 11.9998 2.33198C11.9998 2.33863 11.9998 2.34527 11.9998 2.35191C11.9998 2.35856 11.9998 2.3652 11.9998 2.37184C11.9998 2.37848 11.9998 2.38513 11.9998 2.39177C11.9998 2.39841 11.9998 2.40506 11.9998 2.4117C11.9998 2.41834 11.9998 2.42498 11.9998 2.43163C11.9998 2.43827 11.9998 2.44491 11.9998 2.45156C11.9998 2.4582 11.9998 2.46484 11.9998 2.47148C11.9998 2.47813 11.9998 2.48477 11.9998 2.49141C11.9998 2.49805 11.9998 2.5047 11.9998 2.51134C11.9998 2.51798 11.9998 2.52463 11.9998 2.53127C11.9998 2.53791 11.9998 2.54455 11.9998 2.5512C11.9998 2.55784 11.9998 2.56448 11.9998 2.57113C11.9998 2.57777 11.9998 2.58441 11.9998 2.59105C11.9998 2.5977 11.9998 2.60434 11.9998 2.61098C11.9998 2.61763 11.9998 2.62427 11.9998 2.63091C11.9998 2.63755 11.9998 2.6442 11.9998 2.65084C11.9998 2.65748 11.9998 2.66412 11.9998 2.67077C11.9998 2.67741 11.9998 2.68405 11.9998 2.6907C11.9998 2.69734 11.9998 2.70398 11.9998 2.71062C11.9998 2.71727 11.9998 2.72391 11.9998 2.73055C11.9998 2.7372 11.9998 2.74384 11.9998 2.75048C11.9998 2.75712 11.9998 2.76377 11.9998 2.77041C11.9998 2.77705 11.9998 2.7837 11.9998 2.79034C11.9998 2.79698 11.9998 2.80362 11.9998 2.81027C11.9998 2.81691 11.9998 2.82355 11.9998 2.8302C11.9998 2.83684 11.9998 2.84348 11.9998 2.85012C11.9998 2.85677 11.9998 2.86341 11.9998 2.87005C11.9998 2.87669 11.9998 2.88334 11.9998 2.88998C11.9998 2.89662 11.9998 2.90327 11.9998 2.90991C11.9998 2.91655 11.9998 2.92319 11.9998 2.92984C11.9998 2.93648 11.9998 2.94312 11.9998 2.94977C11.9998 2.95641 11.9998 2.96305 11.9998 2.96969C11.9998 2.97634 11.9998 2.98298 11.9998 2.98962C11.9998 2.99627 11.9998 3.00291 11.9998 3.00955C11.9998 3.01619 11.9998 3.02284 11.9998 3.02948C11.9998 3.03612 11.9998 3.04277 11.9998 3.04941C11.9998 3.05605 11.9998 3.06269 11.9998 3.06934C11.9998 3.07598 11.9998 3.08262 11.9998 3.08926C11.9998 3.09591 11.9998 3.10255 11.9998 3.10919C11.9998 3.11584 11.9998 3.12248 11.9998 3.12912C11.9998 3.13576 11.9998 3.14241 11.9998 3.14905C11.9998 3.15569 11.9998 3.16234 11.9998 3.16898C11.9998 3.17562 11.9998 3.18226 11.9998 3.18891C11.9998 3.19555 11.9998 3.20219 11.9998 3.20884C11.9998 3.21548 11.9998 3.22212 11.9998 3.22876C11.9998 3.23541 11.9998 3.24205 11.9998 3.24869C11.9998 3.25533 11.9998 3.26198 11.9998 3.26862C11.9998 3.27526 11.9998 3.28191 11.9998 3.28855C11.9998 3.29519 11.9998 3.30183 11.9998 3.30848C11.9998 3.31512 11.9998 3.32176 11.9998 3.32841C11.9998 3.33505 11.9998 3.34169 11.9998 3.34833C11.9998 3.35498 11.9998 3.36162 11.9998 3.36826C11.9998 3.37491 11.9998 3.38155 11.9998 3.38819C11.9998 3.39483 11.9998 3.40148 11.9998 3.40812C11.9998 3.41476 11.9998 3.42141 11.9998 3.42805C11.9998 3.43469 11.9998 3.44133 11.9998 3.44798C11.9998 3.45462 11.9998 3.46126 11.9998 3.4679C11.9998 3.47455 11.9998 3.48119 11.9998 3.48783C11.9998 3.49448 11.9998 3.50112 11.9998 3.50776C11.9998 3.5144 11.9998 3.52105 11.9998 3.52769C11.9998 3.53433 11.9998 3.54098 11.9998 3.54762C11.9998 3.55426 11.9998 3.5609 11.9998 3.56755C11.9998 3.57419 11.9998 3.58083 11.9998 3.58748C11.9998 3.59412 11.9998 3.60076 11.9998 3.6074C11.9998 3.61405 11.9998 3.62069 11.9998 3.62733C11.9998 3.63397 11.9998 3.64062 11.9998 3.64726C11.9998 3.6539 11.9998 3.66055 11.9998 3.66719C11.9998 3.67383 11.9998 3.68047 11.9998 3.68712C11.9998 3.69376 11.9998 3.7004 11.9998 3.70705C11.9998 3.71369 11.9998 3.72033 11.9998 3.72697C11.9998 3.73362 11.9998 3.74026 11.9998 3.7469C11.9998 3.75355 11.9998 3.76019 11.9998 3.76683C11.9998 3.77347 11.9998 3.78012 11.9998 3.78676C11.9998 3.7934 11.9998 3.80005 11.9998 3.80669C11.9998 3.81333 11.9998 3.81997 11.9998 3.82662C11.9998 3.83326 11.9998 3.8399 11.9998 3.84654C11.9998 3.85319 11.9998 3.85983 11.9998 3.86647C11.9998 3.87312 11.9998 3.87976 11.9998 3.8864C11.9998 3.89304 11.9998 3.89969 11.9998 3.90633C11.9998 3.91297 11.9998 3.91962 11.9998 3.92626C11.9998 3.9329 11.9998 3.93954 11.9998 3.94619C11.9998 3.95283 11.9998 3.95947 11.9998 3.96612C11.9998 3.97276 11.9998 3.9794 11.9998 3.98604C11.9998 3.99269 11.9998 3.99933 11.9998 4.00597C11.9998 4.01261 11.9998 4.01926 11.9998 4.0259C11.9998 4.03254 11.9998 4.03919 11.9998 4.04583C11.9998 4.05247 11.9998 4.05911 11.9998 4.06576C11.9998 4.0724 11.9998 4.07904 11.9998 4.08569C11.9998 4.09233 11.9998 4.09897 11.9998 4.10561C11.9998 4.11226 11.9998 4.1189 11.9998 4.12554C11.9998 4.13219 11.9998 4.13883 11.9998 4.14547C11.9998 4.15211 11.9998 4.15876 11.9998 4.1654C11.9998 4.17204 11.9998 4.17869 11.9998 4.18533C11.9998 4.19197 11.9998 4.19861 11.9998 4.20526C11.9998 4.2119 11.9998 4.21854 11.9998 4.22518C11.9998 4.23183 11.9998 4.23847 11.9998 4.24511C11.9998 4.25176 11.9998 4.2584 11.9998 4.26504C11.9998 4.27168 11.9998 4.27833 11.9998 4.28497C11.9998 4.29161 11.9998 4.29826 11.9998 4.3049C11.9998 4.31154 11.9998 4.31818 11.9998 4.32483C11.9998 4.33147 11.9998 4.33811 11.9998 4.34476C11.9998 4.3514 11.9998 4.35804 11.9998 4.36468C11.9998 4.37133 11.9998 4.37797 11.9998 4.38461C11.9998 4.39125 11.9998 4.3979 11.9998 4.40454C11.9998 4.41118 11.9998 4.41783 11.9998 4.42447C11.9998 4.43111 11.9998 4.43775 11.9998 4.4444C11.9998 4.45104 11.9998 4.45768 11.9998 4.46433C11.9998 4.47097 11.9998 4.47761 11.9998 4.48425C11.9998 4.4909 11.9998 4.49754 11.9998 4.50418C11.9998 4.51083 11.9998 4.51747 11.9998 4.52411C11.9998 4.53075 11.9998 4.5374 11.9998 4.54404C11.9998 4.55068 11.9998 4.55733 11.9998 4.56397C11.9998 4.57061 11.9998 4.57725 11.9998 4.5839C11.9998 4.59054 11.9998 4.59718 11.9998 4.60382C11.9998 4.61047 11.9998 4.61711 11.9998 4.62375C11.9998 4.6304 11.9998 4.63704 11.9998 4.64368C11.9998 4.65032 11.9998 4.65697 11.9998 4.66361C11.9998 4.67025 11.9998 4.6769 11.9998 4.68354C11.9998 4.69018 11.9998 4.69682 11.9998 4.70347C11.9998 4.71011 11.9998 4.71675 11.9998 4.7234C11.9998 4.73004 11.9998 4.73668 11.9998 4.74332C11.9998 4.74997 11.9998 4.75661 11.9998 4.76325C11.9998 4.7699 11.9998 4.77654 11.9998 4.78318C11.9998 4.78982 11.9998 4.79647 11.9998 4.80311C11.9998 4.80975 11.9998 4.81639 11.9998 4.82304C11.9998 4.82968 11.9998 4.83632 11.9998 4.84297C11.9998 4.84961 11.9998 4.85625 11.9998 4.86289C11.9998 4.86954 11.9998 4.87618 11.9998 4.88282C11.9998 4.88947 11.9998 4.89611 11.9998 4.90275C11.9998 4.90939 11.9998 4.91604 11.9998 4.92268C11.9998 4.92932 11.9998 4.93597 11.9998 4.94261C11.9998 4.94925 11.9998 4.95589 11.9998 4.96254C11.9998 4.96918 11.9998 4.97582 11.9998 4.98246C11.9998 4.98911 11.9998 4.99575 11.9998 5.00239C11.9998 5.00904 11.9998 5.01568 11.9998 5.02232C11.9998 5.02896 11.9998 5.03561 11.9998 5.04225C11.9998 5.04889 11.9998 5.05554 11.9998 5.06218C11.9998 5.06882 11.9998 5.07546 11.9998 5.08211C11.9998 5.08875 11.9998 5.09539 11.9998 5.10204C11.9998 5.10868 11.9998 5.11532 11.9998 5.12196C11.9998 5.12861 11.9998 5.13525 11.9998 5.14189C11.9998 5.14854 11.9998 5.15518 11.9998 5.16182C11.9998 5.16846 11.9998 5.17511 11.9998 5.18175C11.9998 5.18839 11.9998 5.19503 11.9998 5.20168C11.9998 5.20832 11.9998 5.21496 11.9998 5.22161C11.9998 5.22825 11.9998 5.23489 11.9998 5.24153C11.9998 5.24818 11.9998 5.25482 11.9998 5.26146C11.9998 5.26811 11.9998 5.27475 11.9998 5.28139C11.9998 5.28803 11.9998 5.29468 11.9998 5.30132C11.9998 5.30796 11.9998 5.31461 11.9998 5.32125C11.9998 5.32789 11.9998 5.33453 11.9998 5.34118C11.9998 5.34782 11.9998 5.35446 11.9998 5.3611C11.9998 5.36775 11.9998 5.37439 11.9998 5.38103C11.9998 5.38768 11.9998 5.39432 11.9998 5.40096C11.9998 5.4076 11.9998 5.41425 11.9998 5.42089C11.9998 5.42753 11.9998 5.43418 11.9998 5.44082C11.9998 5.44746 11.9998 5.4541 11.9998 5.46075C11.9998 5.46739 11.9998 5.47403 11.9998 5.48068C11.9998 5.48732 11.9998 5.49396 11.9998 5.5006C11.9998 5.50725 11.9998 5.51389 11.9998 5.52053C11.9998 5.52717 11.9998 5.53382 11.9998 5.54046C11.9998 5.5471 11.9998 5.55375 11.9998 5.56039C11.9998 5.56703 11.9998 5.57367 11.9998 5.58032C11.9998 5.58696 11.9998 5.5936 11.9998 5.60025C11.9998 5.60689 11.9998 5.61353 11.9998 5.62017C11.9998 5.62682 11.9998 5.63346 11.9998 5.6401C11.9998 5.64675 11.9998 5.65339 11.9998 5.66003C11.9998 5.66667 11.9998 5.67332 11.9998 5.67996C11.9998 5.6866 11.9998 5.69325 11.9998 5.69989C11.9998 5.70653 11.9998 5.71317 11.9998 5.71982C11.9998 5.72646 11.9998 5.7331 11.9998 5.73974C11.9998 5.74639 11.9998 5.75303 11.9998 5.75967C11.9998 5.76632 11.9998 5.77296 11.9998 5.7796C11.9998 5.78624 11.9998 5.79289 11.9998 5.79953C11.9998 5.80617 11.9998 5.81282 11.9998 5.81946C11.9998 5.8261 11.9998 5.83274 11.9998 5.83939C11.9998 5.84603 11.9998 5.85267 11.9998 5.85932C11.9998 5.86596 11.9998 5.8726 11.9998 5.87924C11.9998 5.88589 11.9998 5.89253 11.9998 5.89917C11.9998 5.90582 11.9998 5.91246 11.9998 5.9191C11.9998 5.92574 11.9998 5.93239 11.9998 5.93903C11.9998 5.94567 11.9998 5.95231 11.9998 5.95896C11.9998 5.9656 11.9998 5.97224 11.9998 5.97889C11.9998 5.98553 11.9998 5.99217 11.9998 5.99881C11.9998 6.00546 11.9998 6.0121 11.9998 6.01874C11.9998 6.02539 11.9998 6.03203 11.9998 6.03867C11.9998 6.04531 11.9998 6.05196 11.9998 6.0586C11.9998 6.06524 11.9998 6.07189 11.9998 6.07853C11.9998 6.08517 11.9998 6.09181 11.9998 6.09846C11.9998 6.1051 11.9998 6.11174 11.9998 6.11838C11.9998 6.12503 11.9998 6.13167 11.9998 6.13831C11.9998 6.14496 11.9998 6.1516 11.9998 6.15824C11.9998 6.16488 11.9998 6.17153 11.9998 6.17817C11.9998 6.18481 11.9998 6.19146 11.9998 6.1981C11.9998 6.20474 11.9998 6.21138 11.9998 6.21803C11.9998 6.22467 11.9998 6.23131 11.9998 6.23796C11.9998 6.2446 11.9998 6.25124 11.9998 6.25788C11.9998 6.26453 11.9998 6.27117 11.9998 6.27781C11.9998 6.28446 11.9998 6.2911 11.9998 6.29774C11.9998 6.30438 11.9998 6.31103 11.9998 6.31767C11.9998 6.32431 11.9998 6.33095 11.9998 6.3376C11.9998 6.34424 11.9998 6.35088 11.9998 6.35753C11.9998 6.36417 11.9998 6.37081 11.9998 6.37745C11.9998 6.3841 11.9998 6.39074 11.9998 6.39738C11.9998 6.40403 11.9998 6.41067 11.9998 6.41731C11.9998 6.42395 11.9998 6.4306 11.9998 6.43724C11.9998 6.44388 11.9998 6.45053 11.9998 6.45717C11.9998 6.46381 11.9998 6.47045 11.9998 6.4771C11.9998 6.48374 11.9998 6.49038 11.9998 6.49703C11.9998 6.50367 11.9998 6.51031 11.9998 6.51695C11.9998 6.5236 11.9998 6.53024 11.9998 6.53688C11.9998 6.54352 11.9998 6.55017 11.9998 6.55681C11.9998 6.56345 11.9998 6.5701 11.9998 6.57674C11.9998 6.58338 11.9998 6.59002 11.9998 6.59667C11.9998 6.60331 11.9998 6.60995 11.9998 6.6166C11.9998 6.62324 11.9998 6.62988 11.9998 6.63652C11.9998 6.64317 11.9998 6.64981 11.9998 6.65645C11.9998 6.66309 11.9998 6.66974 11.9998 6.67638C11.9998 6.68302 11.9998 6.68967 11.9998 6.69631C11.9998 6.70295 11.9998 6.70959 11.9998 6.71624C11.9998 6.72288 11.9998 6.72952 11.9998 6.73617C11.9998 6.74281 11.9998 6.74945 11.9998 6.75609C11.9998 6.76274 11.9998 6.76938 11.9998 6.77602C11.9998 6.78267 11.9998 6.78931 11.9998 6.79595C11.9998 6.80259 11.9998 6.80924 11.9998 6.81588C11.9998 6.82252 11.9998 6.82917 11.9998 6.83581C11.9998 6.84245 11.9998 6.84909 11.9998 6.85574C11.9998 6.86238 11.9998 6.86902 11.9998 6.87567C11.9998 6.88231 11.9998 6.88895 11.9998 6.89559C11.9998 6.90224 11.9998 6.90888 11.9998 6.91552C11.9998 6.92216 11.9998 6.92881 11.9998 6.93545C11.9998 6.94209 11.9998 6.94874 11.9998 6.95538C11.9998 6.96202 11.9998 6.96866 11.9998 6.97531C11.9998 6.98195 11.9998 6.98859 11.9998 6.99524C11.9998 7.00188 11.9998 7.00852 11.9998 7.01516C11.9998 7.02181 11.9998 7.02845 11.9998 7.03509C11.9998 7.04174 11.9998 7.04838 11.9998 7.05502C11.9998 7.06166 11.9998 7.06831 11.9998 7.07495C11.9998 7.08159 11.9998 7.08823 11.9998 7.09488C11.9998 7.10152 11.9998 7.10816 11.9998 7.11481C11.9998 7.12145 11.9998 7.12809 11.9998 7.13473C11.9998 7.14138 11.9998 7.14802 11.9998 7.15466C11.9998 7.16131 11.9998 7.16795 11.9998 7.17459C11.9998 7.18123 11.9998 7.18788 11.9998 7.19452C11.9998 7.20116 11.9998 7.20781 11.9998 7.21445C11.9998 7.22109 11.9998 7.22773 11.9998 7.23438C11.9998 7.24102 11.9998 7.24766 11.9998 7.2543C11.9998 7.26095 11.9998 7.26759 11.9998 7.27423C11.9998 7.28088 11.9998 7.28752 11.9998 7.29416C11.9998 7.3008 11.9998 7.30745 11.9998 7.31409C11.9998 7.32073 11.9998 7.32738 11.9998 7.33402C11.9998 7.34066 11.9998 7.3473 11.9998 7.35395C11.9998 7.36059 11.9998 7.36723 11.9998 7.37388C11.9998 7.38052 11.9998 7.38716 11.9998 7.3938C11.9998 7.40045 11.9998 7.40709 11.9998 7.41373C11.9998 7.42038 11.9998 7.42702 11.9998 7.43366C11.9998 7.4403 11.9998 7.44695 11.9998 7.45359C11.9998 7.46023 11.9998 7.46688 11.9998 7.47352C11.9998 7.48016 11.9998 7.4868 11.9998 7.49345C11.9998 7.50009 11.9998 7.50673 11.9998 7.51337C11.9998 7.52002 11.9998 7.52666 11.9998 7.5333C11.9998 7.53995 11.9998 7.54659 11.9998 7.55323C11.9998 7.55987 11.9998 7.56652 11.9998 7.57316C11.9998 7.5798 11.9998 7.58645 11.9998 7.59309C11.9998 7.59973 11.9998 7.60637 11.9998 7.61302C11.9998 7.61966 11.9998 7.6263 11.9998 7.63295C11.9998 7.63959 11.9998 7.64623 11.9998 7.65287C11.9998 7.65952 11.9998 7.66616 11.9998 7.6728C11.9998 7.67944 11.9998 7.68609 11.9998 7.69273C11.9998 7.69937 11.9998 7.70602 11.9998 7.71266C11.9998 7.7193 11.9998 7.72594 11.9998 7.73259C11.9998 7.73923 11.9998 7.74587 11.9998 7.75252C11.9998 7.75916 11.9998 7.7658 11.9998 7.77244C11.9998 7.77909 11.9998 7.78573 11.9998 7.79237C11.9998 7.79902 11.9998 7.80566 11.9998 7.8123C11.9998 7.81894 11.9998 7.82559 11.9998 7.83223C11.9998 7.83887 11.9998 7.84551 11.9998 7.85216C11.9998 7.8588 11.9998 7.86544 11.9998 7.87209C11.9998 7.87873 11.9998 7.88537 11.9998 7.89201C11.9998 7.89866 11.9998 7.9053 11.9998 7.91194C11.9998 7.91859 11.9998 7.92523 11.9998 7.93187C11.9998 7.93851 11.9998 7.94516 11.9998 7.9518C11.9998 7.95844 11.9998 7.96509 11.9998 7.97173C11.9998 7.97837 11.9998 7.98501 11.9998 7.99166C11.9998 7.9983 11.9998 8.00494 11.9998 8.01159C11.9998 8.01823 11.9998 8.02487 11.9998 8.03151C11.9998 8.03816 11.9998 8.0448 11.9998 8.05144C11.9998 8.05808 11.9998 8.06473 11.9998 8.07137C11.9998 8.07801 11.9998 8.08466 11.9998 8.0913C11.9998 8.09794 11.9998 8.10458 11.9998 8.11123C11.9998 8.11787 11.9998 8.12451 11.9998 8.13116C11.9998 8.1378 11.9998 8.14444 11.9998 8.15108C11.9998 8.15773 11.9998 8.16437 11.9998 8.17101C11.9998 8.17766 11.9998 8.1843 11.9998 8.19094C11.9998 8.19758 11.9998 8.20423 11.9998 8.21087C11.9998 8.21751 11.9998 8.22415 11.9998 8.2308C11.9998 8.23744 11.9998 8.24408 11.9998 8.25073C11.9998 8.25737 11.9998 8.26401 11.9998 8.27065C11.9998 8.2773 11.9998 8.28394 11.9998 8.29058C11.9998 8.29723 11.9998 8.30387 11.9998 8.31051C11.9998 8.31715 11.9998 8.3238 11.9998 8.33044C11.9998 8.33708 11.9998 8.34373 11.9998 8.35037C11.9998 8.35701 11.9998 8.36365 11.9998 8.3703C11.9998 8.37694 11.9998 8.38358 11.9998 8.39023C11.9998 8.39687 11.9998 8.40351 11.9998 8.41015C11.9998 8.4168 11.9998 8.42344 11.9998 8.43008C11.9998 8.43672 11.9998 8.44337 11.9998 8.45001C11.9998 8.45665 11.9998 8.4633 11.9998 8.46994C11.9998 8.47658 11.9998 8.48322 11.9998 8.48987C11.9998 8.49651 11.9998 8.50315 11.9998 8.5098C11.9998 8.51644 11.9998 8.52308 11.9998 8.52972C11.9998 8.53637 11.9998 8.54301 11.9998 8.54965C11.9998 8.5563 11.9998 8.56294 11.9998 8.56958C11.9998 8.57622 11.9998 8.58287 11.9998 8.58951C11.9998 8.59615 11.9998 8.60279 11.9998 8.60944C11.9998 8.61608 11.9998 8.62272 11.9998 8.62937C11.9998 8.63601 11.9998 8.64265 11.9998 8.64929C11.9998 8.65594 11.9998 8.66258 11.9998 8.66922C11.9998 8.67587 11.9998 8.68251 11.9998 8.68915C11.9998 8.69579 11.9998 8.70244 11.9998 8.70908C11.9998 8.71572 11.9998 8.72237 11.9998 8.72901C11.9998 8.73565 11.9998 8.74229 11.9998 8.74894C11.9998 8.75558 11.9998 8.76222 11.9998 8.76887C11.9998 8.77551 11.9998 8.78215 11.9998 8.78879C11.9998 8.79544 11.9998 8.80208 11.9998 8.80872C11.9998 8.81536 11.9998 8.82201 11.9998 8.82865C11.9998 8.83529 11.9998 8.84194 11.9998 8.84858C11.9998 8.85522 11.9998 8.86186 11.9998 8.86851C11.9998 8.87515 11.9998 8.88179 11.9998 8.88844C11.9998 8.89508 11.9998 8.90172 11.9998 8.90836C11.9998 8.91501 11.9998 8.92165 11.9998 8.92829C11.9998 8.93494 11.9998 8.94158 11.9998 8.94822C11.9998 8.95486 11.9998 8.96151 11.9998 8.96815C11.9998 8.97479 11.9998 8.98143 11.9998 8.98808C11.9998 8.99472 11.9998 9.00136 11.9998 9.00801C11.9998 9.01465 11.9998 9.02129 11.9998 9.02794C11.9998 9.03458 11.9998 9.04122 11.9998 9.04786C11.9998 9.05451 11.9998 9.06115 11.9998 9.06779C11.9998 9.07443 11.9998 9.08108 11.9998 9.08772C11.9998 9.09436 11.9998 9.10101 11.9998 9.10765C11.9998 9.11429 11.9998 9.12093 11.9998 9.12758C11.9998 9.13422 11.9998 9.14086 11.9998 9.1475C11.9998 9.15415 11.9998 9.16079 11.9998 9.16743C11.9998 9.17408 11.9998 9.18072 11.9998 9.18736C11.9998 9.19401 11.9998 9.20065 11.9998 9.20729C11.9998 9.21393 11.9998 9.22058 11.9998 9.22722C11.9998 9.23386 11.9998 9.2405 11.9998 9.24715C11.9998 9.25379 11.9998 9.26043 11.9998 9.26708C11.9998 9.27372 11.9998 9.28036 11.9998 9.287C11.9998 9.29365 11.9998 9.30029 11.9998 9.30693C11.9998 9.31358 11.9998 9.32022 11.9998 9.32686C11.9998 9.3335 11.9998 9.34015 11.9998 9.34679C11.9998 9.35343 11.9998 9.36007 11.9998 9.36672C11.9998 9.37336 11.9998 9.38 11.9998 9.38665C11.9998 9.39329 11.9998 9.39993 11.9998 9.40657C11.9998 9.41322 11.9998 9.41986 11.9998 9.4265C11.9998 9.43315 11.9998 9.43979 11.9998 9.44643C11.9998 9.45307 11.9998 9.45972 11.9998 9.46636C11.9998 9.473 11.9998 9.47965 11.9998 9.48629C11.9998 9.49293 11.9998 9.49957 11.9998 9.50622C11.9998 9.51286 11.9998 9.5195 11.9998 9.52614C11.9998 9.53279 11.9998 9.53943 11.9998 9.54607C11.9998 9.55272 11.9998 9.55936 11.9998 9.566C11.9998 9.57265 11.9998 9.57929 11.9998 9.58593C11.9998 9.59257 11.9998 9.59922 11.9998 9.60586C11.9998 9.6125 11.9998 9.61914 11.9998 9.62579C11.9998 9.63243 11.9998 9.63907 11.9998 9.64572C11.9998 9.65236 11.9998 9.659 11.9998 9.66564C11.9998 9.67229 11.9998 9.67893 11.9998 9.68557C11.9998 9.69221 11.9998 9.69886 11.9998 9.7055C11.9998 9.71214 11.9998 9.71879 11.9998 9.72543C11.9998 9.73207 11.9998 9.73872 11.9998 9.74536C11.9998 9.752 11.9998 9.75864 11.9998 9.76529C11.9998 9.77193 11.9998 9.77857 11.9998 9.78521C11.9998 9.79186 11.9998 9.7985 11.9998 9.80514C11.9998 9.81179 11.9998 9.81843 11.9998 9.82507C11.9998 9.83171 11.9998 9.83836 11.9998 9.845C11.9998 9.85164 11.9998 9.85829 11.9998 9.86493C11.9998 9.87157 11.9998 9.87821 11.9998 9.88486C11.9998 9.8915 11.9998 9.89814 11.9998 9.90479C11.9998 9.91143 11.9998 9.91807 11.9998 9.92471C11.9998 9.93136 11.9998 9.938 11.9998 9.94464C11.9998 9.95128 11.9998 9.95793 11.9998 9.96457C11.9998 9.97121 11.9998 9.97786 11.9998 9.9845C11.9998 9.99114 11.9998 9.99778 11.9998 10.0044C11.9998 10.0111 11.9998 10.0177 11.9998 10.0244C11.9998 10.031 11.9998 10.0376 11.9998 10.0443C11.9998 10.0509 11.9998 10.0576 11.9998 10.0642C11.9998 10.0709 11.9998 10.0775 11.9998 10.0841C11.9998 10.0908 11.9998 10.0974 11.9998 10.1041C11.9998 10.1107 11.9998 10.1174 11.9998 10.124C11.9998 10.1306 11.9998 10.1373 11.9998 10.1439C11.9998 10.1506 11.9998 10.1572 11.9998 10.1639C11.9998 10.1705 11.9998 10.1771 11.9998 10.1838C11.9998 10.1904 11.9998 10.1971 11.9998 10.2037C11.9998 10.2104 11.9998 10.217 11.9998 10.2236C11.9998 10.2303 11.9998 10.2369 11.9998 10.2436C11.9998 10.2502 11.9998 10.2569 11.9998 10.2635C11.9998 10.2701 11.9998 10.2768 11.9998 10.2834C11.9998 10.2901 11.9998 10.2967 11.9998 10.3034C11.9998 10.31 11.9998 10.3166 11.9998 10.3233C11.9998 10.3299 11.9998 10.3366 11.9998 10.3432C11.9998 10.3499 11.9998 10.3565 11.9998 10.3631C11.9998 10.3698 11.9998 10.3764 11.9998 10.3831C11.9998 10.3897 11.9998 10.3964 11.9998 10.403C11.9998 10.4096 11.9998 10.4163 11.9998 10.4229C11.9998 10.4296 11.9998 10.4362 11.9998 10.4429C11.9998 10.4495 11.9998 10.4561 11.9998 10.4628C11.9998 10.4694 11.9998 10.4761 11.9998 10.4827C11.9998 10.4894 11.9998 10.496 11.9998 10.5026C11.9998 10.5093 11.9998 10.5159 11.9998 10.5226C11.9998 10.5292 11.9998 10.5359 11.9998 10.5425C11.9998 10.5491 11.9998 10.5558 11.9998 10.5624C11.9998 10.5691 11.9998 10.5757 11.9998 10.5824C11.9998 10.589 11.9998 10.5956 11.9998 10.6023C11.9998 10.6089 11.9998 10.6156 11.9998 10.6222C11.9998 10.6289 11.9998 10.6355 11.9998 10.6421C11.9998 10.6488 11.9998 10.6554 11.9998 10.6621C11.9998 10.6687 11.9998 10.6754 11.9998 10.682C11.9998 10.6886 11.9998 10.6953 11.9998 10.7019C11.9998 10.7086 11.9998 10.7152 11.9998 10.7219C11.9998 10.7285 11.9998 10.7351 11.9998 10.7418C11.9998 10.7484 11.9998 10.7551 11.9998 10.7617C11.9998 10.7684 11.9998 10.775 11.9998 10.7816C11.9998 10.7883 11.9998 10.7949 11.9998 10.8016C11.9998 10.8082 11.9998 10.8148 11.9998 10.8215C11.9998 10.8281 11.9998 10.8348 11.9998 10.8414C11.9998 10.8481 11.9998 10.8547 11.9998 10.8613C11.9998 10.868 11.9998 10.8746 11.9998 10.8813C11.9998 10.8879 11.9998 10.8946 11.9998 10.9012C11.9998 10.9078 11.9998 10.9145 11.9998 10.9211C11.9998 10.9278 11.9998 10.9344 11.9998 10.9411C11.9998 10.9477 11.9998 10.9543 11.9998 10.961C11.9998 10.9676 11.9998 10.9743 11.9998 10.9809C11.9998 10.9876 11.9998 10.9942 11.9998 11.0008C11.9998 11.0075 11.9998 11.0141 11.9998 11.0208C11.9998 11.0274 11.9998 11.0341 11.9998 11.0407C11.9998 11.0473 11.9998 11.054 11.9998 11.0606C11.9998 11.0673 11.9998 11.0739 11.9998 11.0806C11.9998 11.0872 11.9998 11.0938 11.9998 11.1005C11.9998 11.1071 11.9998 11.1138 11.9998 11.1204C11.9998 11.1271 11.9998 11.1337 11.9998 11.1403C11.9998 11.147 11.9998 11.1536 11.9998 11.1603C11.9998 11.1669 11.9998 11.1736 11.9998 11.1802C11.9998 11.1868 11.9998 11.1935 11.9998 11.2001C11.9998 11.2068 11.9998 11.2134 11.9998 11.2201C11.9998 11.2267 11.9998 11.2333 11.9998 11.24C11.9998 11.2466 11.9998 11.2533 11.9998 11.2599C11.9998 11.2666 11.9998 11.2732 11.9998 11.2798C11.9998 11.2865 11.9998 11.2931 11.9998 11.2998C11.9998 11.3064 11.9998 11.3131 11.9998 11.3197C11.9998 11.3263 11.9998 11.333 11.9998 11.3396C11.9998 11.3463 11.9998 11.3529 11.9998 11.3596C11.9998 11.3662 11.9998 11.3728 11.9998 11.3795C11.9998 11.3861 11.9998 11.3928 11.9998 11.3994C11.9998 11.4061 11.9998 11.4127 11.9998 11.4193C11.9998 11.426 11.9998 11.4326 11.9998 11.4393C11.9998 11.4459 11.9998 11.4526 11.9998 11.4592C11.9998 11.4658 11.9998 11.4725 11.9998 11.4791C11.9998 11.4858 11.9998 11.4924 11.9998 11.4991C11.9998 11.5057 11.9998 11.5123 11.9998 11.519C11.9998 11.5256 11.9998 11.5323 11.9998 11.5389C11.9998 11.5456 11.9998 11.5522 11.9998 11.5588C11.9998 11.5655 11.9998 11.5721 11.9998 11.5788C11.9998 11.5854 11.9998 11.5921 11.9998 11.5987C11.9998 11.6053 11.9998 11.612 11.9998 11.6186C11.9998 11.6253 11.9998 11.6319 11.9998 11.6386C11.9998 11.6452 11.9998 11.6518 11.9998 11.6585C11.9998 11.6651 11.9998 11.6718 11.9998 11.6784C11.9998 11.6851 11.9998 11.6917 11.9998 11.6983C11.9998 11.705 11.9998 11.7116 11.9998 11.7183C11.9998 11.7249 11.9998 11.7316 11.9998 11.7382C11.9998 11.7448 11.9998 11.7515 11.9998 11.7581C11.9998 11.7648 11.9998 11.7714 11.9998 11.7781C11.9998 11.7847 11.9998 11.7913 11.9998 11.798C11.9998 11.8046 11.9998 11.8113 11.9998 11.8179C11.9998 11.8246 11.9998 11.8312 11.9998 11.8378C11.9998 11.8445 11.9998 11.8511 11.9998 11.8578C11.9998 11.8644 11.9998 11.8711 11.9998 11.8777C11.9998 11.8843 11.9998 11.891 11.9998 11.8976C11.9998 11.9043 11.9998 11.9109 11.9998 11.9176C11.9998 11.9242 11.9998 11.9308 11.9998 11.9375C11.9998 11.9441 11.9998 11.9508 11.9998 11.9574C11.9998 11.9641 11.9998 11.9707 11.9998 11.9773C11.9998 11.984 11.9998 11.9906 11.9998 11.9973H27.9998C27.9998 11.9906 27.9998 11.984 27.9998 11.9773C27.9998 11.9707 27.9998 11.9641 27.9998 11.9574C27.9998 11.9508 27.9998 11.9441 27.9998 11.9375C27.9998 11.9308 27.9998 11.9242 27.9998 11.9176C27.9998 11.9109 27.9998 11.9043 27.9998 11.8976C27.9998 11.891 27.9998 11.8843 27.9998 11.8777C27.9998 11.8711 27.9998 11.8644 27.9998 11.8578C27.9998 11.8511 27.9998 11.8445 27.9998 11.8378C27.9998 11.8312 27.9998 11.8246 27.9998 11.8179C27.9998 11.8113 27.9998 11.8046 27.9998 11.798C27.9998 11.7913 27.9998 11.7847 27.9998 11.7781C27.9998 11.7714 27.9998 11.7648 27.9998 11.7581C27.9998 11.7515 27.9998 11.7448 27.9998 11.7382C27.9998 11.7316 27.9998 11.7249 27.9998 11.7183C27.9998 11.7116 27.9998 11.705 27.9998 11.6983C27.9998 11.6917 27.9998 11.6851 27.9998 11.6784C27.9998 11.6718 27.9998 11.6651 27.9998 11.6585C27.9998 11.6518 27.9998 11.6452 27.9998 11.6386C27.9998 11.6319 27.9998 11.6253 27.9998 11.6186C27.9998 11.612 27.9998 11.6053 27.9998 11.5987C27.9998 11.5921 27.9998 11.5854 27.9998 11.5788C27.9998 11.5721 27.9998 11.5655 27.9998 11.5588C27.9998 11.5522 27.9998 11.5456 27.9998 11.5389C27.9998 11.5323 27.9998 11.5256 27.9998 11.519C27.9998 11.5123 27.9998 11.5057 27.9998 11.4991C27.9998 11.4924 27.9998 11.4858 27.9998 11.4791C27.9998 11.4725 27.9998 11.4658 27.9998 11.4592C27.9998 11.4526 27.9998 11.4459 27.9998 11.4393C27.9998 11.4326 27.9998 11.426 27.9998 11.4193C27.9998 11.4127 27.9998 11.4061 27.9998 11.3994C27.9998 11.3928 27.9998 11.3861 27.9998 11.3795C27.9998 11.3728 27.9998 11.3662 27.9998 11.3596C27.9998 11.3529 27.9998 11.3463 27.9998 11.3396C27.9998 11.333 27.9998 11.3263 27.9998 11.3197C27.9998 11.3131 27.9998 11.3064 27.9998 11.2998C27.9998 11.2931 27.9998 11.2865 27.9998 11.2798C27.9998 11.2732 27.9998 11.2666 27.9998 11.2599C27.9998 11.2533 27.9998 11.2466 27.9998 11.24C27.9998 11.2333 27.9998 11.2267 27.9998 11.2201C27.9998 11.2134 27.9998 11.2068 27.9998 11.2001C27.9998 11.1935 27.9998 11.1868 27.9998 11.1802C27.9998 11.1736 27.9998 11.1669 27.9998 11.1603C27.9998 11.1536 27.9998 11.147 27.9998 11.1403C27.9998 11.1337 27.9998 11.1271 27.9998 11.1204C27.9998 11.1138 27.9998 11.1071 27.9998 11.1005C27.9998 11.0938 27.9998 11.0872 27.9998 11.0806C27.9998 11.0739 27.9998 11.0673 27.9998 11.0606C27.9998 11.054 27.9998 11.0473 27.9998 11.0407C27.9998 11.0341 27.9998 11.0274 27.9998 11.0208C27.9998 11.0141 27.9998 11.0075 27.9998 11.0008C27.9998 10.9942 27.9998 10.9876 27.9998 10.9809C27.9998 10.9743 27.9998 10.9676 27.9998 10.961C27.9998 10.9543 27.9998 10.9477 27.9998 10.9411C27.9998 10.9344 27.9998 10.9278 27.9998 10.9211C27.9998 10.9145 27.9998 10.9078 27.9998 10.9012C27.9998 10.8946 27.9998 10.8879 27.9998 10.8813C27.9998 10.8746 27.9998 10.868 27.9998 10.8613C27.9998 10.8547 27.9998 10.8481 27.9998 10.8414C27.9998 10.8348 27.9998 10.8281 27.9998 10.8215C27.9998 10.8148 27.9998 10.8082 27.9998 10.8016C27.9998 10.7949 27.9998 10.7883 27.9998 10.7816C27.9998 10.775 27.9998 10.7684 27.9998 10.7617C27.9998 10.7551 27.9998 10.7484 27.9998 10.7418C27.9998 10.7351 27.9998 10.7285 27.9998 10.7219C27.9998 10.7152 27.9998 10.7086 27.9998 10.7019C27.9998 10.6953 27.9998 10.6886 27.9998 10.682C27.9998 10.6754 27.9998 10.6687 27.9998 10.6621C27.9998 10.6554 27.9998 10.6488 27.9998 10.6421C27.9998 10.6355 27.9998 10.6289 27.9998 10.6222C27.9998 10.6156 27.9998 10.6089 27.9998 10.6023C27.9998 10.5956 27.9998 10.589 27.9998 10.5824C27.9998 10.5757 27.9998 10.5691 27.9998 10.5624C27.9998 10.5558 27.9998 10.5491 27.9998 10.5425C27.9998 10.5359 27.9998 10.5292 27.9998 10.5226C27.9998 10.5159 27.9998 10.5093 27.9998 10.5026C27.9998 10.496 27.9998 10.4894 27.9998 10.4827C27.9998 10.4761 27.9998 10.4694 27.9998 10.4628C27.9998 10.4561 27.9998 10.4495 27.9998 10.4429C27.9998 10.4362 27.9998 10.4296 27.9998 10.4229C27.9998 10.4163 27.9998 10.4096 27.9998 10.403C27.9998 10.3964 27.9998 10.3897 27.9998 10.3831C27.9998 10.3764 27.9998 10.3698 27.9998 10.3631C27.9998 10.3565 27.9998 10.3499 27.9998 10.3432C27.9998 10.3366 27.9998 10.3299 27.9998 10.3233C27.9998 10.3166 27.9998 10.31 27.9998 10.3034C27.9998 10.2967 27.9998 10.2901 27.9998 10.2834C27.9998 10.2768 27.9998 10.2701 27.9998 10.2635C27.9998 10.2569 27.9998 10.2502 27.9998 10.2436C27.9998 10.2369 27.9998 10.2303 27.9998 10.2236C27.9998 10.217 27.9998 10.2104 27.9998 10.2037C27.9998 10.1971 27.9998 10.1904 27.9998 10.1838C27.9998 10.1771 27.9998 10.1705 27.9998 10.1639C27.9998 10.1572 27.9998 10.1506 27.9998 10.1439C27.9998 10.1373 27.9998 10.1306 27.9998 10.124C27.9998 10.1174 27.9998 10.1107 27.9998 10.1041C27.9998 10.0974 27.9998 10.0908 27.9998 10.0841C27.9998 10.0775 27.9998 10.0709 27.9998 10.0642C27.9998 10.0576 27.9998 10.0509 27.9998 10.0443C27.9998 10.0376 27.9998 10.031 27.9998 10.0244C27.9998 10.0177 27.9998 10.0111 27.9998 10.0044C27.9998 9.99778 27.9998 9.99114 27.9998 9.9845C27.9998 9.97786 27.9998 9.97121 27.9998 9.96457C27.9998 9.95793 27.9998 9.95128 27.9998 9.94464C27.9998 9.938 27.9998 9.93136 27.9998 9.92471C27.9998 9.91807 27.9998 9.91143 27.9998 9.90479C27.9998 9.89814 27.9998 9.8915 27.9998 9.88486C27.9998 9.87821 27.9998 9.87157 27.9998 9.86493C27.9998 9.85829 27.9998 9.85164 27.9998 9.845C27.9998 9.83836 27.9998 9.83171 27.9998 9.82507C27.9998 9.81843 27.9998 9.81179 27.9998 9.80514C27.9998 9.7985 27.9998 9.79186 27.9998 9.78521C27.9998 9.77857 27.9998 9.77193 27.9998 9.76529C27.9998 9.75864 27.9998 9.752 27.9998 9.74536C27.9998 9.73872 27.9998 9.73207 27.9998 9.72543C27.9998 9.71879 27.9998 9.71214 27.9998 9.7055C27.9998 9.69886 27.9998 9.69221 27.9998 9.68557C27.9998 9.67893 27.9998 9.67229 27.9998 9.66564C27.9998 9.659 27.9998 9.65236 27.9998 9.64572C27.9998 9.63907 27.9998 9.63243 27.9998 9.62579C27.9998 9.61914 27.9998 9.6125 27.9998 9.60586C27.9998 9.59922 27.9998 9.59257 27.9998 9.58593C27.9998 9.57929 27.9998 9.57265 27.9998 9.566C27.9998 9.55936 27.9998 9.55272 27.9998 9.54607C27.9998 9.53943 27.9998 9.53279 27.9998 9.52614C27.9998 9.5195 27.9998 9.51286 27.9998 9.50622C27.9998 9.49957 27.9998 9.49293 27.9998 9.48629C27.9998 9.47965 27.9998 9.473 27.9998 9.46636C27.9998 9.45972 27.9998 9.45307 27.9998 9.44643C27.9998 9.43979 27.9998 9.43315 27.9998 9.4265C27.9998 9.41986 27.9998 9.41322 27.9998 9.40657C27.9998 9.39993 27.9998 9.39329 27.9998 9.38665C27.9998 9.38 27.9998 9.37336 27.9998 9.36672C27.9998 9.36007 27.9998 9.35343 27.9998 9.34679C27.9998 9.34015 27.9998 9.3335 27.9998 9.32686C27.9998 9.32022 27.9998 9.31358 27.9998 9.30693C27.9998 9.30029 27.9998 9.29365 27.9998 9.287C27.9998 9.28036 27.9998 9.27372 27.9998 9.26708C27.9998 9.26043 27.9998 9.25379 27.9998 9.24715C27.9998 9.2405 27.9998 9.23386 27.9998 9.22722C27.9998 9.22058 27.9998 9.21393 27.9998 9.20729C27.9998 9.20065 27.9998 9.19401 27.9998 9.18736C27.9998 9.18072 27.9998 9.17408 27.9998 9.16743C27.9998 9.16079 27.9998 9.15415 27.9998 9.1475C27.9998 9.14086 27.9998 9.13422 27.9998 9.12758C27.9998 9.12093 27.9998 9.11429 27.9998 9.10765C27.9998 9.10101 27.9998 9.09436 27.9998 9.08772C27.9998 9.08108 27.9998 9.07443 27.9998 9.06779C27.9998 9.06115 27.9998 9.05451 27.9998 9.04786C27.9998 9.04122 27.9998 9.03458 27.9998 9.02794C27.9998 9.02129 27.9998 9.01465 27.9998 9.00801C27.9998 9.00136 27.9998 8.99472 27.9998 8.98808C27.9998 8.98143 27.9998 8.97479 27.9998 8.96815C27.9998 8.96151 27.9998 8.95486 27.9998 8.94822C27.9998 8.94158 27.9998 8.93494 27.9998 8.92829C27.9998 8.92165 27.9998 8.91501 27.9998 8.90836C27.9998 8.90172 27.9998 8.89508 27.9998 8.88844C27.9998 8.88179 27.9998 8.87515 27.9998 8.86851C27.9998 8.86186 27.9998 8.85522 27.9998 8.84858C27.9998 8.84194 27.9998 8.83529 27.9998 8.82865C27.9998 8.82201 27.9998 8.81536 27.9998 8.80872C27.9998 8.80208 27.9998 8.79544 27.9998 8.78879C27.9998 8.78215 27.9998 8.77551 27.9998 8.76887C27.9998 8.76222 27.9998 8.75558 27.9998 8.74894C27.9998 8.74229 27.9998 8.73565 27.9998 8.72901C27.9998 8.72237 27.9998 8.71572 27.9998 8.70908C27.9998 8.70244 27.9998 8.69579 27.9998 8.68915C27.9998 8.68251 27.9998 8.67587 27.9998 8.66922C27.9998 8.66258 27.9998 8.65594 27.9998 8.64929C27.9998 8.64265 27.9998 8.63601 27.9998 8.62937C27.9998 8.62272 27.9998 8.61608 27.9998 8.60944C27.9998 8.60279 27.9998 8.59615 27.9998 8.58951C27.9998 8.58287 27.9998 8.57622 27.9998 8.56958C27.9998 8.56294 27.9998 8.5563 27.9998 8.54965C27.9998 8.54301 27.9998 8.53637 27.9998 8.52972C27.9998 8.52308 27.9998 8.51644 27.9998 8.5098C27.9998 8.50315 27.9998 8.49651 27.9998 8.48987C27.9998 8.48322 27.9998 8.47658 27.9998 8.46994C27.9998 8.4633 27.9998 8.45665 27.9998 8.45001C27.9998 8.44337 27.9998 8.43672 27.9998 8.43008C27.9998 8.42344 27.9998 8.4168 27.9998 8.41015C27.9998 8.40351 27.9998 8.39687 27.9998 8.39023C27.9998 8.38358 27.9998 8.37694 27.9998 8.3703C27.9998 8.36365 27.9998 8.35701 27.9998 8.35037C27.9998 8.34373 27.9998 8.33708 27.9998 8.33044C27.9998 8.3238 27.9998 8.31715 27.9998 8.31051C27.9998 8.30387 27.9998 8.29723 27.9998 8.29058C27.9998 8.28394 27.9998 8.2773 27.9998 8.27065C27.9998 8.26401 27.9998 8.25737 27.9998 8.25073C27.9998 8.24408 27.9998 8.23744 27.9998 8.2308C27.9998 8.22415 27.9998 8.21751 27.9998 8.21087C27.9998 8.20423 27.9998 8.19758 27.9998 8.19094C27.9998 8.1843 27.9998 8.17766 27.9998 8.17101C27.9998 8.16437 27.9998 8.15773 27.9998 8.15108C27.9998 8.14444 27.9998 8.1378 27.9998 8.13116C27.9998 8.12451 27.9998 8.11787 27.9998 8.11123C27.9998 8.10458 27.9998 8.09794 27.9998 8.0913C27.9998 8.08466 27.9998 8.07801 27.9998 8.07137C27.9998 8.06473 27.9998 8.05808 27.9998 8.05144C27.9998 8.0448 27.9998 8.03816 27.9998 8.03151C27.9998 8.02487 27.9998 8.01823 27.9998 8.01159C27.9998 8.00494 27.9998 7.9983 27.9998 7.99166C27.9998 7.98501 27.9998 7.97837 27.9998 7.97173C27.9998 7.96509 27.9998 7.95844 27.9998 7.9518C27.9998 7.94516 27.9998 7.93851 27.9998 7.93187C27.9998 7.92523 27.9998 7.91859 27.9998 7.91194C27.9998 7.9053 27.9998 7.89866 27.9998 7.89201C27.9998 7.88537 27.9998 7.87873 27.9998 7.87209C27.9998 7.86544 27.9998 7.8588 27.9998 7.85216C27.9998 7.84551 27.9998 7.83887 27.9998 7.83223C27.9998 7.82559 27.9998 7.81894 27.9998 7.8123C27.9998 7.80566 27.9998 7.79902 27.9998 7.79237C27.9998 7.78573 27.9998 7.77909 27.9998 7.77244C27.9998 7.7658 27.9998 7.75916 27.9998 7.75252C27.9998 7.74587 27.9998 7.73923 27.9998 7.73259C27.9998 7.72594 27.9998 7.7193 27.9998 7.71266C27.9998 7.70602 27.9998 7.69937 27.9998 7.69273C27.9998 7.68609 27.9998 7.67944 27.9998 7.6728C27.9998 7.66616 27.9998 7.65952 27.9998 7.65287C27.9998 7.64623 27.9998 7.63959 27.9998 7.63295C27.9998 7.6263 27.9998 7.61966 27.9998 7.61302C27.9998 7.60637 27.9998 7.59973 27.9998 7.59309C27.9998 7.58645 27.9998 7.5798 27.9998 7.57316C27.9998 7.56652 27.9998 7.55987 27.9998 7.55323C27.9998 7.54659 27.9998 7.53995 27.9998 7.5333C27.9998 7.52666 27.9998 7.52002 27.9998 7.51337C27.9998 7.50673 27.9998 7.50009 27.9998 7.49345C27.9998 7.4868 27.9998 7.48016 27.9998 7.47352C27.9998 7.46688 27.9998 7.46023 27.9998 7.45359C27.9998 7.44695 27.9998 7.4403 27.9998 7.43366C27.9998 7.42702 27.9998 7.42038 27.9998 7.41373C27.9998 7.40709 27.9998 7.40045 27.9998 7.3938C27.9998 7.38716 27.9998 7.38052 27.9998 7.37388C27.9998 7.36723 27.9998 7.36059 27.9998 7.35395C27.9998 7.3473 27.9998 7.34066 27.9998 7.33402C27.9998 7.32738 27.9998 7.32073 27.9998 7.31409C27.9998 7.30745 27.9998 7.3008 27.9998 7.29416C27.9998 7.28752 27.9998 7.28088 27.9998 7.27423C27.9998 7.26759 27.9998 7.26095 27.9998 7.2543C27.9998 7.24766 27.9998 7.24102 27.9998 7.23438C27.9998 7.22773 27.9998 7.22109 27.9998 7.21445C27.9998 7.20781 27.9998 7.20116 27.9998 7.19452C27.9998 7.18788 27.9998 7.18123 27.9998 7.17459C27.9998 7.16795 27.9998 7.16131 27.9998 7.15466C27.9998 7.14802 27.9998 7.14138 27.9998 7.13473C27.9998 7.12809 27.9998 7.12145 27.9998 7.11481C27.9998 7.10816 27.9998 7.10152 27.9998 7.09488C27.9998 7.08823 27.9998 7.08159 27.9998 7.07495C27.9998 7.06831 27.9998 7.06166 27.9998 7.05502C27.9998 7.04838 27.9998 7.04174 27.9998 7.03509C27.9998 7.02845 27.9998 7.02181 27.9998 7.01516C27.9998 7.00852 27.9998 7.00188 27.9998 6.99524C27.9998 6.98859 27.9998 6.98195 27.9998 6.97531C27.9998 6.96866 27.9998 6.96202 27.9998 6.95538C27.9998 6.94874 27.9998 6.94209 27.9998 6.93545C27.9998 6.92881 27.9998 6.92216 27.9998 6.91552C27.9998 6.90888 27.9998 6.90224 27.9998 6.89559C27.9998 6.88895 27.9998 6.88231 27.9998 6.87567C27.9998 6.86902 27.9998 6.86238 27.9998 6.85574C27.9998 6.84909 27.9998 6.84245 27.9998 6.83581C27.9998 6.82917 27.9998 6.82252 27.9998 6.81588C27.9998 6.80924 27.9998 6.80259 27.9998 6.79595C27.9998 6.78931 27.9998 6.78267 27.9998 6.77602C27.9998 6.76938 27.9998 6.76274 27.9998 6.75609C27.9998 6.74945 27.9998 6.74281 27.9998 6.73617C27.9998 6.72952 27.9998 6.72288 27.9998 6.71624C27.9998 6.70959 27.9998 6.70295 27.9998 6.69631C27.9998 6.68967 27.9998 6.68302 27.9998 6.67638C27.9998 6.66974 27.9998 6.66309 27.9998 6.65645C27.9998 6.64981 27.9998 6.64317 27.9998 6.63652C27.9998 6.62988 27.9998 6.62324 27.9998 6.6166C27.9998 6.60995 27.9998 6.60331 27.9998 6.59667C27.9998 6.59002 27.9998 6.58338 27.9998 6.57674C27.9998 6.5701 27.9998 6.56345 27.9998 6.55681C27.9998 6.55017 27.9998 6.54352 27.9998 6.53688C27.9998 6.53024 27.9998 6.5236 27.9998 6.51695C27.9998 6.51031 27.9998 6.50367 27.9998 6.49703C27.9998 6.49038 27.9998 6.48374 27.9998 6.4771C27.9998 6.47045 27.9998 6.46381 27.9998 6.45717C27.9998 6.45053 27.9998 6.44388 27.9998 6.43724C27.9998 6.4306 27.9998 6.42395 27.9998 6.41731C27.9998 6.41067 27.9998 6.40403 27.9998 6.39738C27.9998 6.39074 27.9998 6.3841 27.9998 6.37745C27.9998 6.37081 27.9998 6.36417 27.9998 6.35753C27.9998 6.35088 27.9998 6.34424 27.9998 6.3376C27.9998 6.33095 27.9998 6.32431 27.9998 6.31767C27.9998 6.31103 27.9998 6.30438 27.9998 6.29774C27.9998 6.2911 27.9998 6.28446 27.9998 6.27781C27.9998 6.27117 27.9998 6.26453 27.9998 6.25788C27.9998 6.25124 27.9998 6.2446 27.9998 6.23796C27.9998 6.23131 27.9998 6.22467 27.9998 6.21803C27.9998 6.21138 27.9998 6.20474 27.9998 6.1981C27.9998 6.19146 27.9998 6.18481 27.9998 6.17817C27.9998 6.17153 27.9998 6.16488 27.9998 6.15824C27.9998 6.1516 27.9998 6.14496 27.9998 6.13831C27.9998 6.13167 27.9998 6.12503 27.9998 6.11838C27.9998 6.11174 27.9998 6.1051 27.9998 6.09846C27.9998 6.09181 27.9998 6.08517 27.9998 6.07853C27.9998 6.07189 27.9998 6.06524 27.9998 6.0586C27.9998 6.05196 27.9998 6.04531 27.9998 6.03867C27.9998 6.03203 27.9998 6.02539 27.9998 6.01874C27.9998 6.0121 27.9998 6.00546 27.9998 5.99881C27.9998 5.99217 27.9998 5.98553 27.9998 5.97889C27.9998 5.97224 27.9998 5.9656 27.9998 5.95896C27.9998 5.95231 27.9998 5.94567 27.9998 5.93903C27.9998 5.93239 27.9998 5.92574 27.9998 5.9191C27.9998 5.91246 27.9998 5.90582 27.9998 5.89917C27.9998 5.89253 27.9998 5.88589 27.9998 5.87924C27.9998 5.8726 27.9998 5.86596 27.9998 5.85932C27.9998 5.85267 27.9998 5.84603 27.9998 5.83939C27.9998 5.83274 27.9998 5.8261 27.9998 5.81946C27.9998 5.81282 27.9998 5.80617 27.9998 5.79953C27.9998 5.79289 27.9998 5.78624 27.9998 5.7796C27.9998 5.77296 27.9998 5.76632 27.9998 5.75967C27.9998 5.75303 27.9998 5.74639 27.9998 5.73974C27.9998 5.7331 27.9998 5.72646 27.9998 5.71982C27.9998 5.71317 27.9998 5.70653 27.9998 5.69989C27.9998 5.69325 27.9998 5.6866 27.9998 5.67996C27.9998 5.67332 27.9998 5.66667 27.9998 5.66003C27.9998 5.65339 27.9998 5.64675 27.9998 5.6401C27.9998 5.63346 27.9998 5.62682 27.9998 5.62017C27.9998 5.61353 27.9998 5.60689 27.9998 5.60025C27.9998 5.5936 27.9998 5.58696 27.9998 5.58032C27.9998 5.57367 27.9998 5.56703 27.9998 5.56039C27.9998 5.55375 27.9998 5.5471 27.9998 5.54046C27.9998 5.53382 27.9998 5.52717 27.9998 5.52053C27.9998 5.51389 27.9998 5.50725 27.9998 5.5006C27.9998 5.49396 27.9998 5.48732 27.9998 5.48068C27.9998 5.47403 27.9998 5.46739 27.9998 5.46075C27.9998 5.4541 27.9998 5.44746 27.9998 5.44082C27.9998 5.43418 27.9998 5.42753 27.9998 5.42089C27.9998 5.41425 27.9998 5.4076 27.9998 5.40096C27.9998 5.39432 27.9998 5.38768 27.9998 5.38103C27.9998 5.37439 27.9998 5.36775 27.9998 5.3611C27.9998 5.35446 27.9998 5.34782 27.9998 5.34118C27.9998 5.33453 27.9998 5.32789 27.9998 5.32125C27.9998 5.31461 27.9998 5.30796 27.9998 5.30132C27.9998 5.29468 27.9998 5.28803 27.9998 5.28139C27.9998 5.27475 27.9998 5.26811 27.9998 5.26146C27.9998 5.25482 27.9998 5.24818 27.9998 5.24153C27.9998 5.23489 27.9998 5.22825 27.9998 5.22161C27.9998 5.21496 27.9998 5.20832 27.9998 5.20168C27.9998 5.19503 27.9998 5.18839 27.9998 5.18175C27.9998 5.17511 27.9998 5.16846 27.9998 5.16182C27.9998 5.15518 27.9998 5.14854 27.9998 5.14189C27.9998 5.13525 27.9998 5.12861 27.9998 5.12196C27.9998 5.11532 27.9998 5.10868 27.9998 5.10204C27.9998 5.09539 27.9998 5.08875 27.9998 5.08211C27.9998 5.07546 27.9998 5.06882 27.9998 5.06218C27.9998 5.05554 27.9998 5.04889 27.9998 5.04225C27.9998 5.03561 27.9998 5.02896 27.9998 5.02232C27.9998 5.01568 27.9998 5.00904 27.9998 5.00239C27.9998 4.99575 27.9998 4.98911 27.9998 4.98246C27.9998 4.97582 27.9998 4.96918 27.9998 4.96254C27.9998 4.95589 27.9998 4.94925 27.9998 4.94261C27.9998 4.93597 27.9998 4.92932 27.9998 4.92268C27.9998 4.91604 27.9998 4.90939 27.9998 4.90275C27.9998 4.89611 27.9998 4.88947 27.9998 4.88282C27.9998 4.87618 27.9998 4.86954 27.9998 4.86289C27.9998 4.85625 27.9998 4.84961 27.9998 4.84297C27.9998 4.83632 27.9998 4.82968 27.9998 4.82304C27.9998 4.81639 27.9998 4.80975 27.9998 4.80311C27.9998 4.79647 27.9998 4.78982 27.9998 4.78318C27.9998 4.77654 27.9998 4.7699 27.9998 4.76325C27.9998 4.75661 27.9998 4.74997 27.9998 4.74332C27.9998 4.73668 27.9998 4.73004 27.9998 4.7234C27.9998 4.71675 27.9998 4.71011 27.9998 4.70347C27.9998 4.69682 27.9998 4.69018 27.9998 4.68354C27.9998 4.6769 27.9998 4.67025 27.9998 4.66361C27.9998 4.65697 27.9998 4.65032 27.9998 4.64368C27.9998 4.63704 27.9998 4.6304 27.9998 4.62375C27.9998 4.61711 27.9998 4.61047 27.9998 4.60382C27.9998 4.59718 27.9998 4.59054 27.9998 4.5839C27.9998 4.57725 27.9998 4.57061 27.9998 4.56397C27.9998 4.55733 27.9998 4.55068 27.9998 4.54404C27.9998 4.5374 27.9998 4.53075 27.9998 4.52411C27.9998 4.51747 27.9998 4.51083 27.9998 4.50418C27.9998 4.49754 27.9998 4.4909 27.9998 4.48425C27.9998 4.47761 27.9998 4.47097 27.9998 4.46433C27.9998 4.45768 27.9998 4.45104 27.9998 4.4444C27.9998 4.43775 27.9998 4.43111 27.9998 4.42447C27.9998 4.41783 27.9998 4.41118 27.9998 4.40454C27.9998 4.3979 27.9998 4.39125 27.9998 4.38461C27.9998 4.37797 27.9998 4.37133 27.9998 4.36468C27.9998 4.35804 27.9998 4.3514 27.9998 4.34476C27.9998 4.33811 27.9998 4.33147 27.9998 4.32483C27.9998 4.31818 27.9998 4.31154 27.9998 4.3049C27.9998 4.29826 27.9998 4.29161 27.9998 4.28497C27.9998 4.27833 27.9998 4.27168 27.9998 4.26504C27.9998 4.2584 27.9998 4.25176 27.9998 4.24511C27.9998 4.23847 27.9998 4.23183 27.9998 4.22518C27.9998 4.21854 27.9998 4.2119 27.9998 4.20526C27.9998 4.19861 27.9998 4.19197 27.9998 4.18533C27.9998 4.17869 27.9998 4.17204 27.9998 4.1654C27.9998 4.15876 27.9998 4.15211 27.9998 4.14547C27.9998 4.13883 27.9998 4.13219 27.9998 4.12554C27.9998 4.1189 27.9998 4.11226 27.9998 4.10561C27.9998 4.09897 27.9998 4.09233 27.9998 4.08569C27.9998 4.07904 27.9998 4.0724 27.9998 4.06576C27.9998 4.05911 27.9998 4.05247 27.9998 4.04583C27.9998 4.03919 27.9998 4.03254 27.9998 4.0259C27.9998 4.01926 27.9998 4.01261 27.9998 4.00597C27.9998 3.99933 27.9998 3.99269 27.9998 3.98604C27.9998 3.9794 27.9998 3.97276 27.9998 3.96612C27.9998 3.95947 27.9998 3.95283 27.9998 3.94619C27.9998 3.93954 27.9998 3.9329 27.9998 3.92626C27.9998 3.91962 27.9998 3.91297 27.9998 3.90633C27.9998 3.89969 27.9998 3.89304 27.9998 3.8864C27.9998 3.87976 27.9998 3.87312 27.9998 3.86647C27.9998 3.85983 27.9998 3.85319 27.9998 3.84654C27.9998 3.8399 27.9998 3.83326 27.9998 3.82662C27.9998 3.81997 27.9998 3.81333 27.9998 3.80669C27.9998 3.80005 27.9998 3.7934 27.9998 3.78676C27.9998 3.78012 27.9998 3.77347 27.9998 3.76683C27.9998 3.76019 27.9998 3.75355 27.9998 3.7469C27.9998 3.74026 27.9998 3.73362 27.9998 3.72697C27.9998 3.72033 27.9998 3.71369 27.9998 3.70705C27.9998 3.7004 27.9998 3.69376 27.9998 3.68712C27.9998 3.68047 27.9998 3.67383 27.9998 3.66719C27.9998 3.66055 27.9998 3.6539 27.9998 3.64726C27.9998 3.64062 27.9998 3.63397 27.9998 3.62733C27.9998 3.62069 27.9998 3.61405 27.9998 3.6074C27.9998 3.60076 27.9998 3.59412 27.9998 3.58748C27.9998 3.58083 27.9998 3.57419 27.9998 3.56755C27.9998 3.5609 27.9998 3.55426 27.9998 3.54762C27.9998 3.54098 27.9998 3.53433 27.9998 3.52769C27.9998 3.52105 27.9998 3.5144 27.9998 3.50776C27.9998 3.50112 27.9998 3.49448 27.9998 3.48783C27.9998 3.48119 27.9998 3.47455 27.9998 3.4679C27.9998 3.46126 27.9998 3.45462 27.9998 3.44798C27.9998 3.44133 27.9998 3.43469 27.9998 3.42805C27.9998 3.42141 27.9998 3.41476 27.9998 3.40812C27.9998 3.40148 27.9998 3.39483 27.9998 3.38819C27.9998 3.38155 27.9998 3.37491 27.9998 3.36826C27.9998 3.36162 27.9998 3.35498 27.9998 3.34833C27.9998 3.34169 27.9998 3.33505 27.9998 3.32841C27.9998 3.32176 27.9998 3.31512 27.9998 3.30848C27.9998 3.30183 27.9998 3.29519 27.9998 3.28855C27.9998 3.28191 27.9998 3.27526 27.9998 3.26862C27.9998 3.26198 27.9998 3.25533 27.9998 3.24869C27.9998 3.24205 27.9998 3.23541 27.9998 3.22876C27.9998 3.22212 27.9998 3.21548 27.9998 3.20884C27.9998 3.20219 27.9998 3.19555 27.9998 3.18891C27.9998 3.18226 27.9998 3.17562 27.9998 3.16898C27.9998 3.16234 27.9998 3.15569 27.9998 3.14905C27.9998 3.14241 27.9998 3.13576 27.9998 3.12912C27.9998 3.12248 27.9998 3.11584 27.9998 3.10919C27.9998 3.10255 27.9998 3.09591 27.9998 3.08926C27.9998 3.08262 27.9998 3.07598 27.9998 3.06934C27.9998 3.06269 27.9998 3.05605 27.9998 3.04941C27.9998 3.04277 27.9998 3.03612 27.9998 3.02948C27.9998 3.02284 27.9998 3.01619 27.9998 3.00955C27.9998 3.00291 27.9998 2.99627 27.9998 2.98962C27.9998 2.98298 27.9998 2.97634 27.9998 2.96969C27.9998 2.96305 27.9998 2.95641 27.9998 2.94977C27.9998 2.94312 27.9998 2.93648 27.9998 2.92984C27.9998 2.92319 27.9998 2.91655 27.9998 2.90991C27.9998 2.90327 27.9998 2.89662 27.9998 2.88998C27.9998 2.88334 27.9998 2.87669 27.9998 2.87005C27.9998 2.86341 27.9998 2.85677 27.9998 2.85012C27.9998 2.84348 27.9998 2.83684 27.9998 2.8302C27.9998 2.82355 27.9998 2.81691 27.9998 2.81027C27.9998 2.80362 27.9998 2.79698 27.9998 2.79034C27.9998 2.7837 27.9998 2.77705 27.9998 2.77041C27.9998 2.76377 27.9998 2.75712 27.9998 2.75048C27.9998 2.74384 27.9998 2.7372 27.9998 2.73055C27.9998 2.72391 27.9998 2.71727 27.9998 2.71062C27.9998 2.70398 27.9998 2.69734 27.9998 2.6907C27.9998 2.68405 27.9998 2.67741 27.9998 2.67077C27.9998 2.66412 27.9998 2.65748 27.9998 2.65084C27.9998 2.6442 27.9998 2.63755 27.9998 2.63091C27.9998 2.62427 27.9998 2.61763 27.9998 2.61098C27.9998 2.60434 27.9998 2.5977 27.9998 2.59105C27.9998 2.58441 27.9998 2.57777 27.9998 2.57113C27.9998 2.56448 27.9998 2.55784 27.9998 2.5512C27.9998 2.54455 27.9998 2.53791 27.9998 2.53127C27.9998 2.52463 27.9998 2.51798 27.9998 2.51134C27.9998 2.5047 27.9998 2.49805 27.9998 2.49141C27.9998 2.48477 27.9998 2.47813 27.9998 2.47148C27.9998 2.46484 27.9998 2.4582 27.9998 2.45156C27.9998 2.44491 27.9998 2.43827 27.9998 2.43163C27.9998 2.42498 27.9998 2.41834 27.9998 2.4117C27.9998 2.40506 27.9998 2.39841 27.9998 2.39177C27.9998 2.38513 27.9998 2.37848 27.9998 2.37184C27.9998 2.3652 27.9998 2.35856 27.9998 2.35191C27.9998 2.34527 27.9998 2.33863 27.9998 2.33198C27.9998 2.32534 27.9998 2.3187 27.9998 2.31206C27.9998 2.30541 27.9998 2.29877 27.9998 2.29213C27.9998 2.28549 27.9998 2.27884 27.9998 2.2722C27.9998 2.26556 27.9998 2.25891 27.9998 2.25227C27.9998 2.24563 27.9998 2.23899 27.9998 2.23234C27.9998 2.2257 27.9998 2.21906 27.9998 2.21241C27.9998 2.20577 27.9998 2.19913 27.9998 2.19249C27.9998 2.18584 27.9998 2.1792 27.9998 2.17256C27.9998 2.16591 27.9998 2.15927 27.9998 2.15263C27.9998 2.14599 27.9998 2.13934 27.9998 2.1327C27.9998 2.12606 27.9998 2.11941 27.9998 2.11277C27.9998 2.10613 27.9998 2.09949 27.9998 2.09284C27.9998 2.0862 27.9998 2.07956 27.9998 2.07292C27.9998 2.06627 27.9998 2.05963 27.9998 2.05299C27.9998 2.04634 27.9998 2.0397 27.9998 2.03306C27.9998 2.02642 27.9998 2.01977 27.9998 2.01313C27.9998 2.00649 27.9998 1.99984 27.9998 1.9932C27.9998 1.98656 27.9998 1.97992 27.9998 1.97327C27.9998 1.96663 27.9998 1.95999 27.9998 1.95334C27.9998 1.9467 27.9998 1.94006 27.9998 1.93342C27.9998 1.92677 27.9998 1.92013 27.9998 1.91349C27.9998 1.90684 27.9998 1.9002 27.9998 1.89356C27.9998 1.88692 27.9998 1.88027 27.9998 1.87363C27.9998 1.86699 27.9998 1.86035 27.9998 1.8537C27.9998 1.84706 27.9998 1.84042 27.9998 1.83377C27.9998 1.82713 27.9998 1.82049 27.9998 1.81385C27.9998 1.8072 27.9998 1.80056 27.9998 1.79392H11.9998ZM11.9998 11.9973C11.9998 11.1341 12.207 9.94612 12.942 8.75513C13.676 7.56592 14.6392 6.85493 15.3933 6.47434L22.6018 20.7585C24.0257 20.0399 25.49 18.8883 26.5577 17.1584C27.6264 15.4268 27.9998 13.5983 27.9998 11.9973H11.9998ZM15.3901 6.47597C16.1218 6.1063 17.124 5.78649 18.3198 5.78881L18.2888 21.7888C19.9774 21.7921 21.4431 21.3439 22.605 20.7569L15.3901 6.47597ZM18.331 5.78884C18.2189 5.78846 18.1147 5.78905 18.0428 5.78947C17.9605 5.78995 17.9174 5.79023 17.8751 5.79023V21.7902C18.2705 21.7902 18.0427 21.788 18.2776 21.7887L18.331 5.78884ZM17.8751 5.79023C12.5392 5.79023 7.19317 5.78831 1.84868 5.7931L1.86303 21.7931C7.198 21.7883 12.5315 21.7902 17.8751 21.7902V5.79023ZM1.8497 5.7931C2.48476 5.79261 3.35414 5.90714 4.29456 6.33029C5.25307 6.76158 5.99106 7.38157 6.50769 8.00653L-5.82421 18.2008C-3.78847 20.6635 -0.946188 21.7953 1.86201 21.7931L1.8497 5.7931ZM6.50871 8.00775C7.09279 8.7146 7.38589 9.35689 7.4885 9.59464C7.53728 9.70766 7.56692 9.78812 7.5463 9.73403C7.54319 9.72586 7.47545 9.54546 7.40389 9.37061L-7.40389 15.4311C-7.42607 15.3769 -7.44792 15.3187 -7.40458 15.4324C-7.37876 15.5001 -7.30212 15.7022 -7.20176 15.9347C-6.996 16.4115 -6.58141 17.2845 -5.82523 18.1996L6.50871 8.00775ZM8 12.4009V1.39176H-8V12.4009H8ZM-4.87205 -2.74099C-4.87371 -2.73805 -4.89084 -2.70769 -4.90988 -2.67337C-4.93027 -2.6366 -4.96187 -2.57909 -4.99899 -2.50882L9.14875 4.9639C9.11896 5.02029 9.09494 5.06392 9.08225 5.0868C9.07091 5.10724 9.0616 5.12371 9.06776 5.11277L-4.87205 -2.74099ZM-3.0484 7.37181C-2.97988 7.42895 -2.92263 7.475 -2.90129 7.49216C-2.89531 7.49697 -2.88981 7.50138 -2.88684 7.50377C-2.8831 7.50677 -2.88216 7.50753 -2.88144 7.50811C-2.88007 7.50921 -2.8871 7.50356 -2.8978 7.49486C-2.91821 7.47827 -2.97036 7.43565 -3.03789 7.37741C-3.10651 7.31823 -3.20216 7.2334 -3.3135 7.12668L7.75758 -4.42456C7.49979 -4.67162 7.27816 -4.85264 7.19728 -4.91841C7.16227 -4.94689 7.11267 -4.98666 7.12577 -4.97612C7.12579 -4.97611 7.12623 -4.97576 7.12699 -4.97514C7.12776 -4.97452 7.12894 -4.97357 7.13046 -4.97234C7.13345 -4.96992 7.13816 -4.96611 7.14414 -4.96125C7.15587 -4.9517 7.17466 -4.93631 7.19816 -4.91672L-3.0484 7.37181ZM-3.34773 7.09369C-2.47436 7.94076 -1.6143 8.77399 -0.755854 9.61037L10.4096 -1.84966C9.53443 -2.70234 8.65597 -3.5534 7.7918 -4.39156L-3.34773 7.09369ZM-0.755096 9.61111C0.523186 10.8562 1.80109 12.1033 3.07888 13.3517L14.2603 1.90732C12.9783 0.654707 11.6944 -0.598275 10.4089 -1.8504L-0.755096 9.61111ZM3.07861 13.3515C4.96821 15.1978 7.89853 16.6333 11.4578 16.0999L9.08666 0.276582C10.0278 0.135559 11.0986 0.21017 12.1542 0.597545C13.1643 0.968226 13.8563 1.51248 14.2606 1.90759L3.07861 13.3515ZM11.4592 16.0997C14.0244 15.7148 15.8157 14.4153 16.8969 13.3618L5.73117 1.90206C6.22862 1.41737 7.35604 0.536243 9.08518 0.276803L11.4592 16.0997ZM16.8985 13.3603C17.6816 12.5969 18.409 11.8848 19.1755 11.1386L8.01405 -0.325345C7.25806 0.410692 6.46796 1.18379 5.72966 1.90353L16.8985 13.3603ZM19.1743 11.1398C19.7654 10.5645 20.357 9.98932 20.9504 9.41241C21.5433 8.83599 22.138 8.25788 22.7325 7.67929L11.5734 -3.78696C10.9824 -3.21174 10.3907 -2.63651 9.79728 -2.0596C9.20437 -1.48318 8.60974 -0.905069 8.01522 -0.326481L19.1743 11.1398ZM22.7279 7.68373C23.0037 7.41578 23.3359 7.08412 23.5417 6.88108L12.3062 -4.51025C11.9694 -4.17804 11.8058 -4.01275 11.578 -3.7914L22.7279 7.68373ZM17.9237 -6.81459L2.09762 -6.81411L2.0981 9.18589L17.9242 9.18541L17.9237 -6.81459ZM2.10568 20.6077H17.8941V4.60769H2.10568V20.6077ZM25.7949 11.3516C25.637 10.3582 25.3021 9.43333 24.8356 8.61056C24.3847 7.81505 23.8841 7.24446 23.5257 6.88317C23.3483 6.70431 23.1944 6.56568 23.0926 6.47665C22.9963 6.39257 22.9155 6.32604 22.9083 6.32008C22.8145 6.24258 23.0922 6.46457 23.3721 6.73869L12.1775 18.1703C12.4792 18.4657 12.7811 18.7075 12.7118 18.6502C12.7117 18.6502 12.6942 18.6357 12.6714 18.6165C12.6474 18.5964 12.6099 18.5645 12.5641 18.5246C12.4743 18.4461 12.3323 18.3184 12.1663 18.151C11.8307 17.8127 11.3511 17.2674 10.9168 16.5015C10.4671 15.7083 10.1449 14.8172 9.99335 13.8638L25.7949 11.3516ZM23.3502 6.71727C22.6847 6.07063 22.6156 6.00986 22.0069 5.41763L10.8499 16.8859C11.1368 17.165 11.9693 17.968 12.1995 18.1917L23.3502 6.71727ZM22.0082 5.41887C20.8837 4.3244 19.7762 3.24696 18.6762 2.16648L7.46414 13.5809C8.59549 14.6922 9.73107 15.797 10.8486 16.8847L22.0082 5.41887ZM18.6796 2.16985C18.5311 2.02373 16.483 -0.165807 13.0287 -0.211651C9.40547 -0.259737 7.2839 2.0446 7.02408 2.31342L18.5286 13.433C18.3812 13.5855 16.3494 15.8338 12.8164 15.7869C9.45227 15.7423 7.49489 13.6112 7.46071 13.5776L18.6796 2.16985ZM7.02634 2.31108C6.88592 2.45624 6.73509 2.60317 6.5743 2.75095L17.4012 14.5314C17.7811 14.1822 18.1573 13.8168 18.5264 13.4354L7.02634 2.31108ZM6.57593 2.74946C8.51559 0.967777 11.4336 0.952351 13.3928 2.73301L2.63132 14.5732C6.80812 18.3695 13.2521 18.3426 17.3996 14.5329L6.57593 2.74946ZM13.3978 2.73762C13.2352 2.58951 13.1105 2.4675 13.0144 2.36664L1.43157 13.4047C1.84097 13.8343 2.24625 14.2227 2.62625 14.5686L13.3978 2.73762ZM13.0104 2.36251C12.7237 2.0621 10.5224 -0.339733 6.77013 -0.202978C3.36441 -0.0788524 1.34804 2.12864 1.30349 2.17227L12.4981 13.6039C12.3588 13.7403 11.9001 14.1846 11.1957 14.6205C10.4374 15.0898 9.11672 15.7221 7.35288 15.7864C3.69916 15.9196 1.59655 13.5776 1.4355 13.4088L13.0104 2.36251ZM1.2971 2.17853C-0.0120236 3.46339 -1.28413 4.69816 -2.62982 6.01398L8.55623 17.4539C9.83396 16.2045 11.1951 14.8827 12.5045 13.5976L1.2971 2.17853ZM-2.62925 6.01343C-2.99433 6.37033 -3.46623 6.86356 -3.60823 7.00847L7.81959 18.2069C8.2584 17.7591 8.34189 17.6635 8.55567 17.4545L-2.62925 6.01343ZM-6.79731 2.03521V11.7574H9.20269V2.03521H-6.79731ZM6.64485 17.6211C6.64801 17.6182 6.65254 17.614 6.662 17.6053C6.66555 17.602 6.69174 17.578 6.70863 17.5624C6.74862 17.5255 6.84052 17.4407 6.94909 17.3344L-4.24549 5.90277C-4.21022 5.86823 -4.18134 5.84079 -4.16237 5.82293C-4.153 5.81411 -4.14577 5.80737 -4.14147 5.80338C-4.13726 5.79946 -4.13498 5.79737 -4.13581 5.79813C-4.1368 5.79905 -4.13906 5.80113 -4.14465 5.80627C-4.1476 5.80898 -4.15003 5.81121 -4.15401 5.81486C-4.15758 5.81814 -4.1618 5.82201 -4.16631 5.82616C-4.18453 5.84291 -4.20988 5.86625 -4.23947 5.89372L6.64485 17.6211ZM6.92833 17.3546C7.70643 16.5982 8.48437 15.8417 9.26204 15.0856C10.0398 14.3293 10.8173 13.5734 11.5949 12.8174L0.441793 1.3453C-0.336305 2.10176 -1.11424 2.85818 -1.89192 3.61434C-2.66967 4.37058 -3.44716 5.12657 -4.22473 5.88251L6.92833 17.3546ZM11.5924 12.8198C12.487 11.9508 14.0635 10.002 14.1094 7.02955C14.1562 3.99934 12.5864 1.96241 11.621 1.01702L0.426408 12.4486C-0.421667 11.6181 -1.93365 9.69673 -1.88869 6.78271C-1.84462 3.92645 -0.329443 2.09444 0.444273 1.34289L11.5924 12.8198ZM11.6111 1.00735C10.8325 0.247555 10.0538 -0.512357 9.27515 -1.27227C8.49646 -2.03218 7.71777 -2.7921 6.9392 -3.55189L-4.2356 7.89904C-3.45703 8.65883 -2.67834 9.41875 -1.89965 10.1787C-1.12096 10.9386 -0.342268 11.6985 0.436302 12.4583L11.6111 1.00735ZM6.94909 -3.54222C6.83078 -3.65808 6.73024 -3.75026 6.69301 -3.7844C6.68243 -3.7941 6.67247 -3.80321 6.66623 -3.80891C6.6589 -3.81561 6.65503 -3.81915 6.65108 -3.82277C6.64429 -3.82899 6.64294 -3.83025 6.64364 -3.8296L-4.23826 7.90003C-4.20506 7.93084 -4.17664 7.95692 -4.1558 7.97602C-4.14593 7.98506 -4.13651 7.99367 -4.13101 7.9987C-4.12789 8.00155 -4.12571 8.00354 -4.12384 8.00526C-4.12203 8.00692 -4.12103 8.00783 -4.12055 8.00826C-4.11943 8.00929 -4.12192 8.00702 -4.12654 8.00275C-4.13126 7.99838 -4.13942 7.99082 -4.15 7.9809C-4.17135 7.96089 -4.20466 7.92936 -4.24549 7.88937L6.94909 -3.54222ZM26.7834 11.7565V2.04718H10.7834V11.7565H26.7834ZM14.2238 -4.52623C14.3078 -4.58451 14.5212 -4.72471 14.342 -4.60667C14.2774 -4.56415 13.6584 -4.1707 13.0171 -3.51946L24.4177 7.7067C24.091 8.03845 23.7882 8.28732 23.5609 8.45962C23.3527 8.61742 23.1833 8.72877 23.1424 8.75573C22.984 8.86001 23.2238 8.70329 23.3431 8.62059L14.2238 -4.52623ZM13.1306 -3.63242C11.52 -2.06096 9.92933 -0.506116 8.33104 1.04618L19.4784 12.5238C21.0941 10.9546 22.7077 9.37739 24.3042 7.81966L13.1306 -3.63242ZM8.31942 1.05748C7.73024 1.63203 5.09976 4.37685 6.01879 8.61783C6.38651 10.3147 7.20354 11.4512 7.59063 11.9411C7.96917 12.4202 8.34179 12.7719 8.34387 12.7739L19.5076 1.31219C19.5128 1.31725 19.5861 1.3883 19.6795 1.48601C19.7729 1.58386 19.9457 1.76978 20.1447 2.02167C20.5011 2.47268 21.2966 3.57156 21.6558 5.22925C22.5579 9.39183 19.9624 12.0519 19.49 12.5125L8.31942 1.05748ZM8.35507 12.7848C9.93567 14.3183 11.514 15.8539 13.0986 17.3951L24.2541 5.92538C22.6726 4.38716 21.0858 2.84336 19.4964 1.30131L8.35507 12.7848ZM13.1308 17.4262C13.2762 17.566 13.4006 17.6754 13.422 17.6943C13.4603 17.7281 13.4352 17.706 13.4188 17.6912L24.148 5.82174C24.112 5.78916 24.0812 5.76167 24.0573 5.74048C24.0458 5.73031 24.036 5.72162 24.0297 5.71608C24.0273 5.71396 24.0232 5.71033 24.0224 5.70962C24.0206 5.70806 24.0201 5.70764 24.0202 5.70768C24.0203 5.70777 24.0216 5.70892 24.0237 5.71077C24.0258 5.71263 24.0291 5.71558 24.0333 5.71934C24.0415 5.72669 24.0551 5.7388 24.0721 5.75423C24.1067 5.78559 24.159 5.83374 24.222 5.89425L13.1308 17.4262Z" fill="white" mask="url(#path-1-inside-1_1550_14948)"/>
</svg>
