<svg width="30" height="30" viewBox="0 0 30 30" fill="none" xmlns="http://www.w3.org/2000/svg">
<circle cx="15" cy="15" r="15" fill="white"/>
<g clip-path="url(#clip0_546_15076)">
<path d="M11.2447 22C10.9037 21.9373 10.5675 21.8599 10.261 21.688C9.5621 21.2956 9.15035 20.6998 9.04511 19.9104C8.95492 19.2295 9.01212 18.5497 9.11001 17.8707C9.18921 17.3291 9.30581 16.7956 9.51847 16.2893C9.80923 15.5974 10.1986 14.9821 10.8769 14.6027C11.3095 14.3617 11.7964 14.2355 12.2915 14.236C12.4145 14.2386 12.5349 14.272 12.6417 14.3332C12.902 14.4681 13.1396 14.6401 13.3871 14.7959C14.0104 15.1867 14.6799 15.4122 15.4213 15.3759C16.0278 15.3459 16.5854 15.1501 17.1002 14.8314C17.3158 14.6983 17.5344 14.5678 17.7404 14.4208C18.0565 14.1949 18.4004 14.2199 18.752 14.2804C19.6804 14.4402 20.3349 14.9715 20.783 15.7804C21.1914 16.5188 21.3678 17.3251 21.4723 18.1523C21.527 18.6268 21.5466 19.1048 21.5309 19.5822C21.5031 20.8454 20.6319 21.8189 19.3801 21.982C19.3515 21.9861 19.3237 21.9956 19.2958 22.0022L11.2447 22Z" fill="#006CD0"/>
<path d="M15.1737 7C17.1101 6.95086 18.8172 8.60889 18.8073 10.6196C18.8054 11.5822 18.422 12.5048 17.7411 13.1852C17.0602 13.8655 16.1374 14.2483 15.1748 14.2496C13.1534 14.2547 11.5471 12.553 11.5475 10.6134C11.5482 8.64996 13.2268 6.95233 15.1737 7Z" fill="#006CD0"/>
</g>
<defs>
<clipPath id="clip0_546_15076">
<rect width="12.5346" height="15" fill="white" transform="translate(9 7)"/>
</clipPath>
</defs>
</svg>
