<svg width="17" height="18" viewBox="0 0 17 18" fill="none" xmlns="http://www.w3.org/2000/svg">
<path d="M13.11 17H4.33C4.27 16.98 4.22 16.97 4.16 16.95C3.48 16.75 3 16.12 3 15.41C3 11.47 3 7.53 3 3.59C3 2.72 3.72 2 4.59 2C6.29 2 7.98 2 9.68 2C9.87 2 9.87 2 9.87 2.2C9.87 3.22 9.87 4.25 9.87 5.27C9.87 5.43 9.89 5.58 9.94 5.73C10.1 6.15 10.47 6.39 10.96 6.39C12.05 6.39 13.15 6.39 14.24 6.39C14.38 6.39 14.44 6.42 14.44 6.58C14.44 9.54 14.44 12.49 14.44 15.45C14.44 15.72 14.36 15.97 14.23 16.2C13.98 16.64 13.59 16.89 13.11 17ZM8.64 8.73C9.68 8.73 10.72 8.73 11.75 8.73C12.06 8.73 12.28 8.56 12.28 8.3C12.28 8.05 12.07 7.87 11.75 7.87C11.75 7.87 11.75 7.87 11.74 7.87C9.67 7.87 7.61 7.87 5.54 7.87C5.2 7.87 4.98 8.04 4.99 8.3C4.99 8.56 5.21 8.72 5.54 8.72C6.57 8.72 7.61 8.72 8.64 8.72V8.73ZM8.62 11.07C9.66 11.07 10.7 11.07 11.73 11.07C12.06 11.07 12.27 10.91 12.28 10.65C12.28 10.39 12.07 10.22 11.73 10.22C9.67 10.22 7.61 10.22 5.54 10.22C5.2 10.22 4.98 10.39 4.99 10.65C4.99 10.91 5.21 11.08 5.55 11.08C6.57 11.08 7.6 11.08 8.62 11.08V11.07ZM6.49 12.56C6.14 12.56 5.8 12.56 5.45 12.56C5.19 12.56 5 12.75 4.99 12.98C4.99 13.2 5.18 13.4 5.43 13.41C6.13 13.41 6.83 13.41 7.54 13.41C7.81 13.41 7.97 13.22 7.96 12.97C7.96 12.73 7.77 12.57 7.5 12.56C7.16 12.56 6.83 12.56 6.49 12.56Z" fill="white"/>
<path d="M12.5 5.53995C11.99 5.53995 11.49 5.53995 10.98 5.53995C10.77 5.53995 10.73 5.49995 10.73 5.29995C10.73 4.31995 10.73 3.33995 10.73 2.35995C10.73 2.30995 10.71 2.24995 10.76 2.22995C10.81 2.19995 10.85 2.24995 10.89 2.27995C11.02 2.35995 11.12 2.45995 11.23 2.55995C12.13 3.40995 13.02 4.25995 13.92 5.09995C14.01 5.17995 14.09 5.27995 14.16 5.37995C14.19 5.41995 14.24 5.46995 14.21 5.51995C14.18 5.56995 14.12 5.54995 14.07 5.54995C13.55 5.54995 13.03 5.54995 12.5 5.54995V5.53995Z" fill="white"/>
</svg>
