<svg width="17" height="18" viewBox="0 0 17 18" fill="none" xmlns="http://www.w3.org/2000/svg">
<path d="M2 11.7124C2.1021 11.2104 2.32331 10.768 2.71469 10.4191C3.09756 10.0788 3.54849 9.89161 4.05048 9.86608C4.43335 9.84907 4.80771 9.86608 5.19058 9.86608C5.3182 9.86608 5.32671 9.90862 5.29268 10.0192C5.19058 10.334 5.15655 10.6573 5.15655 10.9807C5.15655 12.393 5.15655 13.7969 5.15655 15.2092C5.15655 15.3539 5.15655 15.49 5.19909 15.6261C5.23312 15.7197 5.18207 15.7538 5.09699 15.7538C4.42484 15.7453 3.7612 15.8048 3.09756 15.7197C2.60408 15.6602 2.25525 15.3624 2.06807 14.8859C2.05105 14.8264 2.02552 14.7583 2 14.6987V11.7124Z" fill="white"/>
<path d="M9.48732 15.7539C8.54291 15.7539 7.58999 15.7539 6.64557 15.7539C6.55198 15.7539 6.45839 15.7539 6.3648 15.7368C6.16911 15.7113 6.02447 15.5667 5.99895 15.371C5.99044 15.2859 5.98193 15.2093 5.98193 15.1242C5.98193 13.78 5.98193 12.4271 5.98193 11.0828C5.98193 10.3937 6.17762 9.7896 6.69662 9.30463C7.14756 8.89624 7.68358 8.72607 8.27915 8.72607C9.08743 8.72607 9.89571 8.72607 10.7125 8.72607C11.6569 8.73458 12.3716 9.14298 12.797 10.0023C12.9587 10.3341 13.0012 10.6915 13.0012 11.0573C13.0012 12.4271 13.0012 13.7885 13.0012 15.1583C13.0012 15.2859 13.0012 15.4135 12.9331 15.5241C12.814 15.7283 12.6183 15.7539 12.4141 15.7539C11.6399 15.7539 10.8656 15.7539 10.0829 15.7539C9.87869 15.7539 9.68301 15.7539 9.47881 15.7539H9.48732Z" fill="white"/>
<path d="M9.50412 3C10.959 3 12.1247 4.17413 12.1161 5.62053C12.1161 7.06693 10.9335 8.24106 9.49561 8.24106C8.04922 8.24106 6.87508 7.04991 6.88359 5.5865C6.88359 4.15712 8.06623 3 9.50412 3Z" fill="white"/>
<path d="M17 13.1928C17 13.6012 17 14.0011 17 14.4095C17 15.1327 16.4895 15.6857 15.7663 15.7368C15.1452 15.7793 14.5156 15.7453 13.8945 15.7538C13.8009 15.7538 13.7498 15.7283 13.7839 15.6262C13.8264 15.5156 13.8264 15.405 13.8264 15.2943C13.8264 13.8139 13.8264 12.325 13.8264 10.8446C13.8264 10.5553 13.7754 10.283 13.6903 10.0107C13.6648 9.93417 13.6477 9.86611 13.7669 9.86611C14.2263 9.88312 14.6943 9.83207 15.1537 9.89163C16.1662 10.0278 16.983 10.9552 16.9915 11.9676C16.9915 12.376 16.9915 12.7844 16.9915 13.1928H17Z" fill="white"/>
<path d="M4.92682 9.34717C3.84628 9.34717 2.96143 8.4538 2.96143 7.37326C2.96143 6.30973 3.8633 5.39936 4.92682 5.41637C6.06692 5.43339 6.88371 6.31824 6.89222 7.37326C6.90073 8.4538 5.99886 9.34717 4.92682 9.34717Z" fill="white"/>
<path d="M14.0645 9.34709C12.9925 9.34709 12.0906 8.44522 12.1077 7.37319C12.1247 6.30115 12.95 5.43331 14.0731 5.4248C15.1536 5.4248 16.0385 6.32668 16.0299 7.39871C16.0299 8.47074 15.1366 9.34709 14.0645 9.34709Z" fill="white"/>
</svg>
