<svg width="17" height="18" viewBox="0 0 17 18" fill="none" xmlns="http://www.w3.org/2000/svg">
<path d="M16 4.10092C16 3.89908 15.9725 3.69725 15.9174 3.50459C15.6514 2.6055 14.844 2 13.8899 2C12.1009 2 10.3028 2 8.51376 2C6.74312 2 4.97248 2 3.20183 2C3.01835 2 2.83486 2.00917 2.66055 2.05505C1.65138 2.27523 1 3.11009 1 4.21101C1 6.33028 1 8.45872 1 10.578C1 10.7339 1.00917 10.8991 1.0367 11.055C1.21101 11.9908 1.88991 12.633 2.85321 12.7615C3 12.7798 3.05505 12.8257 3.05505 12.9817C3.05505 13.8349 3.05505 14.6972 3.05505 15.5505C3.05505 15.6147 3.02752 15.7064 3.08257 15.7431C3.14679 15.7798 3.20183 15.7064 3.25688 15.6697C4.58716 14.7431 5.91743 13.8165 7.24771 12.8899C7.3578 12.8165 7.46789 12.7798 7.59633 12.7798C8.38532 12.7798 9.17431 12.7798 9.9633 12.7798C11.2752 12.7798 12.5872 12.7798 13.9083 12.7798C15.0917 12.7798 16 11.8624 16 10.6789C16 8.48624 16 6.2844 16 4.09174V4.10092ZM5.00917 7.12844C5.00917 7 5.05505 6.94495 5.18349 6.95413C5.22018 6.95413 5.25688 6.95413 5.29358 6.95413C7.43119 6.95413 9.56881 6.95413 11.7156 6.95413C11.7706 6.95413 11.8165 6.95413 11.8716 6.95413C11.9633 6.95413 12.0092 6.99083 12.0092 7.08257C12.0092 7.30275 12.0092 7.52294 12.0092 7.73394C12.0092 7.87156 11.9174 7.86238 11.8257 7.86238C10.8532 7.86238 9.88073 7.86238 8.90826 7.86238C8.77064 7.86238 8.6422 7.86238 8.50459 7.86238C7.41284 7.86238 6.31193 7.86238 5.22018 7.86238C5.06422 7.86238 5 7.82569 5.01835 7.66055C5.02752 7.47706 5.02752 7.29358 5.01835 7.11927L5.00917 7.12844ZM11.8165 9.74312C10.7064 9.74312 9.6055 9.74312 8.49541 9.74312C7.41284 9.74312 6.33945 9.74312 5.25688 9.74312C5.09786 9.74312 5.01835 9.66055 5.01835 9.49541C5.01835 9.3211 5.01835 9.15596 5.01835 8.98165C5.01835 8.87156 5.06422 8.82569 5.16514 8.83486C5.21101 8.83486 5.24771 8.83486 5.29358 8.83486C7.44037 8.83486 9.58716 8.83486 11.7248 8.83486C11.9144 8.83486 12.0092 8.93272 12.0092 9.12844C12.0092 9.27523 12.0092 9.42202 12.0092 9.56881C12.0092 9.7156 11.9633 9.75229 11.8165 9.75229V9.74312ZM11.8073 6.00917C10.7615 6.00917 9.70642 6.00917 8.66055 6.00917H8.50459C7.41284 6.00917 6.31193 6.00917 5.22018 6.00917C5.06422 6.00917 5.00917 5.9633 5.01835 5.80734C5.02752 5.62385 5.01835 5.43119 5.01835 5.24771C5.01835 5.14679 5.05505 5.09174 5.16514 5.09174C5.21101 5.09174 5.25688 5.09174 5.30275 5.09174C7.44037 5.09174 9.57798 5.09174 11.7248 5.09174C11.7706 5.09174 11.8073 5.09174 11.8532 5.09174C11.9725 5.09174 12.0275 5.13761 12.0183 5.25688C12.0183 5.44037 12.0183 5.62385 12.0183 5.79816C12.0183 5.95413 11.9725 6 11.8165 6L11.8073 6.00917Z" fill="white"/>
</svg>
