<svg width="17" height="18" viewBox="0 0 17 18" fill="none" xmlns="http://www.w3.org/2000/svg">
<path d="M1.01783 13.8418V8.4401C1.08914 8.43119 1.15153 8.45793 1.21393 8.48467C3.63844 9.29581 6.06295 10.098 8.48747 10.9092C8.82618 11.0251 9.1649 11.0251 9.51254 10.9092C11.937 10.098 14.3616 9.29581 16.7861 8.48467C17 8.41336 17 8.41336 17 8.6362C17 10.2763 17 11.9075 17 13.5476C17 13.8061 16.9465 14.0468 16.8396 14.2696C16.5008 14.9827 15.9214 15.3304 15.137 15.366C15.1103 15.366 15.0836 15.366 15.0568 15.366C11.0189 15.366 6.98106 15.366 2.93426 15.366C2.25682 15.366 1.70418 15.1164 1.30306 14.546C1.15153 14.332 1.07131 14.0824 1 13.8329L1.01783 13.8418Z" fill="white"/>
<path d="M1.01782 5.54318C1.08022 5.29359 1.16044 5.05292 1.31197 4.839C1.69526 4.28635 2.23899 4.01003 2.90752 4.01003C3.96824 4.01003 5.02896 4.01003 6.08969 4.01003C6.32144 4.01003 6.32144 4.01003 6.32144 3.76936C6.32144 3.6 6.32144 3.42173 6.33927 3.25237C6.42841 2.51253 6.95431 2.02228 7.69414 2.01337C8.56768 1.99554 9.44122 1.99554 10.3148 2.01337C11.117 2.02228 11.6696 2.59276 11.6875 3.39499C11.6875 3.51978 11.6875 3.64457 11.6875 3.76936C11.6875 4.00111 11.6875 4.01003 11.9192 4.01003C12.971 4.01003 14.0228 4.01003 15.0657 4.01003C15.4134 4.01003 15.7432 4.07242 16.0373 4.2507C16.6524 4.60724 16.9822 5.14206 16.9911 5.85515C16.9911 6.31866 16.9911 6.78217 16.9911 7.24568C16.9911 7.36156 16.9465 7.42395 16.8395 7.45961C14.2992 8.30641 11.7499 9.1532 9.20946 10C9.0401 10.0535 8.88857 10.0357 8.71921 9.98217C6.21448 9.14429 3.70083 8.30641 1.18718 7.46852C1.15153 7.4507 1.08022 7.43287 1.01782 7.41504V5.54318ZM9.01336 3.39499C8.7103 3.39499 8.40724 3.39499 8.11309 3.39499C7.65849 3.39499 7.71197 3.3415 7.70306 3.80501C7.70306 4.00111 7.71197 4.01003 7.91699 4.01003C8.5766 4.01003 9.23621 4.01003 9.89582 4.01003C10.3682 4.01003 10.3058 4.07242 10.3148 3.58217C10.3148 3.43955 10.2524 3.39499 10.1187 3.39499C9.7532 3.39499 9.37882 3.39499 9.01336 3.39499Z" fill="white"/>
</svg>
