<svg width="20" height="18" viewBox="0 0 20 18" fill="none" xmlns="http://www.w3.org/2000/svg">
<g clip-path="url(#clip0_2319_9840)">
<path d="M20 0.818102C19.8259 1.37511 19.6431 1.93211 19.4691 2.48912C18.5465 5.50043 17.6327 8.52045 16.7101 11.5405C16.2228 13.1245 15.7441 14.7084 15.2567 16.2924C15.0913 16.8407 14.6649 16.98 14.2036 16.6406C12.5239 15.396 10.8529 14.1514 9.17315 12.9069C9.03971 12.8082 8.93527 12.8343 8.85984 12.9852C8.19839 14.2994 7.53695 15.6136 6.8755 16.9191C6.84939 16.9713 6.82329 17.0235 6.79718 17.0757C6.64922 17.3368 6.38812 17.45 6.12703 17.389C5.83112 17.3107 5.66576 17.1018 5.66576 16.7711C5.66576 15.4395 5.66576 14.1079 5.66576 12.7676C5.66576 12.054 5.66576 11.3403 5.66576 10.6179C5.66576 10.4352 5.60483 10.3568 5.43947 10.2959C3.78586 9.66928 2.14095 9.02524 0.487341 8.3899C0.243651 8.29417 0.0434768 8.15492 0.00866396 7.87641C-0.0348521 7.5631 0.113103 7.31941 0.435122 7.19756C1.07916 6.94517 1.7232 6.70148 2.36724 6.45779C6.17925 5.00435 9.98255 3.55091 13.7946 2.09748C15.5439 1.42733 17.2933 0.757179 19.0426 0.0957345C19.53 -0.0870331 19.7128 -0.0348138 20 0.382941V0.809399V0.818102ZM18.0591 2.95909C18.0591 2.95909 18.0417 2.95039 18.033 2.94169C17.2584 3.75979 16.4839 4.5866 15.7006 5.4047C13.751 7.45866 11.8015 9.52132 9.8433 11.5753C9.66053 11.7668 9.62572 11.7319 9.86941 11.906C11.2706 12.9417 12.6718 13.9861 14.0644 15.0218C14.3342 15.2219 14.2994 15.248 14.4038 14.9086C15.2306 12.1845 16.0661 9.4604 16.8929 6.73629C17.2759 5.47432 17.6588 4.21236 18.0504 2.95039L18.0591 2.95909ZM2.29761 7.78938C3.56828 8.27676 4.77803 8.74674 5.98778 9.21671C6.12703 9.26893 6.22276 9.26023 6.34461 9.17319C9.17315 7.15405 12.0104 5.1349 14.8477 3.11575C14.9086 3.07224 14.9782 3.02002 15.0391 2.9765C15.0391 2.9678 15.0217 2.95039 15.013 2.94169C10.792 4.55178 6.56219 6.16188 2.29761 7.79808V7.78938ZM6.8668 14.195C6.8668 14.195 6.88421 14.195 6.90161 14.2037C7.31937 13.3768 7.72842 12.5587 8.14617 11.7319C8.2158 11.6014 8.28543 11.4708 8.38986 11.3577C8.83373 10.8964 9.26889 10.4352 9.70405 9.97389C11.288 8.31157 12.8633 6.64926 14.4473 4.97824C14.4734 4.95213 14.4908 4.91732 14.5082 4.88251C14.4212 4.90862 14.3603 4.95213 14.2906 4.99565C13.3768 5.64839 12.463 6.30113 11.5404 6.95387C10.0348 8.02437 8.52912 9.09486 7.03216 10.1654C6.93643 10.235 6.8668 10.2872 6.8668 10.4265C6.8668 11.6797 6.8668 12.933 6.8668 14.1862V14.195Z" fill="currentColor"/>
</g>
<defs>
<clipPath id="clip0_2319_9840">
<rect width="20" height="17.4064" fill="white"/>
</clipPath>
</defs>
</svg>
