<svg width="17" height="19" viewBox="0 0 17 19" fill="none" xmlns="http://www.w3.org/2000/svg">
<g clip-path="url(#clip0_903_4424)">
<path d="M3.51394 19C3.07351 18.8863 2.69079 18.6136 2.43965 18.2344C2.29846 17.9983 2.21619 17.7317 2.19969 17.4571C2.11969 16.52 2.05111 15.5942 1.97111 14.6685L1.69683 11.4686C1.62826 10.68 1.57107 9.88007 1.5025 9.0915L1.26254 6.1314C1.26254 6.00568 1.17109 5.98292 1.09109 5.94864C0.86136 5.84086 0.65948 5.68166 0.500962 5.48352C0.342445 5.28537 0.231537 5.05356 0.176813 4.80578C0.13047 4.57691 0.13406 4.34061 0.187346 4.11326C0.240632 3.88591 0.342333 3.67284 0.485547 3.4884C0.62876 3.30396 0.81008 3.15257 1.01715 3.04462C1.22421 2.93667 1.45218 2.87464 1.68539 2.86284C2.53111 2.86284 3.37679 2.86284 4.2225 2.86284C4.3825 2.86284 4.45108 2.86291 4.43965 2.64576C4.38861 2.25271 4.46046 1.85349 4.64535 1.50291C4.76963 1.26401 4.95654 1.06332 5.18602 0.922411C5.4155 0.7815 5.67895 0.705577 5.94823 0.702824C7.44537 0.702824 8.94249 0.702824 10.4282 0.702824C10.8242 0.724722 11.1983 0.891962 11.4787 1.17241C11.7592 1.45286 11.9263 1.8269 11.9482 2.22291C11.9482 2.37148 11.9482 2.50863 11.9482 2.6572C11.9482 2.80578 11.9482 2.85139 12.1425 2.83996H14.6454C15.0066 2.85112 15.3538 2.98257 15.6319 3.21343C15.91 3.44428 16.103 3.76135 16.1804 4.11438C16.2579 4.4674 16.2152 4.83618 16.0593 5.16223C15.9034 5.48827 15.6431 5.75299 15.3197 5.91432C15.2566 5.93651 15.2024 5.9785 15.1653 6.03416C15.1282 6.08981 15.1102 6.15613 15.114 6.22291C15.034 7.2972 14.9311 8.35998 14.8397 9.43427C14.7483 10.5086 14.7025 11.3085 14.6225 12.2457L14.3483 15.4571C14.3483 16.0971 14.234 16.7258 14.1997 17.3658C14.1902 17.7229 14.0679 18.0678 13.8502 18.3511C13.6326 18.6344 13.3309 18.8417 12.9883 18.9429H12.8625L3.51394 19ZM8.18825 6.08578H2.64535C2.37107 6.08578 2.3711 6.08578 2.39396 6.37149L2.70255 9.99426C2.80541 11.2857 2.91966 12.5886 3.02252 13.88C3.12537 15.1714 3.2168 16.2342 3.30823 17.4114C3.31794 17.5262 3.36428 17.6348 3.44042 17.7212C3.51655 17.8077 3.61845 17.8673 3.73108 17.8914C3.82218 17.9025 3.91426 17.9025 4.00536 17.8914H12.5311C12.6766 17.8914 12.8161 17.8336 12.919 17.7307C13.0219 17.6278 13.0796 17.4884 13.0796 17.3429L13.1825 15.9714C13.274 14.9085 13.3768 13.8457 13.4568 12.7715C13.5368 11.6972 13.6054 10.8972 13.6854 9.94864L13.9939 6.33717C13.9939 6.07431 13.994 6.0629 13.7425 6.0629L8.18825 6.08578ZM8.18825 4.94292H14.4054C14.519 4.96016 14.6346 4.96016 14.7482 4.94292C14.8734 4.91297 14.9818 4.8351 15.0501 4.72612C15.1185 4.61714 15.1414 4.48574 15.114 4.36005C15.0568 4.06291 14.8511 3.92576 14.4625 3.92576H1.8911C1.79624 3.91381 1.70025 3.91381 1.60539 3.92576C1.49766 3.95556 1.40258 4.01957 1.33453 4.10824C1.26648 4.19691 1.22914 4.30534 1.22822 4.41711C1.23265 4.52794 1.27132 4.63464 1.33885 4.72263C1.40638 4.81063 1.49948 4.87565 1.60539 4.9086C1.71555 4.92041 1.82663 4.92041 1.93679 4.9086L8.18825 4.94292ZM8.18825 2.79434H10.474C10.9768 2.79434 10.8968 2.88576 10.8968 2.36005C10.9059 2.2783 10.8964 2.19548 10.8692 2.11786C10.842 2.04025 10.7976 1.96983 10.7395 1.91167C10.6813 1.85351 10.6108 1.80916 10.5332 1.78193C10.4556 1.75469 10.3728 1.74523 10.2911 1.7543H6.41684C5.70827 1.7543 5.57107 1.89142 5.57107 2.58857C5.57107 2.77142 5.62821 2.80578 5.78821 2.80578L8.18825 2.79434Z" fill="white"/>
<path d="M6.06236 16.1428C6.07944 16.2488 6.07944 16.3569 6.06236 16.4628C6.03215 16.5808 5.96348 16.6854 5.86726 16.7601C5.77104 16.8348 5.65271 16.8754 5.5309 16.8754C5.4091 16.8754 5.29077 16.8348 5.19455 16.7601C5.09833 16.6854 5.02966 16.5808 4.99945 16.4628C4.99945 16.1771 4.94231 15.88 4.93088 15.5943C4.86231 14.52 4.80518 13.4571 4.73661 12.3942L4.5309 8.96563C4.5309 8.59229 4.50805 8.21134 4.46234 7.82277C4.44736 7.74617 4.44892 7.66728 4.46687 7.59132C4.48482 7.51537 4.51872 7.44413 4.56641 7.38234C4.6141 7.32055 4.67445 7.26968 4.74338 7.23306C4.8123 7.19645 4.88821 7.17493 4.9661 7.17001C5.044 7.16509 5.12205 7.17695 5.19504 7.20461C5.26802 7.23226 5.33429 7.27515 5.38937 7.33044C5.44445 7.38574 5.48708 7.4521 5.51444 7.5252C5.54181 7.59829 5.55329 7.6764 5.54806 7.75427C5.54806 8.2457 5.6166 8.74847 5.65088 9.2399L5.85659 12.52C5.85659 13.0915 5.93663 13.6628 5.97092 14.2571C6.0052 14.8513 6.03946 15.5715 6.08517 16.2343L6.06236 16.1428Z" fill="white"/>
<path d="M10.3137 16.1085C10.3137 15.2399 10.428 14.3485 10.4851 13.4457C10.4851 12.8057 10.5537 12.1771 10.5994 11.5371L10.7709 8.83994C10.7709 8.43994 10.7708 8.03994 10.8508 7.69708C10.8764 7.56639 10.9486 7.44948 11.0541 7.36812C11.1595 7.28676 11.2909 7.24658 11.4238 7.25498C11.5567 7.26337 11.682 7.31976 11.7764 7.41374C11.8707 7.50772 11.9276 7.63285 11.9365 7.76572C11.9365 8.50858 11.8565 9.23994 11.8108 9.98279C11.8108 10.4285 11.7537 10.8628 11.7194 11.2971L11.5137 14.6457C11.5137 15.2286 11.4451 15.7885 11.3994 16.3828C11.4015 16.4578 11.3875 16.5326 11.3583 16.6018C11.3291 16.671 11.2854 16.7331 11.2301 16.784C11.1749 16.8349 11.1094 16.8734 11.0381 16.8969C10.9667 16.9203 10.8912 16.9282 10.8166 16.92C10.7439 16.9158 10.6728 16.8968 10.6076 16.8642C10.5425 16.8317 10.4847 16.7863 10.4376 16.7307C10.3906 16.6751 10.3554 16.6106 10.3341 16.541C10.3128 16.4713 10.3058 16.3981 10.3137 16.3257V16.1085Z" fill="white"/>
<path d="M7.63965 11.9828V7.71998C7.63965 7.56843 7.6999 7.42313 7.80706 7.31597C7.91422 7.2088 8.05952 7.14856 8.21108 7.14856C8.36263 7.14856 8.508 7.2088 8.61516 7.31597C8.72233 7.42313 8.78251 7.56843 8.78251 7.71998V16.2914C8.78067 16.4194 8.73414 16.5428 8.65095 16.64C8.56776 16.7373 8.45316 16.8025 8.32701 16.8242C8.20085 16.8459 8.07109 16.8228 7.96017 16.7589C7.84925 16.695 7.76417 16.5943 7.71966 16.4743C7.70345 16.3798 7.70345 16.2831 7.71966 16.1886L7.63965 11.9828Z" fill="white"/>
</g>
<defs>
<clipPath id="clip0_903_4424">
<rect width="16.0914" height="18.2857" fill="white" transform="translate(0.142578 0.714287)"/>
</clipPath>
</defs>
</svg>
