<svg width="70" height="70" viewBox="0 0 70 70" fill="none" xmlns="http://www.w3.org/2000/svg">
<g clip-path="url(#clip0_1739_777)">
<path d="M56.4375 29.2837C54.4542 19.2212 45.6167 11.667 35 11.667C26.5708 11.667 19.25 16.4503 15.6042 23.4503C6.825 24.3837 0 31.8212 0 40.8337C0 50.4878 7.84583 58.3337 17.5 58.3337H55.4167C63.4667 58.3337 70 51.8003 70 43.7503C70 36.0503 64.0208 29.8087 56.4375 29.2837ZM55.4167 52.5003H17.5C11.0542 52.5003 5.83333 47.2795 5.83333 40.8337C5.83333 34.8545 10.2958 29.867 16.2167 29.2545L19.3375 28.9337L20.7958 26.1628C23.5667 20.8253 28.9917 17.5003 35 17.5003C42.6417 17.5003 49.2333 22.9253 50.7208 30.4212L51.5958 34.7962L56.0583 35.117C60.6083 35.4087 64.1667 39.2295 64.1667 43.7503C64.1667 48.5628 60.2292 52.5003 55.4167 52.5003ZM23.3333 37.917H30.7708V46.667H39.2292V37.917H46.6667L35 26.2503L23.3333 37.917Z" fill="#6C7A8E"/>
</g>
<defs>
<clipPath id="clip0_1739_777">
<rect width="70" height="70" fill="white"/>
</clipPath>
</defs>
</svg>
