<svg width="101" height="100" viewBox="0 0 101 100" fill="none" xmlns="http://www.w3.org/2000/svg">
<rect x="0.214844" width="100" height="100" rx="8" fill="#C5D0DF"/>
<g clip-path="url(#clip0_1434_50199)">
<path d="M49.6435 87C38.3886 87 27.1337 87 15.8812 87C15.6207 87 15.3602 87 15.0973 87C13.2855 87 12.1458 86.7607 12.2202 84.1495C12.4458 76.2393 15.0671 69.2466 20.1515 63.2065C25.5544 56.7877 32.4669 52.9475 40.7331 51.5513C42.2147 51.3004 43.7148 51.1332 45.2267 51.1378C48.041 51.1448 50.8553 51.1053 53.6672 51.1448C62.6497 51.2656 70.4321 54.3879 76.905 60.6162C82.8081 66.2962 86.1806 73.2447 87.0807 81.3966C87.2086 82.5558 87.2156 83.7081 87.2156 84.865C87.2156 86.0429 86.576 86.7537 85.4014 86.9117C84.8874 86.9814 84.3617 86.9977 83.8408 86.9977C72.4417 87.0023 61.0426 87.0023 49.6435 87.0023V87Z" fill="white"/>
<path d="M49.7456 12.0047C58.9188 11.7909 67.6757 19.2947 67.6664 29.8788C67.6571 40.1936 59.2747 47.8274 49.6316 47.7763C40.1537 47.7275 31.7922 40.1726 31.7969 29.851C31.7992 19.2668 40.5956 11.7747 49.7456 12.0047Z" fill="white"/>
</g>
<defs>
<clipPath id="clip0_1434_50199">
<rect width="75" height="75" fill="white" transform="translate(12.2148 12)"/>
</clipPath>
</defs>
</svg>
