<svg width="1440" height="1024" viewBox="0 0 1440 1024" fill="none" xmlns="http://www.w3.org/2000/svg">
<rect width="1440" height="1024" fill="url(#paint0_linear_369_30052)"/>
<g opacity="0.25">
<mask id="mask0_369_30052" style="mask-type:alpha" maskUnits="userSpaceOnUse" x="0" y="0" width="1440" height="1024">
<rect width="1440" height="1024" fill="white"/>
</mask>
<g mask="url(#mask0_369_30052)">
<path opacity="0.35" d="M1668.33 -389.804V718.485C1508.01 460.334 1240.59 433.724 1034.47 258.512C862.586 112.33 687.464 -266.776 725.172 -574H1545.26C1577.92 -573.908 1609.22 -554.462 1632.3 -519.928C1655.37 -485.395 1668.33 -438.596 1668.33 -389.804Z" fill="white" fill-opacity="0.8"/>
<path opacity="0.2" d="M1480.78 -480.392V1039.55C1480.78 1083.28 1469.15 1125.21 1448.45 1156.12C1427.75 1187.04 1399.67 1204.41 1370.4 1204.41H64.5072C49.9944 1204.45 35.6188 1200.21 22.2029 1191.95C8.787 1183.68 -3.40597 1171.55 -13.6777 1156.23C-23.9495 1140.92 -32.0985 1122.73 -37.6586 1102.71C-43.2187 1082.69 -46.0806 1061.23 -46.0806 1039.55V722.86C-17.2406 707.366 12.4293 694.661 41.4767 683.195C187.986 626.556 337.771 590.862 488.807 576.598C578.232 568.231 669.316 566.682 755.421 529.496C873.114 477.288 973.426 361.082 1036.56 203.816C1095.9 55.385 1119.55 -124.343 1195.49 -254.492C1267.49 -378.132 1374.75 -436.699 1480.78 -480.392Z" fill="white"/>
<path opacity="0.35" d="M462.249 1197.72H54.0358C45.4328 1197.74 36.9111 1195.36 28.9583 1190.7C21.0055 1186.05 13.7778 1179.22 7.68883 1170.59C1.59985 1161.97 -3.231 1151.73 -6.52696 1140.46C-9.82292 1129.19 -11.5194 1117.1 -11.5194 1104.9V6.76383C-11.5356 -5.45481 -9.85096 -17.5578 -6.56224 -28.8507C-3.27353 -40.1437 1.55451 -50.4045 7.6451 -59.0444C13.7357 -67.6843 20.9689 -74.5335 28.9297 -79.1987C36.8906 -83.864 45.4224 -86.2538 54.0358 -86.2308H177.029C211.558 -58.6242 240.229 -18.374 260.049 30.3173C312.444 163.092 284.647 326.922 256.851 474.352C229.055 621.782 204.456 788.405 261.402 916.642C312.075 1030.05 414.897 1085.18 462.249 1197.72Z" fill="white" fill-opacity="0.5"/>
</g>
</g>
<defs>
<linearGradient id="paint0_linear_369_30052" x1="1305.6" y1="500.622" x2="-5.15606e-06" y2="500.622" gradientUnits="userSpaceOnUse">
<stop stop-color="#006CD0"/>
<stop offset="1" stop-color="#02B2E1"/>
</linearGradient>
</defs>
</svg>
