<svg width="428" height="926" viewBox="0 0 428 926" fill="none" xmlns="http://www.w3.org/2000/svg">
<rect width="428" height="926" fill="url(#paint0_linear_369_31039)"/>
<g opacity="0.25">
<mask id="mask0_369_31039" style="mask-type:alpha" maskUnits="userSpaceOnUse" x="0" y="0" width="428" height="926">
<rect width="428" height="926" fill="url(#paint1_linear_369_31039)"/>
</mask>
<g mask="url(#mask0_369_31039)">
<path opacity="0.2" d="M571 86V917.784C571 941.711 562.881 964.657 548.429 981.576C533.976 998.495 514.375 1008 493.936 1008H-417.791C-427.924 1008.02 -437.96 1005.7 -447.327 1001.18C-456.693 996.657 -465.206 990.016 -472.377 981.636C-479.549 973.257 -485.238 963.304 -489.12 952.347C-493.002 941.39 -495 929.645 -495 917.784V744.474C-474.865 735.995 -454.15 729.043 -433.87 722.768C-331.583 691.773 -227.008 672.239 -121.56 664.433C-59.1264 659.854 4.46573 659.007 64.5812 638.657C146.75 610.086 216.785 546.493 260.862 460.43C302.291 379.202 318.805 280.846 371.822 209.623C422.087 141.961 496.978 109.911 571 86Z" fill="white"/>
<path opacity="0.35" d="M283 1078H-83.1928C-90.9102 1078.02 -98.5547 1075.88 -105.689 1071.71C-112.823 1067.54 -119.307 1061.41 -124.769 1053.68C-130.231 1045.96 -134.565 1036.78 -137.521 1026.67C-140.478 1016.56 -142 1005.73 -142 994.791V10.3654C-142.014 -0.588036 -140.503 -11.4377 -137.553 -21.5614C-134.603 -31.685 -130.272 -40.8833 -124.808 -48.6285C-119.344 -56.3738 -112.856 -62.5138 -105.714 -66.6959C-98.5731 -70.8781 -90.9195 -73.0205 -83.1928 -72.9999H27.1395C58.1142 -48.2518 83.8341 -12.1695 101.614 31.48C148.615 150.506 123.68 297.372 98.7452 429.536C73.8101 561.7 51.7436 711.069 102.827 826.028C148.284 927.693 240.522 977.117 283 1078Z" fill="white" fill-opacity="0.5"/>
<path opacity="0.35" d="M462 30.8941V295C409.087 233.482 320.822 227.141 252.792 185.388C196.061 150.553 138.261 60.2118 150.707 -13H421.38C432.16 -12.9782 442.492 -8.34402 450.107 -0.114638C457.723 8.11474 462 19.2669 462 30.8941Z" fill="white" fill-opacity="0.8"/>
</g>
</g>
<defs>
<linearGradient id="paint0_linear_369_31039" x1="360.661" y1="899.201" x2="-85.905" y2="852.924" gradientUnits="userSpaceOnUse">
<stop stop-color="#006CD0"/>
<stop offset="1" stop-color="#02B2E1"/>
</linearGradient>
<linearGradient id="paint1_linear_369_31039" x1="0" y1="0" x2="554.865" y2="676.099" gradientUnits="userSpaceOnUse">
<stop stop-color="#09ADEB"/>
<stop offset="1" stop-color="#40C1F0"/>
</linearGradient>
</defs>
</svg>
