<svg width="428" height="160" viewBox="0 0 428 160" fill="none" xmlns="http://www.w3.org/2000/svg">
<rect width="428" height="160" fill="url(#paint0_linear_388_25491)"/>
<g opacity="0.25">
<mask id="mask0_388_25491" style="mask-type:alpha" maskUnits="userSpaceOnUse" x="0" y="0" width="428" height="160">
<rect width="428" height="160" fill="url(#paint1_linear_388_25491)"/>
</mask>
<g mask="url(#mask0_388_25491)">
<path opacity="0.2" d="M448.545 -59.9458V231.486C448.545 239.869 444.641 247.909 437.694 253.837C430.746 259.765 421.323 263.095 411.498 263.095H-26.7975C-31.6685 263.103 -36.4933 262.291 -40.9961 260.706C-45.4989 259.121 -49.5912 256.794 -53.0387 253.858C-56.4862 250.922 -59.2213 247.435 -61.0874 243.596C-62.9535 239.757 -63.9141 235.642 -63.9141 231.486V170.764C-54.2345 167.793 -44.2764 165.357 -34.5272 163.158C14.6456 152.298 64.9179 145.455 115.61 142.72C145.624 141.115 176.194 140.818 205.094 133.688C244.595 123.678 278.263 101.397 299.452 71.243C319.368 42.7831 327.307 8.32234 352.794 -16.6321C376.958 -40.3387 412.96 -51.5683 448.545 -59.9458Z" fill="white"/>
<path opacity="0.35" d="M105.002 191.492H12.5619C10.6137 191.496 8.68395 191.102 6.88303 190.332C5.08212 189.563 3.4454 188.433 2.06655 187.007C0.687694 185.581 -0.406257 183.888 -1.15263 182.024C-1.899 180.16 -2.28318 178.162 -2.28318 176.144V-5.43827C-2.28685 -7.45868 -1.90535 -9.45997 -1.16062 -11.3273C-0.415888 -13.1947 0.677426 -14.8913 2.05665 -16.32C3.43587 -17.7486 5.07384 -18.8812 6.87658 -19.6526C8.67931 -20.424 10.6114 -20.8192 12.5619 -20.8154H40.4137C48.2328 -16.2505 54.7255 -9.59493 59.2137 -1.54358C71.0786 20.4113 64.7841 47.5016 58.4896 71.8799C52.195 96.2582 46.6247 123.81 59.5201 145.015C70.995 163.767 94.2792 172.884 105.002 191.492Z" fill="white" fill-opacity="0.5"/>
<path opacity="0.35" d="M454.251 -86.9083V121.558C396.561 73.0003 300.327 67.995 226.154 35.0382C164.302 7.54173 101.284 -63.7671 114.853 -121.555H409.964C421.717 -121.538 432.981 -117.88 441.284 -111.384C449.588 -104.889 454.251 -96.086 454.251 -86.9083Z" fill="white" fill-opacity="0.8"/>
</g>
</g>
<defs>
<linearGradient id="paint0_linear_388_25491" x1="406.315" y1="148.114" x2="62.3737" y2="-80.5579" gradientUnits="userSpaceOnUse">
<stop stop-color="#006CD0"/>
<stop offset="1" stop-color="#02B2E1"/>
</linearGradient>
<linearGradient id="paint1_linear_388_25491" x1="0" y1="0" x2="104.958" y2="280.763" gradientUnits="userSpaceOnUse">
<stop stop-color="#65FDF0"/>
<stop offset="1" stop-color="#1D6FA3"/>
</linearGradient>
</defs>
</svg>
