<svg width="720" height="1024" viewBox="0 0 720 1024" fill="none" xmlns="http://www.w3.org/2000/svg">
<rect width="720" height="1024" fill="url(#paint0_linear_357_1843)"/>
<g opacity="0.25">
<mask id="mask0_357_1843" style="mask-type:alpha" maskUnits="userSpaceOnUse" x="0" y="0" width="720" height="1024">
<rect width="720" height="1024" fill="url(#paint1_linear_357_1843)"/>
</mask>
<g mask="url(#mask0_357_1843)">
<path opacity="0.2" d="M883 98V989.326C883 1014.97 874.302 1039.55 858.819 1057.68C843.337 1075.81 822.338 1086 800.442 1086H-176.287C-187.142 1086.02 -197.894 1083.54 -207.928 1078.69C-217.962 1073.85 -227.082 1066.73 -234.765 1057.75C-242.447 1048.77 -248.542 1038.1 -252.701 1026.36C-256.859 1014.62 -259 1002.04 -259 989.326V803.61C-237.429 794.524 -215.238 787.074 -193.512 780.35C-83.932 747.136 28.0984 726.204 141.065 717.839C207.949 712.933 276.075 712.024 340.476 690.218C428.504 659.602 503.532 591.457 550.751 499.233C595.133 412.19 612.824 306.794 669.622 230.472C723.471 157.967 803.701 123.622 883 98Z" fill="white"/>
<path opacity="0.35" d="M343 1081H-23.1928C-30.9102 1081.02 -38.5547 1078.88 -45.6889 1074.71C-52.823 1070.54 -59.3067 1064.41 -64.7689 1056.68C-70.2311 1048.96 -74.5647 1039.78 -77.5214 1029.67C-80.478 1019.56 -81.9999 1008.73 -81.9999 997.791V13.3654C-82.0144 2.41197 -80.5032 -8.43775 -77.553 -18.5614C-74.6028 -28.685 -70.2718 -37.8833 -64.8081 -45.6285C-59.3445 -53.3738 -52.8558 -59.5138 -45.7145 -63.6959C-38.5731 -67.8781 -30.9195 -70.0205 -23.1928 -69.9999H87.1395C118.114 -45.2518 143.834 -9.16946 161.614 34.48C208.615 153.506 183.68 300.372 158.745 432.536C133.81 564.7 111.744 714.069 162.827 829.028C208.284 930.693 300.522 980.117 343 1081Z" fill="white" fill-opacity="0.5"/>
<path opacity="0.35" d="M922 -78.3398V413C823.612 298.553 659.491 286.756 532.993 209.079C427.506 144.272 320.032 -23.7976 343.174 -160H846.47C866.515 -159.959 885.726 -151.338 899.886 -136.028C914.047 -120.718 922 -99.9709 922 -78.3398Z" fill="white" fill-opacity="0.8"/>
</g>
</g>
<defs>
<linearGradient id="paint0_linear_357_1843" x1="652.8" y1="500.622" x2="-2.57803e-06" y2="500.622" gradientUnits="userSpaceOnUse">
<stop stop-color="#006CD0"/>
<stop offset="1" stop-color="#02B2E1"/>
</linearGradient>
<linearGradient id="paint1_linear_357_1843" x1="0" y1="0" x2="522.84" y2="969.151" gradientUnits="userSpaceOnUse">
<stop stop-color="#09ADEB"/>
<stop offset="1" stop-color="#40C1F0"/>
</linearGradient>
</defs>
</svg>
