<svg width="370" height="61" viewBox="0 0 370 61" fill="none" xmlns="http://www.w3.org/2000/svg">
<g clip-path="url(#clip0_357_1917)">
<path fill-rule="evenodd" clip-rule="evenodd" d="M29.777 37.9364H36.8254C39.5403 38.0938 39.8013 40.8111 36.8254 41.0851H29.777V37.9364ZM27.8279 36.2687H37.887C38.7193 36.2687 39.5176 36.6011 40.1062 37.1927C40.6947 37.7843 41.0254 38.5866 41.0254 39.4233C41.0254 40.2599 40.6947 41.0623 40.1062 41.6539C39.5176 42.2455 38.7193 42.5778 37.887 42.5778H27.8279V36.2687ZM29.8757 30.6418H35.6071C37.5621 30.8692 37.7942 33.3824 35.6071 33.9188H29.9221L29.8757 30.6418ZM27.7641 28.8925H36.808C39.8942 29.2482 40.2886 34.7585 36.808 35.604H27.8279L27.7525 28.8633L27.7641 28.8925ZM23.9817 28.0295H39.4301C44.2102 28.461 43.369 33.569 40.7237 34.9801C45.7765 36.9043 45.0281 43.6799 39.7549 44.0239H23.9817V28.0295ZM21.8875 37.8839V40.9335C17.7398 41.7498 13.5804 42.6362 10.1519 39.3183C7.59943 36.5078 7.55882 33.2308 7.4254 29.9479H9.99529C9.21214 40.7702 17.9196 41.9714 21.8875 37.8664V37.8839ZM18.3547 9.93012V13.1722H21.7309C23.0246 13.592 24.4284 13.8194 24.0223 17.1722V26.0936H26.7199V13.3296C26.7199 10.4433 25.2928 9.70855 23.1754 9.93012H18.3547ZM16.5853 8.18083V14.9506H21.6729V35.1375C21.7483 38.1754 12.9016 41.2251 11.8806 32.6127L11.8226 28.3211H5.337C5.20358 39.4991 9.29915 45.5983 21.8875 43.0501C22.1022 44.8403 22.5721 46.1464 24.9389 46.1173H40.3699C47.0353 45.8082 48.6132 38.2046 44.5524 34.6535C46.6756 29.0616 43.4444 26.6242 39.6621 26.2511H28.9881V12.5249C28.9475 9.70854 27.7815 7.86012 24.1732 8.16333H16.6317" fill="white"/>
<path fill-rule="evenodd" clip-rule="evenodd" d="M27.2477 0C42.2436 0 54.4839 13.5979 54.4839 30.257C54.4839 46.9162 42.2436 60.5198 27.2477 60.5198C12.2519 60.5198 -0.0174561 46.9278 -0.0174561 30.257C-0.0174561 13.5862 12.2287 0 27.2477 0ZM27.2477 2.22161C40.9093 2.22161 52.059 14.8107 52.059 30.257C52.059 45.7033 40.9035 58.3099 27.2477 58.3099C13.5919 58.3099 2.43061 45.7091 2.43061 30.257C2.43061 14.8049 13.5687 2.22161 27.2477 2.22161Z" fill="white"/>
<path d="M72.4963 4.19838C72.2411 5.22464 71.864 6.5716 71.3361 8.28008L70.5646 10.7524V30.986H67.9657V16.8341C67.7452 17.2734 67.403 17.8565 66.9389 18.5834L65.5814 15.6096C67.1651 12.5717 68.6096 8.53081 69.9439 3.47534L72.4963 4.19838ZM78.8427 25.1258C77.0295 27.1556 74.9626 28.9411 72.6936 30.4378L70.8314 28.3912C73.0094 27.0117 74.987 25.3359 76.7079 23.4115L78.8427 25.1258ZM82.2364 6.38501C81.7568 12.5581 78.9839 17.0285 73.9176 19.7963L72.4673 17.8429C74.0416 16.9233 75.4757 15.7803 76.7253 14.4493C76.4527 14.1635 75.6753 13.4813 74.4049 12.4026C73.954 13.0622 73.468 13.6968 72.9488 14.3035L71.3129 12.4667C73.3008 9.83981 74.8075 6.87809 75.7624 3.72024L78.1756 4.34416C77.8043 5.46371 77.5665 6.1401 77.4563 6.37334L82.2364 6.38501ZM92.8002 22.8576H83.4314V30.9626H80.6991V22.8576H71.69V20.3211H80.6991V17.4056H83.4314V20.3211H92.8002V22.8576ZM79.3126 8.86318H76.3831C75.9074 9.81363 75.6579 10.3209 75.6115 10.3909C76.4702 11.0266 77.2915 11.712 78.0712 12.4434C78.6509 11.2969 79.0669 10.074 79.3068 8.8107L79.3126 8.86318ZM92.5913 16.0411H89.6444V19.4464H87.0745V15.9886H82.3582L83.3792 9.57456H82.7295V7.11388H87.0803V3.81354H89.6502V7.11388H92.3361V9.55707H89.6502V13.528H92.5971L92.5913 16.0411ZM92.9974 28.7352L91.0599 30.5428C89.2842 28.6 87.2908 26.8703 85.1195 25.3882L86.9527 23.4407C89.1561 24.9554 91.182 26.7159 92.9916 28.6885L92.9974 28.7352ZM87.0687 13.528V9.5629H85.8389L85.2588 13.528H87.0687Z" fill="white"/>
<path d="M109.496 25.4463H104.681V30.8808H102.146V25.4463H96.8088V22.9857H102.146V20.525H97.4412V18.0818H99.8312C99.5781 16.7271 99.2292 15.3923 98.787 14.0876H96.861V11.5569H102.082V9.28284H97.7196V6.81633H102.082V3.84253H104.681V6.81633H108.742V9.28284H104.681V11.5569H109.38V14.1109H107.959C107.703 15.1099 107.301 16.4414 106.752 18.1051H108.881V20.525H104.681V23.0148H109.496V25.4463ZM105.331 14.1109H101.502C101.78 15.176 102.069 16.5074 102.366 18.1051H104.066C104.577 16.8042 105 15.4697 105.331 14.1109ZM124.074 28.7933L122.386 30.9391C120.953 29.9341 119.622 28.7896 118.412 27.5222C117.484 28.7936 116.413 29.9538 115.222 30.98L113.545 28.8983C114.805 27.9269 115.916 26.7735 116.84 25.4755C115.303 23.079 114.288 20.041 113.771 16.3675H113.006V30.8517H110.325V4.23904H122.606C122.606 5.81924 122.554 7.25949 122.444 8.57146C122.334 9.88344 122.136 10.7173 121.864 11.0555C121.599 11.3904 121.295 11.6919 120.959 11.9534C120.64 12.21 119.735 12.3499 118.25 12.3499C117.797 12.3499 117.31 12.3499 116.782 12.3033L115.894 9.84262C116.428 9.84262 117.443 9.87177 118.928 9.87177C119.044 9.86978 119.158 9.83891 119.259 9.78192C119.361 9.72494 119.446 9.64362 119.509 9.54524C119.677 9.32949 119.775 8.43735 119.828 6.88048H113.006V13.8485H122.653C122.266 18.4278 121.353 22.2043 119.915 25.1781C121.134 26.5578 122.533 27.766 124.074 28.77V28.7933ZM119.77 16.3908H116.341C116.605 18.6063 117.265 20.7556 118.29 22.7349C119.049 20.6838 119.546 18.5443 119.77 16.3675V16.3908Z" fill="white"/>
<path d="M154.75 28.8344L152.963 31.1084C146.942 26.5253 142.98 21.7147 141.077 16.6767C139.584 22.3211 135.638 27.0753 129.237 30.9393L127.381 28.6886C135.502 23.5923 139.563 16.9489 139.563 8.75826V3.78442H142.498V10.1985C142.498 13.5805 143.624 16.8847 145.875 20.1112C148.297 23.5236 151.302 26.4771 154.75 28.8344Z" fill="white"/>
<path d="M184.046 9.03229C184.046 14.5912 183.92 19.0616 183.669 22.4436C183.417 25.8255 183.1 27.9169 182.717 28.7177C182.371 29.4597 181.79 30.0648 181.064 30.4379C180.387 30.7683 178.869 30.9354 176.51 30.9393C175.808 30.9393 175.118 30.9393 174.456 30.8927L173.401 27.9772C174.418 28.0394 176.129 28.0705 178.535 28.0705C178.908 28.0789 179.274 27.9665 179.579 27.7498C179.877 27.5574 180.105 27.273 180.229 26.9393C180.466 25.7865 180.611 24.6166 180.664 23.4407C180.843 21.4348 180.954 19.4289 181.029 17.4289L181.192 11.6854H172.217C171.923 16.6067 170.885 20.4941 169.102 23.3474C167.319 26.2007 164.461 28.7274 160.528 30.9277L158.677 28.6419C161.498 27.2956 163.987 25.3405 165.969 22.9159C167.942 20.5096 169.102 16.77 169.45 11.6971H159.646V9.03229H169.601C169.723 7.41711 169.763 5.62699 169.734 3.67944H172.577C172.577 5.23437 172.515 7.01866 172.391 9.03229H184.046Z" fill="white"/>
<path d="M216.671 13.2248L215.372 15.7146C214.46 15.5184 213.562 15.2593 212.686 14.9391V26.6011H199.639L200.962 28.1521C197.678 29.6064 194.215 30.6124 190.665 31.1434L189.331 28.6886C192.226 28.347 195.069 27.6559 197.8 26.6303H193.246V14.8808H199.076L197.916 13.1315C201.544 12.218 204.241 10.6067 206.009 8.29762L208.811 8.9157C208.629 9.2929 208.401 9.64555 208.132 9.96528C210.756 11.5669 213.651 12.6716 216.671 13.2248ZM198.578 12.3618H189.58V9.80784H198.578V12.3618ZM198.311 7.41131H189.986V4.9273H198.311V7.41131ZM209.913 18.1695V17.0849H196.118V18.1928L209.913 18.1695ZM209.913 21.3415V20.1753H196.118V21.3415H209.913ZM209.913 24.5836V23.3707H196.118V24.6069L209.913 24.5836ZM216.137 7.767C215.306 8.97672 214.403 10.1353 213.434 11.2364L211.114 9.84283C211.369 9.53962 211.914 8.8399 212.767 7.767H203.021C202.186 8.74395 201.276 9.65436 200.3 10.4901L198.2 8.68246C200.057 7.24533 201.623 5.46392 202.812 3.43457L205.342 4.27423C205.228 4.67521 205.03 5.04703 204.761 5.36463H216.143L216.137 7.767ZM212.396 14.8808C210.252 14.1711 208.218 13.1643 206.351 11.8895C204.868 13.1814 203.167 14.1946 201.327 14.8808H212.396ZM216.503 28.8752L215.018 31.2717C212.068 30.3424 209.035 29.7058 205.962 29.3708L207.378 27.0384C210.478 27.2968 213.537 27.9212 216.491 28.8985L216.503 28.8752Z" fill="white"/>
<path d="M226.226 20.665C225.353 24.1489 224.175 27.5481 222.704 30.8226L220.32 29.1258C221.763 25.8438 222.91 22.4385 223.749 18.9507L226.226 20.665ZM226.997 15.0964L225.21 17.4288C223.8 15.9486 222.17 14.6975 220.378 13.7203L222.06 11.3879C223.87 12.3893 225.533 13.6372 227.003 15.0964H226.997ZM227.189 7.81934L225.274 9.9943C223.958 8.32351 222.406 6.85424 220.668 5.63272L222.681 3.55688C224.345 4.79646 225.86 6.22694 227.194 7.81934H227.189ZM247.295 6.7581H240.566C240.334 7.45782 240.026 8.26832 239.626 9.18379H246.384V20.665H240.688V28.7409C240.711 29.056 240.648 29.3714 240.508 29.6537C240.367 29.936 240.152 30.1747 239.887 30.3445C239.082 30.7441 238.184 30.9193 237.288 30.8518C236.708 30.8518 236.215 30.8517 235.728 30.7876L234.614 27.9946C235.339 28.047 236.024 28.082 236.685 28.082C237.049 28.1278 237.418 28.0713 237.752 27.9188C237.816 27.8569 237.865 27.781 237.895 27.6971C237.926 27.6132 237.936 27.5235 237.926 27.4348V20.665H232.27V9.18379H236.378C236.738 8.39587 237.048 7.58566 237.306 6.7581H230.652V17.3239C230.652 22.7661 229.633 27.3512 227.595 31.0792L225.274 29.5106C227.107 25.6121 228.009 21.3372 227.908 17.0265V4.19829H247.301L247.295 6.7581ZM236.412 23.0499C235.34 25.4795 233.915 27.7355 232.183 29.7439L229.909 27.8779C231.557 26.032 232.877 23.9158 233.813 21.6213L236.412 23.0499ZM243.675 13.7203V11.557H234.974V13.697L243.675 13.7203ZM243.675 18.2626V16.0177H234.974V18.2393L243.675 18.2626ZM247.736 28.0179L245.323 29.7672C244.537 27.3925 243.501 25.1092 242.231 22.9566L244.58 21.5863C245.873 23.5937 246.932 25.7439 247.736 27.9946V28.0179Z" fill="white"/>
<path d="M262.024 28.6534C262.025 28.9577 261.963 29.2588 261.842 29.5378C261.721 29.8167 261.544 30.0676 261.322 30.2744C260.852 30.7292 259.477 30.9333 257.186 30.8575L256.269 28.1228C256.846 28.2003 257.428 28.2412 258.01 28.2452C258.361 28.2794 258.715 28.2274 259.042 28.0936C259.119 28.0359 259.181 27.9598 259.221 27.8723C259.262 27.7848 259.28 27.6885 259.274 27.5922V20.974H255.863C255.569 25.0557 254.831 28.4046 253.647 31.0208L251.228 29.5106C252.512 26.5912 253.15 22.8341 253.143 18.2393V4.43731H261.995L262.024 28.6534ZM259.292 11.1954V7.11373H255.91V11.1954H259.292ZM259.292 18.2859V13.8777H255.91V18.2976L259.292 18.2859ZM278.627 28.7817L276.95 31.0325C275.476 30.1423 274.1 29.0986 272.843 27.9187C271.793 29.02 270.639 30.016 269.397 30.8925L267.512 28.8458C268.794 27.9947 269.964 26.9837 270.993 25.837C269.191 23.2176 267.949 20.2515 267.344 17.1255H267.007V30.91H264.217V4.29736H277.728C277.733 5.89428 277.597 7.48849 277.322 9.06128C277.049 10.589 276.742 11.5511 276.388 11.9418C276.038 12.3427 275.601 12.6578 275.111 12.8631C274.607 13.0847 273.272 13.1955 271.12 13.1955L270.024 10.6123C272.565 10.6648 273.957 10.5132 274.183 10.14C274.409 9.76683 274.618 8.71142 274.804 6.96796H267.007V14.4958H277.49C277.103 19.3471 276.08 23.0673 274.421 25.6563C275.698 26.8683 277.114 27.9234 278.638 28.7992L278.627 28.7817ZM274.531 17.1197H270.14C270.574 19.3364 271.404 21.456 272.588 23.3764C273.412 22.0061 274.067 19.9419 274.543 17.143L274.531 17.1197Z" fill="white"/>
<path d="M294.493 13.318C294.273 15.7853 293.717 18.2104 292.839 20.5251L290.664 19.907C291.181 18.6014 291.57 17.248 291.824 15.8661H290.148V28.1812C290.166 28.7534 289.985 29.3141 289.637 29.7672C289.347 30.1563 288.958 30.4603 288.512 30.6477C287.836 30.8352 287.135 30.9139 286.435 30.8809C285.971 30.8809 285.443 30.8809 284.863 30.8226L283.97 28.1462C284.55 28.187 285.495 28.2104 286.783 28.2104C287.276 28.2104 287.52 27.9013 287.52 27.2774V20.1344C286.607 22.6336 285.268 24.954 283.564 26.9917L282.061 24.3852C283.842 22.3852 285.443 19.5397 286.841 15.837H282.322V13.318H288.297C287.043 11.9804 285.629 10.8052 284.086 9.81941L285.942 8.07011C286.789 8.54244 287.589 9.09501 288.332 9.72028C289.135 8.84715 289.876 7.91768 290.548 6.9389H283.273V4.3616H293.849V6.72898C292.841 8.3929 291.675 9.95508 290.368 11.3938C290.626 11.6455 290.863 11.9186 291.076 12.2101L289.805 13.3238L294.493 13.318ZM307.98 20.3152C307.638 25.3823 307.336 28.2104 307.052 28.8051C306.776 29.397 306.35 29.9057 305.817 30.2804C305.271 30.6769 304.273 30.8635 302.841 30.8635C302.417 30.8635 301.93 30.8635 301.367 30.8051L300.48 28.2687C301.025 28.3153 301.64 28.3328 302.336 28.3328C302.945 28.3889 303.558 28.3113 304.134 28.1054C304.489 27.7414 304.72 27.2741 304.796 26.7701C305.027 25.4981 305.153 24.2089 305.173 22.9158H301.112C300.676 24.7578 299.712 26.4306 298.339 27.7264C296.862 29.2115 295.08 30.3539 293.118 31.0734L291.412 28.8576C295.206 27.4193 297.507 25.4387 298.316 22.9158H294.33V20.321H298.873C299.004 19.5137 299.095 18.7002 299.145 17.8837L301.791 18.0236C301.791 18.3793 301.721 19.1432 301.588 20.321L307.98 20.3152ZM309.593 16.3326L308.363 18.7C305.881 18.1609 303.533 17.1237 301.46 15.6504C299.745 16.8337 297.892 17.8011 295.943 18.5309L294.493 16.1985C296.23 15.6962 297.881 14.9314 299.389 13.9303C298.601 13.1456 297.874 12.3015 297.214 11.4054L299.319 9.95935C299.969 10.7832 300.672 11.5624 301.425 12.2917C302.433 11.2281 303.278 10.0195 303.931 8.70569H298.583C297.531 10.0166 296.391 11.2537 295.172 12.4084L293.315 10.6008C295.611 8.50619 297.568 6.06482 299.116 3.3645L301.564 4.26248C301.216 4.92676 300.829 5.56934 300.404 6.1867H308.891V8.70569H306.571C305.895 10.6216 304.821 12.3708 303.421 13.837C305.274 15.1103 307.38 15.9638 309.593 16.3385V16.3326Z" fill="white"/>
<path d="M324.038 26.8109C320.938 28.4556 317.662 29.7427 314.275 30.6477L312.94 28.3153C316.147 27.502 319.258 26.3488 322.222 24.875L324.038 26.8109ZM339.701 19.8137H316.554V12.3617C315.574 13.3646 315.023 13.9127 314.901 14.0002L313.103 11.9477C315.245 10.1051 317.223 7.25761 319.037 3.40527L321.59 4.19829C321.189 5.14291 320.859 5.8368 320.615 6.27412H326.846C326.587 5.55641 326.269 4.86198 325.894 4.19829L328.586 3.56854C329.137 4.58896 329.578 5.48694 329.914 6.27412H339.034V8.55404H329.485V10.1284H338.187V12.1926H329.485V13.7786H338.227V15.8894H329.485V17.5104H339.712L339.701 19.8137ZM340.194 24.1403H328.081V30.98H325.279V24.1403H313.335V21.6913H325.279V20.4668H328.081V21.6913H340.211L340.194 24.1403ZM326.712 10.1459V8.57153H319.31V10.1459H326.712ZM326.712 13.7961V12.2042H319.31V13.7903L326.712 13.7961ZM326.712 17.5279V15.9011H319.31V17.5221L326.712 17.5279ZM340.38 28.4435L338.802 30.6768C335.836 29.131 332.728 27.8811 329.52 26.945L331.26 24.77C334.404 25.7285 337.461 26.9556 340.397 28.4377L340.38 28.4435Z" fill="white"/>
<path d="M369.994 30.8518H367.43V29.7148H347.886V31.0209H345.258V4.27417H369.994V30.8518ZM367.43 27.4115V6.45496H347.886V27.4115H367.43ZM366.415 9.80778H358.81V10.7407H365.417V17.6096H364.292C365.034 18.3468 365.657 19.1969 366.136 20.1286L364.21 20.8692C364.094 20.5376 363.91 20.2339 363.671 19.977C358.62 20.4318 353.821 20.7603 349.273 20.9625L348.78 19.1549C351.305 19.1043 353.863 19.0246 356.454 18.9158V17.6096H349.789V10.7407H356.437V9.80778H348.78V8.09347H356.454V7.02057H358.81V8.09347H366.415V9.80778ZM366.659 23.5164H363.381V24.6826C363.416 24.99 363.361 25.3009 363.223 25.5774C363.085 25.8539 362.87 26.084 362.604 26.2395C362.087 26.5194 361.084 26.6535 359.581 26.6535C359.048 26.6535 358.56 26.6535 358.125 26.6069L357.452 24.6068C358.955 24.6068 359.906 24.6068 360.295 24.6068C360.683 24.6068 360.875 24.4202 360.875 24.1054V23.5223H348.884V21.738H360.875V20.9042H363.381V21.738H366.659V23.5164ZM356.582 25.0383L355.207 26.7235C354.137 26.192 353.023 25.755 351.877 25.4173L353.27 23.7322C354.409 24.0721 355.517 24.509 356.582 25.0383ZM356.454 13.3763V12.3034H352.249V13.353L356.454 13.3763ZM356.454 15.9828V14.8807H352.249V15.9595L356.454 15.9828ZM363.021 13.3763V12.3034H358.81V13.353L363.021 13.3763ZM363.021 15.9828V14.8807H358.81V15.9595L363.021 15.9828ZM363.172 17.6096H358.81V18.7292L362.372 18.4785C362.255 18.3176 362.119 18.1725 361.965 18.047L363.172 17.6096Z" fill="white"/>
<path d="M65.5815 48.4263L67.3798 48.1814C67.4204 49.3476 67.6351 50.1231 68.018 50.5488C68.2209 50.765 68.4681 50.9344 68.7426 51.0451C69.017 51.1559 69.3121 51.2054 69.6075 51.1902C70.0625 51.2017 70.5113 51.0823 70.9011 50.8462C71.2506 50.6265 71.5147 50.2931 71.6495 49.9016C71.8105 49.2875 71.879 48.6526 71.8525 48.0182V37.604H73.8365V47.8957C73.879 48.8876 73.7272 49.8781 73.3898 50.8112C73.1003 51.4906 72.5886 52.0502 71.9395 52.3972C71.2288 52.789 70.4296 52.9899 69.6191 52.9803C69.0616 53.0145 68.5034 52.9281 67.982 52.727C67.4606 52.5258 66.9882 52.2145 66.5967 51.8141C65.8948 51.0678 65.5351 49.9307 65.5815 48.4263Z" fill="white"/>
<path d="M76.7718 56.922L76.5688 55.1727C76.9117 55.2766 77.2666 55.3354 77.6246 55.3477C77.9657 55.3631 78.3052 55.2909 78.6108 55.1377C78.8466 54.9914 79.0453 54.7917 79.1909 54.5546C79.419 54.1095 79.6129 53.6475 79.771 53.1727C79.8058 53.0677 79.8638 52.9161 79.9334 52.7237L75.8088 41.7556H77.7928L80.0378 48.1056C80.3439 48.9349 80.6073 49.7796 80.8268 50.6362C81.0414 49.7907 81.2967 48.9627 81.5867 48.1464L83.9072 41.7673H85.7403L81.5983 52.8928C81.3046 53.743 80.9597 54.5745 80.5657 55.3826C80.304 55.9163 79.9155 56.3769 79.4345 56.7238C78.9843 57.0163 78.4563 57.1647 77.9204 57.1494C77.5281 57.1348 77.1404 57.058 76.7718 56.922Z" fill="white"/>
<path d="M94.8074 49.1845L96.7101 49.4236C96.4693 50.4588 95.8814 51.3791 95.0452 52.03C94.1352 52.677 93.0378 53.003 91.9242 52.9572C91.2251 52.9929 90.5263 52.8799 89.8736 52.6257C89.2208 52.3715 88.6288 51.9818 88.1361 51.4819C87.155 50.3379 86.6537 48.8558 86.738 47.3478C86.738 45.5052 87.2098 44.0746 88.1535 43.0562C88.619 42.5503 89.1874 42.151 89.82 41.8854C90.4526 41.6198 91.1346 41.4941 91.8198 41.5168C92.4862 41.4933 93.1499 41.6145 93.7656 41.8721C94.3812 42.1297 94.9344 42.5176 95.3875 43.0095C96.3118 44.0085 96.7739 45.4099 96.7739 47.2136C96.7739 47.3244 96.7739 47.4877 96.7739 47.7093H88.6524C88.648 48.7225 89.0062 49.7035 89.6618 50.4732C89.9543 50.7833 90.3084 51.0282 90.7012 51.192C91.0939 51.3557 91.5166 51.4346 91.9416 51.4236C92.5643 51.4462 93.1767 51.2595 93.6819 50.893C94.2154 50.4466 94.6068 49.8525 94.8074 49.1845ZM88.7394 46.1816H94.8306C94.8068 45.4358 94.5647 44.7137 94.1344 44.1057C93.8577 43.7573 93.5038 43.4789 93.1008 43.2926C92.6979 43.1063 92.2572 43.0173 91.814 43.0328C91.4184 43.0227 91.0249 43.094 90.6578 43.2424C90.2907 43.3909 89.9576 43.6132 89.6792 43.8958C89.0856 44.5082 88.7491 45.3266 88.7394 46.1816Z" fill="white"/>
<path d="M98.3113 48.1816V46.3157H103.979V48.1816H98.3113Z" fill="white"/>
<path d="M106.172 52.7123V37.6042H111.81C112.752 37.5692 113.692 37.7259 114.572 38.0648C115.244 38.3589 115.813 38.8509 116.202 39.4759C116.581 40.0714 116.782 40.7633 116.782 41.4701C116.78 42.1147 116.602 42.7463 116.266 43.2952C115.878 43.8965 115.329 44.3755 114.682 44.6772C115.512 44.8922 116.249 45.3733 116.782 46.0474C117.273 46.7057 117.528 47.511 117.507 48.3332C117.516 49.0177 117.365 49.6948 117.066 50.3099C116.817 50.8594 116.441 51.3412 115.97 51.7152C115.472 52.0655 114.913 52.3187 114.322 52.4615C113.527 52.6443 112.713 52.7285 111.897 52.7123H106.172ZM108.162 43.9658H111.41C112.047 43.9914 112.685 43.9326 113.307 43.7908C113.767 43.6779 114.175 43.413 114.467 43.0386C114.731 42.6515 114.865 42.1899 114.85 41.7208C114.859 41.2541 114.734 40.7946 114.491 40.3972C114.256 40.0194 113.893 39.7398 113.47 39.61C112.718 39.4378 111.948 39.3672 111.178 39.4001H108.179L108.162 43.9658ZM108.162 50.963H111.903C112.357 50.9715 112.81 50.9481 113.261 50.893C113.672 50.8326 114.066 50.6898 114.421 50.4732C114.75 50.2743 115.016 49.985 115.187 49.6393C115.39 49.2474 115.492 48.8102 115.483 48.3682C115.496 47.8453 115.346 47.3312 115.053 46.8988C114.763 46.4825 114.342 46.1764 113.858 46.0299C113.143 45.8302 112.401 45.7436 111.66 45.7734H108.179L108.162 50.963Z" fill="white"/>
<path d="M127.125 51.3594C126.541 51.8829 125.872 52.3029 125.147 52.6014C124.496 52.8434 123.806 52.9639 123.111 52.9571C122.116 53.0223 121.133 52.7102 120.355 52.0825C119.865 51.6132 119.542 50.9942 119.437 50.3214C119.332 49.6487 119.451 48.96 119.775 48.3623C120.001 47.9337 120.325 47.5657 120.721 47.2894C121.131 47.0236 121.582 46.8266 122.055 46.7063C122.594 46.5759 123.14 46.4804 123.691 46.4206C124.806 46.3211 125.907 46.1102 126.98 45.7908C126.98 45.5343 126.98 45.3652 126.98 45.301C127.011 45.0132 126.981 44.722 126.892 44.4466C126.803 44.1713 126.657 43.918 126.464 43.7033C125.864 43.2418 125.117 43.0177 124.364 43.0736C123.69 43.0212 123.016 43.1823 122.438 43.5342C121.964 43.9592 121.642 44.5286 121.521 45.1552L119.717 44.9103C119.84 44.2297 120.118 43.5869 120.53 43.0328C120.956 42.5136 121.522 42.1289 122.16 41.9249C122.955 41.6542 123.791 41.524 124.631 41.54C125.401 41.5161 126.168 41.6286 126.899 41.8724C127.374 42.0029 127.802 42.2671 128.133 42.6338C128.464 43.0004 128.684 43.4544 128.767 43.9424C128.846 44.5083 128.877 45.0798 128.86 45.6509V48.129C128.833 49.2208 128.872 50.3132 128.976 51.4002C129.057 51.8614 129.215 52.3052 129.446 52.7122H127.491C127.288 52.2874 127.164 51.8289 127.125 51.3594ZM126.969 47.2194C125.996 47.5697 124.985 47.8045 123.958 47.9191C123.411 47.9758 122.873 48.1012 122.357 48.2923C122.06 48.4069 121.805 48.6103 121.626 48.8752C121.448 49.14 121.355 49.4535 121.359 49.7734C121.358 50.0107 121.41 50.2451 121.51 50.4599C121.611 50.6747 121.757 50.8644 121.939 51.0154C122.408 51.3706 122.989 51.5445 123.575 51.5052C124.237 51.5185 124.891 51.3577 125.472 51.0387C126.002 50.7518 126.427 50.3024 126.684 49.7559C126.921 49.1659 127.024 48.5306 126.986 47.8958L126.969 47.2194Z" fill="white"/>
<path d="M133.704 52.7123L130.38 41.7675H132.277L134.017 48.0825L134.661 50.4149C134.69 50.2982 134.87 49.5519 135.241 48.1641L136.981 41.75H138.878L140.508 48.0999L141.048 50.1874L141.675 48.0766L143.542 41.75H145.329L141.93 52.6948H140.015L138.275 46.1407L137.857 44.2806L135.659 52.6948L133.704 52.7123Z" fill="white"/>
<path d="M152.987 52.7121V37.604H154.976V43.8082H162.79V37.604H164.78V52.7121H162.79V45.5983H154.976V52.7121H152.987Z" fill="white"/>
<path d="M174.99 52.7121V51.1028C174.62 51.6885 174.104 52.1673 173.494 52.4924C172.884 52.8174 172.2 52.9775 171.51 52.957C170.891 52.9643 170.278 52.8391 169.711 52.5897C169.224 52.3927 168.796 52.0711 168.47 51.6567C168.177 51.2473 167.978 50.7771 167.89 50.2806C167.793 49.7028 167.755 49.1168 167.774 48.5313V41.7673H169.618V47.8374C169.594 48.4927 169.633 49.1488 169.734 49.7966C169.828 50.2634 170.091 50.6788 170.471 50.9628C170.874 51.2544 171.362 51.4022 171.858 51.3826C172.407 51.3867 172.946 51.2395 173.418 50.957C173.885 50.7006 174.249 50.2881 174.445 49.7908C174.683 49.1017 174.787 48.3734 174.752 47.645V41.814H176.603V52.7121H174.99Z" fill="white"/>
<path d="M179.527 52.7123V41.7675H181.18V43.3069C181.518 42.7685 181.985 42.3236 182.537 42.0124C183.123 41.6816 183.785 41.5107 184.458 41.5168C185.154 41.4891 185.843 41.6654 186.442 42.024C186.951 42.3577 187.334 42.8551 187.526 43.4351C187.874 42.8503 188.367 42.3662 188.957 42.0299C189.547 41.6937 190.213 41.5169 190.891 41.5168C191.345 41.486 191.801 41.5504 192.23 41.706C192.658 41.8616 193.05 42.1049 193.38 42.4206C194.024 43.1914 194.339 44.187 194.256 45.1903V52.7123H192.422V45.82C192.446 45.2774 192.385 44.7345 192.243 44.2107C192.12 43.8823 191.888 43.6064 191.587 43.4293C191.258 43.2211 190.874 43.1156 190.485 43.1261C190.131 43.1147 189.779 43.1772 189.45 43.3097C189.122 43.4422 188.824 43.6418 188.576 43.8958C188.01 44.5834 187.737 45.4677 187.816 46.3565V52.7123H185.977V45.5984C186.021 44.9438 185.861 44.2917 185.519 43.7325C185.34 43.5188 185.113 43.3511 184.857 43.2436C184.601 43.1361 184.323 43.0918 184.046 43.1144C183.537 43.1114 183.037 43.255 182.607 43.5284C182.159 43.8089 181.819 44.2347 181.644 44.7355C181.417 45.475 181.317 46.2479 181.348 47.0212V52.7006L179.527 52.7123Z" fill="white"/>
<path d="M204.112 51.3594C203.531 51.8852 202.863 52.3055 202.139 52.6014C201.49 52.8435 200.802 52.964 200.109 52.9571C199.114 53.024 198.13 52.7118 197.353 52.0825C197.038 51.7999 196.788 51.4516 196.621 51.0618C196.454 50.672 196.373 50.2502 196.385 49.8259C196.382 49.3149 196.508 48.8116 196.75 48.3623C196.981 47.9343 197.309 47.5669 197.707 47.2894C198.116 47.0236 198.564 46.8266 199.036 46.7063C199.574 46.5759 200.121 46.4804 200.672 46.4206C201.786 46.3211 202.888 46.1102 203.961 45.7908C203.961 45.5343 203.961 45.3652 203.961 45.301C203.99 45.0128 203.958 44.7218 203.868 44.4466C203.778 44.1715 203.632 43.9183 203.439 43.7033C202.841 43.2426 202.096 43.0186 201.345 43.0736C200.669 43.0207 199.993 43.1818 199.413 43.5342C198.933 43.954 198.609 44.5258 198.496 45.1552L196.692 44.9103C196.814 44.2296 197.092 43.5869 197.504 43.0328C197.933 42.516 198.498 42.1318 199.134 41.9249C199.928 41.6541 200.762 41.5239 201.6 41.54C202.37 41.5151 203.138 41.6276 203.868 41.8724C204.362 42.0251 204.808 42.3044 205.162 42.6829C205.452 43.0505 205.651 43.4822 205.742 43.9424C205.82 44.5083 205.851 45.0798 205.835 45.6509V48.129C205.805 49.2209 205.846 50.3136 205.956 51.4002C206.032 51.8618 206.19 52.3061 206.421 52.7122H204.489C204.285 52.2872 204.157 51.8292 204.112 51.3594ZM203.961 47.2194C202.988 47.5697 201.977 47.8045 200.95 47.9191C200.402 47.9783 199.862 48.1035 199.343 48.2923C199.047 48.4108 198.791 48.6134 198.606 48.8754C198.4 49.2087 198.318 49.6047 198.374 49.9932C198.43 50.3817 198.622 50.7376 198.914 50.9979C199.382 51.3513 199.96 51.525 200.544 51.4877C201.208 51.5017 201.864 51.3409 202.447 51.0212C202.978 50.7343 203.405 50.2851 203.665 49.7384C203.893 49.1463 203.994 48.5124 203.961 47.8783V47.2194Z" fill="white"/>
<path d="M208.695 52.7122V41.7675H210.348V43.3302C210.719 42.7478 211.236 42.2739 211.847 41.9566C212.458 41.6392 213.141 41.4895 213.829 41.5226C214.451 41.5175 215.069 41.6384 215.644 41.8783C216.131 42.0706 216.557 42.3932 216.874 42.8112C217.158 43.2236 217.356 43.6899 217.454 44.1815C217.535 44.7804 217.568 45.3849 217.553 45.9891V52.7122H215.708V46.0591C215.734 45.4849 215.659 44.9106 215.488 44.3623C215.345 43.9836 215.077 43.6662 214.728 43.4643C214.338 43.2327 213.892 43.1156 213.44 43.1261C212.692 43.1123 211.967 43.3831 211.409 43.8841C210.829 44.3856 210.557 45.336 210.557 46.7413V52.7122H208.695Z" fill="white"/>
<path d="M226.463 52.7122V37.6041H233.129C234.164 37.5618 235.198 37.6999 236.186 38.0123C236.876 38.2945 237.454 38.7991 237.828 39.4467C238.246 40.1344 238.463 40.9265 238.454 41.7325C238.483 42.7317 238.118 43.7021 237.439 44.4322C236.565 45.2531 235.436 45.7471 234.243 45.8317C234.674 46.0285 235.078 46.2814 235.443 46.5839C236.072 47.1844 236.625 47.86 237.091 48.5955L239.713 52.6772H237.207L235.217 49.5343C234.637 48.6247 234.156 47.9308 233.784 47.4527C233.502 47.0662 233.161 46.726 232.775 46.4439C232.495 46.2624 232.187 46.1284 231.864 46.0474C231.498 45.9848 231.127 45.9594 230.756 45.9716H228.436V52.6772L226.463 52.7122ZM228.453 44.2748H232.717C233.442 44.3035 234.166 44.2069 234.858 43.9891C235.338 43.8309 235.748 43.5092 236.018 43.0794C236.28 42.6796 236.419 42.2112 236.418 41.7325C236.421 41.4031 236.354 41.0769 236.222 40.7754C236.09 40.4739 235.896 40.2039 235.652 39.9832C234.943 39.4539 234.067 39.2012 233.187 39.2718H228.43L228.453 44.2748Z" fill="white"/>
<path d="M248.809 49.1845L250.718 49.4236C250.475 50.461 249.883 51.382 249.041 52.03C247.993 52.719 246.748 53.039 245.499 52.9398C244.251 52.8406 243.071 52.3278 242.144 51.4819C241.15 50.344 240.642 48.8591 240.728 47.3478C240.728 45.5052 241.204 44.0766 242.144 43.0562C242.612 42.5493 243.184 42.1495 243.819 41.8839C244.455 41.6183 245.14 41.4931 245.827 41.5168C246.494 41.4933 247.158 41.6145 247.773 41.8721C248.389 42.1297 248.942 42.5176 249.395 43.0095C250.318 44.0066 250.77 45.406 250.77 47.2136V47.7093H242.648C242.648 48.7228 243.008 49.703 243.664 50.4732C243.956 50.7854 244.311 51.032 244.705 51.1968C245.099 51.3616 245.523 51.4409 245.949 51.4295C246.572 51.452 247.184 51.2653 247.69 50.8988C248.225 50.4526 248.615 49.8555 248.809 49.1845ZM242.759 46.1816H248.85C248.829 45.4353 248.586 44.7124 248.154 44.1057C247.881 43.7607 247.531 43.4841 247.134 43.2979C246.736 43.1117 246.301 43.021 245.862 43.0328C245.467 43.0227 245.073 43.094 244.706 43.2424C244.339 43.3909 244.006 43.6132 243.727 43.8958C243.123 44.5032 242.776 45.3224 242.759 46.1816Z" fill="white"/>
<path d="M252.29 49.4468L254.117 49.1553C254.177 49.8105 254.484 50.4177 254.976 50.8521C255.54 51.2736 256.235 51.4802 256.937 51.4352C257.605 51.4884 258.271 51.3071 258.822 50.9221C259.012 50.7803 259.167 50.5957 259.274 50.3831C259.381 50.1705 259.436 49.9357 259.437 49.6976C259.441 49.5001 259.394 49.3049 259.299 49.1318C259.204 48.9587 259.066 48.8139 258.897 48.7121C258.295 48.425 257.66 48.2135 257.006 48.0824C256.046 47.8693 255.106 47.5707 254.198 47.1902C253.707 46.9707 253.291 46.6095 253.003 46.1523C252.737 45.7091 252.599 45.2005 252.603 44.6829C252.595 44.2117 252.7 43.7455 252.911 43.3243C253.132 42.9115 253.443 42.5545 253.821 42.2805C254.18 42.0453 254.571 41.8645 254.982 41.7441C255.502 41.5915 256.041 41.5168 256.583 41.5225C257.348 41.5054 258.109 41.632 258.828 41.8957C259.393 42.081 259.892 42.4299 260.261 42.8986C260.596 43.4072 260.815 43.9851 260.899 44.5896L259.089 44.8404C259.036 44.3225 258.782 43.8467 258.381 43.5167C257.894 43.1762 257.308 43.0098 256.716 43.0444C256.081 42.9885 255.444 43.1398 254.9 43.4759C254.731 43.5806 254.59 43.725 254.489 43.8967C254.388 44.0683 254.33 44.2621 254.32 44.4613C254.321 44.6975 254.403 44.9261 254.552 45.1086C254.741 45.3322 254.982 45.5046 255.254 45.61C255.446 45.6684 255.991 45.8316 256.884 46.0824C257.816 46.3048 258.73 46.5912 259.623 46.9395C260.113 47.1405 260.535 47.4784 260.841 47.9133C261.145 48.3863 261.297 48.9422 261.276 49.5051C261.278 50.1291 261.092 50.7392 260.742 51.2544C260.357 51.8186 259.817 52.2582 259.187 52.5198C258.454 52.8333 257.663 52.9864 256.867 52.9688C255.724 53.0469 254.588 52.7368 253.642 52.0883C252.885 51.4034 252.404 50.4638 252.29 49.4468Z" fill="white"/>
<path d="M262.836 47.2427C262.836 45.2135 263.416 43.7441 264.519 42.7353C265.474 41.9203 266.694 41.4866 267.947 41.5166C268.627 41.4929 269.305 41.6123 269.936 41.8674C270.567 42.1225 271.139 42.5075 271.613 42.9977C272.108 43.5492 272.489 44.194 272.734 44.8947C272.979 45.5954 273.083 46.338 273.04 47.0794C273.092 48.2212 272.877 49.3593 272.414 50.4031C272 51.2021 271.357 51.8581 270.569 52.2865C269.767 52.7321 268.863 52.9612 267.947 52.9512C267.263 52.9802 266.581 52.8637 265.946 52.6095C265.31 52.3553 264.735 51.969 264.257 51.476C263.314 50.5003 262.84 49.0892 262.836 47.2427ZM264.739 47.2427C264.739 48.6421 265.041 49.6917 265.656 50.3856C265.94 50.7145 266.292 50.9782 266.687 51.1588C267.082 51.3395 267.51 51.433 267.944 51.433C268.378 51.433 268.807 51.3395 269.201 51.1588C269.596 50.9782 269.948 50.7145 270.233 50.3856C270.844 49.6859 271.147 48.6188 271.143 47.1844C271.225 46.0806 270.896 44.9857 270.221 44.1114C269.937 43.7828 269.587 43.5193 269.193 43.3386C268.799 43.158 268.371 43.0646 267.938 43.0646C267.505 43.0646 267.078 43.158 266.684 43.3386C266.29 43.5193 265.939 43.7828 265.656 44.1114C265.041 44.7937 264.739 45.8374 264.739 47.2427Z" fill="white"/>
<path d="M282.34 52.7121V51.1028C281.97 51.6893 281.454 52.1687 280.844 52.4939C280.233 52.8191 279.549 52.9787 278.859 52.957C278.24 52.9638 277.627 52.8385 277.061 52.5897C276.572 52.3967 276.145 52.0743 275.825 51.6567C275.535 51.2453 275.337 50.7759 275.245 50.2806C275.151 49.7025 275.114 49.1166 275.135 48.5313V41.7673H276.974V47.8374C276.953 48.4929 276.994 49.1488 277.095 49.7966C277.189 50.2634 277.452 50.6788 277.832 50.9628C278.236 51.2557 278.727 51.4036 279.224 51.3826C279.773 51.3853 280.313 51.2381 280.785 50.957C281.248 50.6954 281.61 50.2845 281.812 49.7908C282.045 49.1007 282.147 48.3729 282.113 47.645V41.814H283.958V52.7121H282.34Z" fill="white"/>
<path d="M286.859 52.7121V41.7674H288.524V43.4292C288.795 42.8395 289.191 42.3163 289.684 41.8956C290.023 41.6538 290.428 41.5234 290.844 41.5225C291.518 41.5346 292.175 41.7366 292.741 42.1056L292.109 43.8549C291.699 43.6037 291.231 43.4669 290.751 43.4583C290.361 43.4557 289.981 43.585 289.672 43.8257C289.339 44.0771 289.096 44.4314 288.982 44.8345C288.772 45.5379 288.668 46.2691 288.674 47.0036V52.7296L286.859 52.7121Z" fill="white"/>
<path d="M300.979 48.7062L302.788 48.9395C302.65 50.0772 302.108 51.1266 301.263 51.8958C300.427 52.6116 299.356 52.9898 298.258 52.957C297.589 52.9842 296.923 52.8677 296.302 52.6153C295.682 52.3629 295.123 51.9805 294.661 51.4935C293.762 50.5139 293.304 49.1086 293.304 47.2835C293.28 46.2201 293.477 45.1635 293.884 44.1814C294.24 43.3354 294.869 42.6349 295.671 42.193C296.461 41.7432 297.355 41.5099 298.264 41.5166C299.305 41.4716 300.33 41.791 301.164 42.4204C301.949 43.0754 302.464 44.0002 302.609 45.0152L300.816 45.2893C300.703 44.6416 300.381 44.0493 299.9 43.6041C299.464 43.2236 298.905 43.0162 298.327 43.021C297.898 43.0071 297.47 43.0911 297.078 43.2669C296.685 43.4426 296.337 43.7054 296.059 44.0356C295.479 44.7004 295.189 45.7849 295.189 47.2077C295.189 48.6304 295.479 49.7442 296.03 50.4089C296.295 50.7327 296.631 50.9909 297.011 51.1638C297.391 51.3367 297.806 51.4195 298.223 51.406C298.89 51.4306 299.539 51.192 300.033 50.7413C300.569 50.1907 300.903 49.4729 300.979 48.7062Z" fill="white"/>
<path d="M311.821 49.1843L313.723 49.4234C313.483 50.4479 312.904 51.3603 312.082 52.0124C311.172 52.6593 310.074 52.9853 308.961 52.9395C308.262 52.9748 307.563 52.8617 306.91 52.6075C306.258 52.3533 305.666 51.9638 305.173 51.4642C304.182 50.3313 303.67 48.8543 303.746 47.3476C303.746 45.505 304.227 44.0764 305.173 43.056C305.638 42.5501 306.207 42.1508 306.839 41.8852C307.472 41.6196 308.154 41.4939 308.839 41.5166C309.504 41.494 310.167 41.6156 310.782 41.8732C311.396 42.1307 311.948 42.5182 312.401 43.0093C313.321 44.0084 313.783 45.4097 313.787 47.2135C313.787 47.3242 313.787 47.4875 313.787 47.7091H305.666C305.661 48.7223 306.02 49.7033 306.675 50.473C306.966 50.7834 307.319 51.029 307.711 51.1937C308.103 51.3584 308.525 51.4387 308.949 51.4293C309.572 51.4532 310.185 51.2663 310.689 50.8986C311.226 50.4512 311.619 49.855 311.821 49.1843ZM305.759 46.1814H311.838C311.822 45.4352 311.581 44.7116 311.148 44.1055C310.875 43.7616 310.527 43.4858 310.13 43.2997C309.734 43.1135 309.3 43.0221 308.862 43.0326C308.465 43.0236 308.07 43.0954 307.701 43.2437C307.332 43.392 306.997 43.6138 306.716 43.8956C306.118 44.5066 305.775 45.3245 305.759 46.1814Z" fill="white"/>
<path d="M332.832 47.4117L334.822 47.919C334.51 49.3882 333.718 50.7101 332.571 51.6742C331.436 52.5597 330.028 53.0195 328.592 52.9745C327.207 53.0323 325.835 52.686 324.641 51.9774C323.593 51.2784 322.783 50.273 322.321 49.0969C321.785 47.8162 321.515 46.4393 321.526 45.0502C321.494 43.6241 321.806 42.2115 322.437 40.9335C322.993 39.8022 323.882 38.87 324.983 38.2629C326.101 37.6523 327.355 37.3391 328.626 37.3533C329.985 37.3095 331.319 37.7197 332.42 38.5195C333.475 39.3326 334.23 40.4753 334.567 41.7673L332.606 42.228C332.356 41.2912 331.828 40.4533 331.092 39.8256C330.361 39.305 329.481 39.0388 328.586 39.0676C327.554 39.0339 326.539 39.33 325.685 39.9131C324.914 40.4627 324.34 41.2481 324.049 42.1522C323.731 43.0907 323.57 44.076 323.574 45.0677C323.558 46.2137 323.755 47.3527 324.154 48.4263C324.476 49.32 325.09 50.0782 325.894 50.5779C326.665 51.049 327.551 51.2953 328.452 51.2893C329.48 51.3182 330.484 50.9724 331.278 50.3156C332.112 49.5558 332.661 48.5304 332.832 47.4117Z" fill="white"/>
<path d="M336.348 47.2428C336.348 45.2136 336.928 43.7442 338.024 42.7354C338.98 41.9204 340.2 41.4867 341.453 41.5167C342.138 41.4896 342.821 41.608 343.458 41.8642C344.095 42.1204 344.671 42.5087 345.148 43.0037C345.643 43.5552 346.024 44.2 346.269 44.9006C346.514 45.6013 346.618 46.3439 346.575 47.0853C346.631 48.228 346.414 49.3675 345.943 50.409C345.534 51.2057 344.898 51.8615 344.115 52.2924C343.308 52.7354 342.402 52.9641 341.482 52.9572C340.798 52.9861 340.116 52.8696 339.48 52.6154C338.845 52.3612 338.269 51.9749 337.792 51.4819C336.829 50.5023 336.348 49.0893 336.348 47.2428ZM338.245 47.2428C338.245 48.6422 338.548 49.6899 339.155 50.3857C339.441 50.7147 339.793 50.9785 340.188 51.1592C340.584 51.3399 341.013 51.4334 341.447 51.4334C341.881 51.4334 342.31 51.3399 342.706 51.1592C343.101 50.9785 343.453 50.7147 343.738 50.3857C344.346 49.686 344.649 48.6189 344.649 47.1845C344.729 46.0818 344.403 44.9879 343.733 44.1115C343.448 43.7826 343.096 43.519 342.701 43.3383C342.307 43.1576 341.878 43.0641 341.444 43.0641C341.01 43.0641 340.582 43.1576 340.187 43.3383C339.792 43.519 339.44 43.7826 339.155 44.1115C338.546 44.7938 338.245 45.8375 338.245 47.2428Z" fill="white"/>
<path d="M348.687 52.7121V41.7674H350.369V43.4292C350.641 42.8395 351.037 42.3163 351.529 41.8956C351.869 41.6552 352.274 41.5249 352.69 41.5225C353.361 41.5372 354.016 41.739 354.581 42.1056L353.943 43.8549C353.536 43.6032 353.069 43.4662 352.591 43.4583C352.197 43.4557 351.813 43.585 351.5 43.8257C351.172 44.0809 350.932 44.434 350.816 44.8345C350.608 45.5383 350.506 46.2695 350.514 47.0036V52.7296L348.687 52.7121Z" fill="white"/>
<path d="M355.694 56.9047V41.7442H357.377V43.1669C357.729 42.6569 358.189 42.231 358.723 41.9191C359.282 41.6246 359.907 41.48 360.538 41.4993C361.412 41.4816 362.27 41.7318 362.998 42.2165C363.725 42.7171 364.285 43.4263 364.605 44.2515C365.35 46.1528 365.331 48.2706 364.553 50.1583C364.205 50.9764 363.627 51.6748 362.891 52.1678C362.154 52.6608 361.29 52.9271 360.405 52.9338C359.83 52.9428 359.262 52.8086 358.752 52.5432C358.286 52.2997 357.875 51.9622 357.545 51.5519V56.8814L355.694 56.9047ZM357.371 47.3011C357.371 48.7122 357.655 49.754 358.224 50.4265C358.469 50.7399 358.781 50.9931 359.138 51.1669C359.495 51.3407 359.887 51.4304 360.283 51.4294C360.691 51.4275 361.093 51.3326 361.458 51.1518C361.824 50.971 362.144 50.709 362.395 50.3857C362.975 49.6918 363.259 48.6364 363.259 47.1495C363.344 46.0361 363.043 44.9275 362.406 44.0124C362.167 43.6957 361.86 43.4377 361.507 43.2579C361.154 43.0781 360.766 42.9812 360.37 42.9745C359.96 42.9855 359.558 43.0918 359.196 43.285C358.834 43.4782 358.521 43.7532 358.282 44.0882C357.613 45.0188 357.291 46.1559 357.371 47.3011Z" fill="white"/>
<path d="M367.894 52.7121V50.6013H370V52.7121H367.894Z" fill="white"/>
</g>
<defs>
<clipPath id="clip0_357_1917">
<rect width="370" height="60.514" fill="white"/>
</clipPath>
</defs>
</svg>
