<svg width="62" height="69" viewBox="0 0 62 69" fill="none" xmlns="http://www.w3.org/2000/svg">
<path fill-rule="evenodd" clip-rule="evenodd" d="M33.8056 43.398H41.7661C44.8324 43.5759 45.1272 46.6447 41.7661 46.9543H33.8056V43.398ZM31.6042 41.5146H42.9651C43.9052 41.5146 44.8067 41.8899 45.4715 42.5581C46.1362 43.2262 46.5096 44.1325 46.5096 45.0774C46.5096 46.0223 46.1362 46.9285 45.4715 47.5967C44.8067 48.2648 43.9052 48.6402 42.9651 48.6402H31.6042V41.5146ZM33.917 35.1595H40.3902C42.5982 35.4163 42.8603 38.2547 40.3902 38.8606H33.9694L33.917 35.1595ZM31.5321 33.1838H41.7464C45.232 33.5855 45.6775 39.8089 41.7464 40.7638H31.6042L31.519 33.1509L31.5321 33.1838ZM27.2603 32.2091H44.7079C50.1066 32.6965 49.1566 38.4654 46.1689 40.0592C51.8756 42.2324 51.0304 49.8849 45.0748 50.2734H27.2603V32.2091ZM24.8951 43.3388V46.783C20.2106 47.705 15.5129 48.706 11.6408 44.9588C8.75798 41.7846 8.71212 38.0835 8.56142 34.3758H11.4639C10.5794 46.5986 20.4137 47.9553 24.8951 43.319V43.3388ZM20.9051 11.7675V15.429H24.7182C26.1793 15.9032 27.7648 16.16 27.3062 19.9468V30.0227H30.3528V15.6069C30.3528 12.347 28.7411 11.5172 26.3496 11.7675H20.9051ZM18.9068 9.79178V17.4377H24.6527V40.237C24.7379 43.6681 14.7464 47.1123 13.5932 37.3854L13.5277 32.5384H6.20277C6.05207 45.163 10.6777 52.0515 24.8951 49.1736C25.1376 51.1954 25.6683 52.6706 28.3414 52.6376H45.7693C53.2973 52.2886 55.0794 43.701 50.4931 39.6904C52.8911 33.3748 49.2417 30.622 44.9699 30.2005H32.9146V14.698C32.8687 11.5172 31.5518 9.42958 27.4766 9.77203H18.9592" fill="white"/>
<path fill-rule="evenodd" clip-rule="evenodd" d="M30.9489 0.552734C47.8854 0.552734 61.7097 15.9103 61.7097 34.7254C61.7097 53.5404 47.8854 68.9046 30.9489 68.9046C14.0124 68.9046 0.155273 53.5536 0.155273 34.7254C0.155273 15.8972 13.9862 0.552734 30.9489 0.552734ZM30.9489 3.06184C46.3784 3.06184 58.9711 17.2801 58.9711 34.7254C58.9711 52.1706 46.3719 66.4086 30.9489 66.4086C15.5259 66.4086 2.92015 52.1772 2.92015 34.7254C2.92015 17.2735 15.4997 3.06184 30.9489 3.06184Z" fill="white"/>
</svg>
